<mxfile host="app.diagrams.net" modified="2024-09-26T07:06:12.824Z" agent="Mozilla/5.0 (Macintosh; Intel Mac OS X 10_15_7) AppleWebKit/537.36 (KHTML, like Gecko) Chrome/128.0.0.0 Safari/537.36" etag="BtA2gxs0ixSIoOL1eX_g" version="21.1.2" type="device">
  <diagram id="0d7cefc2-ccd6-e077-73ed-a8e48b0cddf6" name="Page-1">
    <mxGraphModel dx="1122" dy="-75" grid="1" gridSize="10" guides="1" tooltips="1" connect="1" arrows="1" fold="1" page="1" pageScale="1" pageWidth="1169" pageHeight="827" background="none" math="0" shadow="0">
      <root>
        <mxCell id="0" />
        <mxCell id="1" parent="0" />
        <mxCell id="-qusbfA-B7IGT00e7ALg-118" value="" style="image;aspect=fixed;perimeter=ellipsePerimeter;html=1;align=center;shadow=0;dashed=0;fontColor=#4277BB;labelBackgroundColor=default;fontSize=12;spacingTop=3;image=img/lib/ibm/data/data_services.svg;" vertex="1" parent="1">
          <mxGeometry x="240" y="1011" width="92.5" height="92.5" as="geometry" />
        </mxCell>
        <mxCell id="-qusbfA-B7IGT00e7ALg-111" value="&lt;div style=&quot;border-color: var(--border-color); color: rgb(66, 119, 187); font-size: 14px;&quot;&gt;&lt;span style=&quot;background-color: initial;&quot;&gt;Text Data&lt;/span&gt;&lt;/div&gt;" style="text;html=1;align=center;verticalAlign=middle;resizable=0;points=[];autosize=1;strokeColor=none;fillColor=none;" vertex="1" parent="1">
          <mxGeometry x="237.5" y="981" width="80" height="30" as="geometry" />
        </mxCell>
        <mxCell id="-qusbfA-B7IGT00e7ALg-117" value="" style="html=1;strokeWidth=1;shadow=0;dashed=0;shape=mxgraph.ios7.misc.text_size;fillColor=#007AFF;strokeColor=none;buttonText=;strokeColor2=#222222;fontColor=#222222;fontSize=8;verticalLabelPosition=bottom;verticalAlign=top;align=center;sketch=0;" vertex="1" parent="1">
          <mxGeometry x="270" y="1058" width="15" height="15" as="geometry" />
        </mxCell>
        <mxCell id="-qusbfA-B7IGT00e7ALg-120" value="" style="image;aspect=fixed;perimeter=ellipsePerimeter;html=1;align=center;shadow=0;dashed=0;fontColor=#4277BB;labelBackgroundColor=default;fontSize=12;spacingTop=3;image=img/lib/ibm/data/data_services.svg;" vertex="1" parent="1">
          <mxGeometry x="558.5" y="1130" width="72" height="72" as="geometry" />
        </mxCell>
        <mxCell id="-qusbfA-B7IGT00e7ALg-121" value="" style="html=1;strokeWidth=1;shadow=0;dashed=0;shape=mxgraph.ios7.misc.text_size;fillColor=#007AFF;strokeColor=none;buttonText=;strokeColor2=#222222;fontColor=#222222;fontSize=8;verticalLabelPosition=bottom;verticalAlign=top;align=center;sketch=0;" vertex="1" parent="1">
          <mxGeometry x="585" y="1160" width="15" height="17" as="geometry" />
        </mxCell>
        <mxCell id="-qusbfA-B7IGT00e7ALg-127" value="" style="image;aspect=fixed;perimeter=ellipsePerimeter;html=1;align=center;shadow=0;dashed=0;fontColor=#4277BB;labelBackgroundColor=default;fontSize=12;spacingTop=3;image=img/lib/ibm/data/data_services.svg;" vertex="1" parent="1">
          <mxGeometry x="558.5" y="930" width="72" height="72" as="geometry" />
        </mxCell>
        <mxCell id="-qusbfA-B7IGT00e7ALg-128" value="" style="html=1;strokeWidth=1;shadow=0;dashed=0;shape=mxgraph.ios7.misc.text_size;fillColor=#007AFF;strokeColor=none;buttonText=;strokeColor2=#222222;fontColor=#222222;fontSize=8;verticalLabelPosition=bottom;verticalAlign=top;align=center;sketch=0;" vertex="1" parent="1">
          <mxGeometry x="585" y="965" width="15" height="15" as="geometry" />
        </mxCell>
        <mxCell id="-qusbfA-B7IGT00e7ALg-138" value="" style="swimlane;shadow=0;strokeColor=#4277BB;fillColor=#ffffff;fontColor=#4277BB;align=right;startSize=0;collapsible=0;strokeWidth=3;" vertex="1" parent="1">
          <mxGeometry x="390" y="997.5" width="130" height="129" as="geometry" />
        </mxCell>
        <mxCell id="-qusbfA-B7IGT00e7ALg-142" value="&lt;b&gt;Pre-processing&lt;/b&gt;" style="text;html=1;align=center;verticalAlign=middle;resizable=0;points=[];autosize=1;strokeColor=#d79b00;fillColor=#ffe6cc;" vertex="1" parent="-qusbfA-B7IGT00e7ALg-138">
          <mxGeometry x="5" y="10" width="110" height="30" as="geometry" />
        </mxCell>
        <mxCell id="-qusbfA-B7IGT00e7ALg-151" value="" style="shape=flexArrow;endArrow=classic;html=1;rounded=0;entryX=0;entryY=0.5;entryDx=0;entryDy=0;exitX=1;exitY=0.5;exitDx=0;exitDy=0;" edge="1" parent="1" source="-qusbfA-B7IGT00e7ALg-127" target="-qusbfA-B7IGT00e7ALg-144">
          <mxGeometry width="50" height="50" relative="1" as="geometry">
            <mxPoint x="620" y="970" as="sourcePoint" />
            <mxPoint x="652" y="924.5" as="targetPoint" />
          </mxGeometry>
        </mxCell>
        <mxCell id="-qusbfA-B7IGT00e7ALg-153" value="" style="endArrow=classic;html=1;rounded=0;shape=flexArrow;entryX=0;entryY=0.5;entryDx=0;entryDy=0;exitX=1;exitY=0.5;exitDx=0;exitDy=0;" edge="1" parent="1" source="-qusbfA-B7IGT00e7ALg-120">
          <mxGeometry width="50" height="50" relative="1" as="geometry">
            <mxPoint x="500" y="1040" as="sourcePoint" />
            <mxPoint x="680" y="1166" as="targetPoint" />
          </mxGeometry>
        </mxCell>
        <mxCell id="-qusbfA-B7IGT00e7ALg-203" value="" style="points=[[0.35,0,0],[0.98,0.51,0],[1,0.71,0],[0.67,1,0],[0,0.795,0],[0,0.65,0]];verticalLabelPosition=bottom;sketch=0;html=1;verticalAlign=top;aspect=fixed;align=center;pointerEvents=1;shape=mxgraph.cisco19.user;fillColor=#005073;strokeColor=none;" vertex="1" parent="1">
          <mxGeometry x="850" y="1257" width="80" height="80" as="geometry" />
        </mxCell>
        <mxCell id="-qusbfA-B7IGT00e7ALg-204" value="" style="endArrow=classic;html=1;rounded=0;entryX=0;entryY=0.5;entryDx=0;entryDy=0;" edge="1" parent="1" target="-qusbfA-B7IGT00e7ALg-198">
          <mxGeometry width="50" height="50" relative="1" as="geometry">
            <mxPoint x="940" y="1297" as="sourcePoint" />
            <mxPoint x="900" y="1160" as="targetPoint" />
          </mxGeometry>
        </mxCell>
        <mxCell id="-qusbfA-B7IGT00e7ALg-205" value="&lt;b&gt;Prediction request&lt;/b&gt;" style="text;html=1;align=center;verticalAlign=middle;resizable=0;points=[];autosize=1;strokeColor=none;fillColor=none;" vertex="1" parent="1">
          <mxGeometry x="965" y="1257" width="130" height="30" as="geometry" />
        </mxCell>
        <mxCell id="-qusbfA-B7IGT00e7ALg-206" value="" style="endArrow=classic;html=1;rounded=0;exitX=0;exitY=0.75;exitDx=0;exitDy=0;" edge="1" parent="1" source="-qusbfA-B7IGT00e7ALg-198">
          <mxGeometry width="50" height="50" relative="1" as="geometry">
            <mxPoint x="1120" y="1330" as="sourcePoint" />
            <mxPoint x="940" y="1321" as="targetPoint" />
          </mxGeometry>
        </mxCell>
        <mxCell id="-qusbfA-B7IGT00e7ALg-207" value="&lt;b&gt;Prediction response&lt;/b&gt;" style="text;html=1;align=center;verticalAlign=middle;resizable=0;points=[];autosize=1;strokeColor=none;fillColor=none;" vertex="1" parent="1">
          <mxGeometry x="960" y="1330" width="140" height="30" as="geometry" />
        </mxCell>
        <mxCell id="-qusbfA-B7IGT00e7ALg-208" value="" style="shape=flexArrow;endArrow=classic;html=1;rounded=0;" edge="1" parent="1" source="-qusbfA-B7IGT00e7ALg-118" target="-qusbfA-B7IGT00e7ALg-138">
          <mxGeometry width="50" height="50" relative="1" as="geometry">
            <mxPoint x="680" y="1210" as="sourcePoint" />
            <mxPoint x="730" y="1160" as="targetPoint" />
          </mxGeometry>
        </mxCell>
        <mxCell id="-qusbfA-B7IGT00e7ALg-213" value="" style="edgeStyle=orthogonalEdgeStyle;rounded=0;orthogonalLoop=1;jettySize=auto;html=1;entryX=0;entryY=0.5;entryDx=0;entryDy=0;exitX=0.5;exitY=0;exitDx=0;exitDy=0;" edge="1" parent="1" source="-qusbfA-B7IGT00e7ALg-138" target="-qusbfA-B7IGT00e7ALg-127">
          <mxGeometry relative="1" as="geometry">
            <mxPoint x="460" y="990" as="sourcePoint" />
            <mxPoint x="490" y="890" as="targetPoint" />
          </mxGeometry>
        </mxCell>
        <mxCell id="-qusbfA-B7IGT00e7ALg-214" value="" style="edgeStyle=orthogonalEdgeStyle;rounded=0;orthogonalLoop=1;jettySize=auto;html=1;exitX=0.5;exitY=1;exitDx=0;exitDy=0;entryX=0;entryY=0.5;entryDx=0;entryDy=0;" edge="1" parent="1" source="-qusbfA-B7IGT00e7ALg-138" target="-qusbfA-B7IGT00e7ALg-120">
          <mxGeometry relative="1" as="geometry">
            <mxPoint x="465" y="1008" as="sourcePoint" />
            <mxPoint x="570" y="1147" as="targetPoint" />
          </mxGeometry>
        </mxCell>
        <mxCell id="-qusbfA-B7IGT00e7ALg-247" value="" style="swimlane;shadow=0;strokeColor=#4277BB;fillColor=#ffffff;fontColor=#4277BB;align=right;startSize=0;collapsible=0;strokeWidth=3;" vertex="1" parent="1">
          <mxGeometry x="230" y="880" width="1020" height="500" as="geometry" />
        </mxCell>
        <mxCell id="-qusbfA-B7IGT00e7ALg-144" value="&lt;pre style=&quot;line-height: 16.25px; padding: 0 var(--jp-code-padding); color: rgb(33, 33, 33); text-align: start;&quot;&gt;&lt;pre style=&quot;line-height: 16.25px; padding: 0 var(--jp-code-padding);&quot;&gt;&lt;font style=&quot;font-size: 12px;&quot;&gt;&lt;b&gt;Bag of words&lt;/b&gt;&lt;/font&gt;&lt;/pre&gt;&lt;pre style=&quot;line-height: 16.25px; padding: 0 var(--jp-code-padding);&quot;&gt;count vectorizer&lt;/pre&gt;&lt;/pre&gt;" style="whiteSpace=wrap;html=1;verticalAlign=top;fontColor=#4277BB;labelBackgroundColor=default;shadow=0;dashed=0;spacingTop=3;" vertex="1" parent="-qusbfA-B7IGT00e7ALg-247">
          <mxGeometry x="450" y="46.5" width="130" height="79" as="geometry" />
        </mxCell>
        <mxCell id="-qusbfA-B7IGT00e7ALg-252" value="&lt;pre style=&quot;line-height: 16.25px; padding: 0 var(--jp-code-padding); color: rgb(33, 33, 33); text-align: start;&quot;&gt;&lt;pre style=&quot;line-height: 16.25px; padding: 0 var(--jp-code-padding);&quot;&gt;&lt;font style=&quot;font-size: 12px;&quot;&gt;&lt;b&gt;Bag of words&lt;/b&gt;&lt;/font&gt;&lt;/pre&gt;&lt;pre style=&quot;line-height: 16.25px; padding: 0 var(--jp-code-padding);&quot;&gt;count vectorizer&lt;/pre&gt;&lt;/pre&gt;" style="whiteSpace=wrap;html=1;verticalAlign=top;fontColor=#4277BB;labelBackgroundColor=default;shadow=0;dashed=0;spacingTop=3;" vertex="1" parent="-qusbfA-B7IGT00e7ALg-247">
          <mxGeometry x="450" y="243" width="130" height="79" as="geometry" />
        </mxCell>
        <mxCell id="-qusbfA-B7IGT00e7ALg-160" value="" style="swimlane;shadow=0;strokeColor=#4277BB;fillColor=none;fontColor=#4277BB;align=right;startSize=0;collapsible=0;strokeWidth=3;" vertex="1" parent="-qusbfA-B7IGT00e7ALg-247">
          <mxGeometry x="650" y="40" width="130" height="289" as="geometry" />
        </mxCell>
        <mxCell id="-qusbfA-B7IGT00e7ALg-183" value="" style="whiteSpace=wrap;html=1;aspect=fixed;" vertex="1" parent="-qusbfA-B7IGT00e7ALg-160">
          <mxGeometry x="5" y="9" width="121.86" height="121.86" as="geometry" />
        </mxCell>
        <mxCell id="-qusbfA-B7IGT00e7ALg-161" value="&lt;font style=&quot;font-size: 14px;&quot;&gt;&lt;b&gt;Multinomial&amp;nbsp;NB&lt;/b&gt;&lt;/font&gt;" style="text;html=1;align=center;verticalAlign=middle;resizable=0;points=[];autosize=1;strokeColor=#d79b00;fillColor=#ffe6cc;" vertex="1" parent="-qusbfA-B7IGT00e7ALg-160">
          <mxGeometry y="10" width="130" height="30" as="geometry" />
        </mxCell>
        <mxCell id="-qusbfA-B7IGT00e7ALg-162" value="" style="shape=image;verticalLabelPosition=bottom;labelBackgroundColor=default;verticalAlign=top;aspect=fixed;imageAspect=0;image=data:image/png,iVBORw0KGgoAAAANSUhEUgAAATEAAAEFCAYAAACLjtDTAAAYVmlDQ1BJQ0MgUHJvZmlsZQAAWIWVeQdUFEvTds/sbIQl55yj5Jwk55yDqCw5g0tGRUREBBWQIAqIAhdBFIyIiIAEAyJJBUVRFBRQVAxklG8Ieu973//83/n6nJ5+trq6qro61NQOANwVlMjIUJgBgLDwaKqDqYGAm7uHAH4SEAAfIAIhQKD4REXq29lZAbT8bv+zzA0CaK19LLMm67/7/7+F0dcvygcAyA7F3r5RPmEovgYAUuwTSY0GALdGF46LjlzDaAUsVNRAFKev4YANXLyGvTfwpXUeJwdDFHcAQKClUKgBAND1oXSBWJ8AVAbdDNrHFO4bFA4AK4LirWFhEb4AcBuhPBIoTySK1+ah7v0POQH/IdP7j0wKJeAP3pjLeiEYBUVFhlIS/o/u+N9LWGjMbx1iaKUNpJo5rM0Z9duzkAjLNUyL4ulwbxtbFDOheCHId50fxTApMMbMeYMf5vGJMkR9BthQLO9LMbJEMQ+KTcJDbaw26d7+QSbmKEZ3CBwfFG3uhGIOFKf7RRk7bvKcoUY4bOqC6/2phvqb9PsU6rreNV2vYkKc9Tflfwv0M9+Uj6FLDHRyRTEJxSKxQS42KKZDsWxUiKPlJo92YqChzW8eaozDmv0iKHbwCzc12JCPifWnmjhs8meERf2eL+ZMYJC5zSa+Eh3oZLbhH0yHD2XdfnQumD6/cH3n33L8otysfs/F18/IeGPumEm/cGfHTTkLkdEGDhtjEVJkqN0mPyLkF2q6RhdCsXJUrOPmWMQlGt2QG/IR/8hoO6cNO5HEYIqF3YY9SDawAobACAiAGLR6gwgQDIJ6pm9Mo782ekwABVBBAPADMpuU3yNc13vC0acjSASfUOQHov6MM1jv9QOxKP3nH+rGUwb4r/fGro8IAe9RHAYsQSj6O2Z9VPgfbS5gHKUE/Zd2Clp9UHtD0brW//+m/6b+TdFHKVablJjfGgXof3PijHFGODOcCU4S4UK2IlqIFfrUQ6sioo5o/J7H3/zY99h+7FvsU+wo9vnOoBTqv6y0BqOofJNNX3j/0xeIGCpTBTFAdFDpqGSEDeECMogyqkcf0UU1q6BUw02717wi8C/Z/zGDf6zGJh9RnggT2Yl6RIl/j6STolP5I2XN1//0z4at3n/8bfin59/6Df/hfV+0tfw3JyYdcxVzD3MH8wDThLkBBDAtmAZMN+b2Gv6zu8bXd9dvbQ7r9oSgcoL+S9/vlV3zZJR8jfyU/MpGX7Rf/NodDQwjIhOoQQGB0QL6aETwEzAP95HdIqAor6gMwFp82bi+vjusxw2IrfdvGgW9d9UV0aNu8DctAr0zavPRI3Pyb5oYeqY5NQC44uATQ43doCFrDyx6S9CjJ40TjV/CQAKdjyJQBVpADxgDC2ALnIA72IFaH4jucyqIA3vAfpAGMkE2yAenQCkoB1XgIrgCboAmcAfcBQ9BH3gKXqC75x34CGbAHFiGIAgPkSFmiBPih0QhaUgRUoe2QsaQFeQAuUNeUAAUDsVAe6ADUCZ0HDoFnYWqocvQTegO9ADqh55Db6Ap6Bu0BGNgWpgF5oXFYDlYHdaHLWEneDscAO+CE+FU+BhcCJfBF+B6+A78EH4Kj8If4VkMwNBg2DCCGBmMOsYQY4vxwPhjqJgkTAamAFOGqcU0ouv8GDOKmcYsIjiEGRFAZNAdbIY4Iz7ILiQJOYKcQqqQeqQDeYy8QWaQX1gylgcrjdXEmmPdsAHYOGwatgBbib2O7UTP0jvsHA6HY8OJ49TQs+iOC8btxh3BleDqcK24ftwYbhaPx3PipfE6eFs8BR+NT8OfxF/At+AH8O/wCwQaAj9BkWBC8CCEE1IIBYTzhGbCAGGCsExkIIoSNYm2RF9iAjGLWEFsJPYS3xGXSYwkcZIOyYkUTNpPKiTVkjpJL0nfaWhohGg0aOxpgmiSaQppLtHcp3lDs0jLRCtFa0jrSRtDe4z2HG0r7XPa72QyWYysR/YgR5OPkavJ7eRX5AU6ZjpZOnM6X7p9dEV09XQDdJ/pifSi9Pr0O+gT6Qvor9L30k8zEBnEGAwZKAxJDEUMNxmGGGYZmRkVGG0ZwxiPMJ5nfMA4yYRnEmMyZvJlSmUqZ2pnGmPGMAszGzL7MB9grmDuZH7HgmMRZzFnCWbJZLnI0sMyw8rEqszqwhrPWsR6m3WUDcMmxmbOFsqWxXaFbZBtiZ2XXZ/dj/0wey37APs8BzeHHocfRwZHHcdTjiVOAU5jzhDOHM4bnCNcCJcUlz1XHNdprk6uaW4Wbi1uH+4M7ivcwzwwjxSPA89unnKebp5ZXj5eU95I3pO87bzTfGx8enzBfHl8zXxT/Mz8W/mD+PP4W/g/CLAK6AuEChQKdAjMCPIImgnGCJ4V7BFcFhIXchZKEaoTGhEmCasL+wvnCbcJz4jwi1iL7BGpERkWJYqqiwaKnhC9JzovJi7mKnZI7IbYpDiHuLl4oniN+EsJsoSuxC6JMoknkjhJdckQyRLJPilYSkUqUKpIqlcallaVDpIuke7fgt2isSV8S9mWIRlaGX2ZWJkamTeybLJWsimyN2Q/y4nIecjlyN2T+yWvIh8qXyH/QoFJwUIhRaFR4ZuilKKPYpHiEyWykonSPqUGpa/K0sp+yqeVn6kwq1irHFJpU/mpqqZKVa1VnVITUfNSK1YbUmdRt1M/on5fA6thoLFPo0ljUVNVM1rziuYXLRmtEK3zWpPa4tp+2hXaYzpCOhSdszqjWwW2em09s3VUV1CXolum+1ZPWM9Xr1JvQl9SP1j/gv5nA3kDqsF1g3lDTcO9hq1GGCNTowyjHmMmY2fjU8avTIRMAkxqTGZMVUx3m7aaYc0szXLMhsx5zX3Mq81nLNQs9lp0WNJaOlqesnxrJWVFtWq0hq0trHOtX9qI2oTb3LAFtua2ubYjduJ2u+xu2ePs7eyL7N87KDjscbjnyOy40/G845yTgVOW0wtnCecY5zYXehdPl2qXeVcj1+Ouo25ybnvdHrpzuQe5N3jgPVw8Kj1mtxlvy9/2zlPFM81zcLv49vjtD3Zw7QjdcXsn/U7KzqteWC9Xr/NeKxRbShll1tvcu9h7xsfQ54TPR1893zzfKT8dv+N+E/46/sf9JwN0AnIDpgJ1AwsCp4MMg04FfQ02Cy4Nng+xDTkXshrqGloXRgjzCrsZzhQeEt4RwRcRH9EfKR2ZFjm6S3NX/q4ZqiW1MgqK2h7VEM2Cvsh3x0jEHIx5E7s1tih2Ic4l7mo8Y3x4fHeCVMLhhIlEk8S/diO7fXa37RHcs3/Pm736e88mQUneSW37hPel7nuXbJpctZ+0P2T/oxT5lOMpPw64HmhM5U1NTh07aHqwJo0ujZo2dEjrUGk6kh6U3nNY6fDJw78yfDO6MuUzCzJXjvgc6TqqcLTw6Oox/2M9WapZp7Nx2eHZgzm6OVXHGY8nHh/Ltc6tzxPIy8j7kb8z/0GBckHpCdKJmBOjhVaFDSdFTmafXDkVeOppkUFRXTFP8eHi+RLfkoHTeqdrS3lLM0uXzgSdeXbW9Gx9mVhZQTmuPLb8fYVLxb2/1P+qruSqzKz8eS783GiVQ1VHtVp19Xme81k1cE1MzdQFzwt9F40uNtTK1J6tY6vLvAQuxVz6cNnr8uAVyyttV9Wv1l4TvVZ8nfl6Rj1Un1A/cyPwxmiDe0P/TYubbY1ajddvyd461yTYVHSb9XZWM6k5tXm1JbFltjWydfpOwJ2xtp1tL9rd2p902Hf0dFp23r9rcrf9nv69lvs695seaD642aXedeOh6sP6bpXu649UHl3vUe2p71XrbejT6Gvs1+5vHtAduPPY6PHdJ+ZPHj61edo/6Dz4bMhzaPSZ77PJ56HPvw7HDi+/SH6JfZkxwjBS8IrnVdlrydd1o6qjt98Yvel+6/j2xZjP2MfxqPGVd6nvye8LJvgnqicVJ5umTKb6Pmz78O5j5Mfl6bRPjJ+KP0t8vvZF70v3jNvMu6/Ur6vfjnzn/H7uh/KPtlm72VdzYXPL8xkLnAtVi+qL95ZclyaW41bwK4U/JX82/rL89XI1bHU1kkKlrL8KYNAK+/sD8O0cAGR3AJjR/Iy0bSP/2ywY9OUDRlsXSBb6CHdgDiCOWD2cOJ6LwEHkJ+nQ2NCGkLPpbtJPM8ow+TGXs4yxSbEncLRw0XO78lTwfufXFkgVfCTMKOIgelTsoQSQVJLylz6xpUtmXk5C3l4hWbFG6akKrKqgtl09Q6Ne8402WUd9q5fuYb3L+i8NCUaqxj4m2aYNZq8sIEsRK1PrYJss22t2z+wXHNmclJxtXcJcj7rVuj/0eLNtxnN++/JO4EWicHrL+Oj7Ovjt9PcLoAQ6BmkHC4RAIaOhLWFnwg9EBEba7VKnCkQRor5ED8Y0x1bF5cYnJYQmuu8236OzVy1JdZ9Gsv5+yxTXA36p0QcPpuUdqki/erg1oztz8MjroxPHPmV9y57NmTs+mzubt1SAnGAt3HLS9JRP0b7iwpLa0y2lD888OTtcNlo+VfGjEnOOtUqq2uC8Z03chbyLV2r7675eZryidNXxWtT17PrqG40Nd262N7beutV0/XZdc3VLeWvJnfy2jPY9HcGdjndV73HcW7w/+qC36+7D9u47j5p66noL+6L6DQfIA48fFz3xf6oyiB0cGqp6Fvtcbxg3fA/dXyovJ0ZyXmm9Gnt9dFRr9OOb0rcOY5ixunHn8cV3ee+3vG+ZcJgYnzw4JTc1/qHqY/i00vTsp7rPPl8Yv1yfsZt5/3XPN/Zvd79n/Qifpcz5o/tofKnzp+zq6vr6C0OX4GCMImYSuYxNxrnhdQgyRHGSOI0QrTxZk86e3ochibGUqZl5ipWBTZ2dwpHOeY3rFQ8NrxLfNv5kgbOCLUIvhGdFacT4xVUkzCW9pBKkc7dclumWnZRHFAQVtZU8lKNVMlUr1G6qP9J4q/lDG6fDvVVB11ovVD/L4JJhn9EnE4Ipr5miubGFs6WPVbh1vE2S7QG7g/ZpDumOGU5HnDNcUl0T3ALdnTyMtul6mmz32BG3M9/rEqXNu8un0/e6X7H/7gDXQPkg2qDp4L6QxtDqsKLwrIiUSOouT6peFH/UcvTTmIuxaXHe8cYJ8okiu3n3cO5lTWLYh9s3l/x2f1fK5QP5qXEHt6dZHDJKtzpMydif+deRu0dfHfucNZs9nzN7/HvuTN6n/OmCzycWTjKc0igKL64s6Tk9Vjp15t3Z12XPy/sr7v/VXNl0rqvq03nBmu0Xii8+r2O5ZHM5Hb29Fq/L1vveKGoYaMTeUm7aeftgc2VLU2vznfNt2e17O+I6k+9m3Su5X/7gdNexhzHdjo9kepCe4d4rfZn9wQP2j42fGD+1H/QeinmW+vzQ8N4X/i8NR7hGpl/dfH1o1O2NzFvC2/dj7eMl73a915ugnXgyWT6170PQR9/pwE9hnyO/RM5EfqV+i/2e8CNuNmjOdJ5+/uqC8cLDRY/FT0t9K7Q/h9fXXxp0QJbQM9gPg8NkIdJILzYRJ4ebwv9FCCTKERdJXTSltHFkBzpFejr6OYbnjK1M1cy5LHtZA9gc2HU4JDlZOVe4JrkHeJp5a/nK+YsECgTzhLKE00RiRSlixuIC4gsS3ZKlUlHSZlsEZWCZKdkhufvyjQrnFQuVkpW9VDRUcaq9avnqbhqcGs81S7R8tRV1cDqvttbrZukF6hsZiBkyGAGj78YTJoOmt8wKzP0sRC1GLQutbK3x1u02B2zN7TjsPtg3O+Q6BjppOZOdX7lcdN3jZuHO6v7ao2pbBBr/F7ff3pG809CL4NVPKfYO8dH2pfUd9jvnvytAPWAlsCUoOVgvBIS0hu4PMwxHwjsjDkbqRy7sqqG6ozG7Oto2+kdMYax27Ku45Hje+NsJXolsicO7a/Yc2OuWJJE0t689OXd/QIrRAalUjoM0aSDtx6Gx9EeH6zKOZFKOKB/FHx0+dikrIzskx/Q40/G7udtyp/MS8/ULDE6knyScyigaL+E8rViqcUbjrEqZXLlEheBfnJWM50hVxGp6dCfpXPC6eKj2Yt3jSytXJK56XDt+vf8GS4P7zeLGoSbsbclm0xbv1n13Trc1t7/uWL0reM/wfsCDI12XHw52/+yR7N3Wd6L/1WPFJ0effh5yfHZzWPBF/ojca7o3ceOZkwmfbL7NLdqvrf/G/4BrBacKQC6aZ7ocResUADk30DzzFgDsJADsyAA4aQD4UC2ATWsBFHLwT/yA0MSTgOacbIAfSAJlNNO0Ah5o1hwPDqMZ5QXQDAbAe7ACMUGSkB6aH0ZBR9F8sBMagyFYEDaAfeFDaJY3AC9hhDHWmERMFWYIISCaSBhSjjzHMmEt0YysHQfh9HDJuDY8Fm+Bz8Y/IwgSQgk3iXiiK7GKuESyJp0lzdPY0FTRIrTetO1kUfJh8mc6J7omNNPJYQAMuxjGGd0Ze5lMmG4zqzPXs2iytLM6sI6xxbDj2As4xDgaOG04J7nSuRW4x3hKeb35pPkW+O8K5Av6CikL44RfiFwVzRILFbeUkJYkS85IPZW+teW0TJKsp5yGPIv8jMIjxfNKh5UDVSxUZdVY1VbVP2m80hzQ6tLu1OnYek+3R29Yf9JgzggY49B7jmBGMCda0FqyWAlaK9vY2Ibb5dk3ObxzIjsru7i77nU7497hMeFJs11+h8vOPV4VlB7vBV8RP0f/gwFNgUvBhiEnQxfDfSIGdplQm6KVY+riZOIvJ2rv7tsbsY8neTAlL9Xq4NyhvMNbMjqP+B1jzXqd8yh3JH+1UOCURrHV6Z1nEsrOVAyfk6k+c0G+dvTy2Ws7btDcrG3a3iLdxt9pcr+sm7ZXon/uSc6QxPP+l6dfn3g78N5ravET05cL38AP+TmN+dXFjKWG5Scrt36W/4pcVVu/P6D1/xyYADcQA4pAF1gDTxAGkkAOqAA3QS94B35CbJAcZAH5QwegMugO9BZGYHHYCqbCp+B2+AuGB2OJ2YOpw4wjXIgDkol0YiGsDnY39hZ2BaeLO4B7gGfAu+P/wn8j6BNyCe+JWsRc4jTJBF3zFRo3mmtoJkylfULWIJ+ho6GLp5ugd6fvYTBhaGXcytjCZMjUxezIPIJmpkusWWxSbA/Zd3GwcdRz2nO+50rgJnNX8OjxjPPm8Fnw0/GPCFwVPCYUJGwgwiHyUfS2WLa4v4SBpKgUkzRhC1aGIEsnxyTPqEBQWFScVBpS7lK5o3pHrUv9hcY3LTpteR37rUG60XpU/UADN0NTIw1jZRN1U1OzneZJFmct71nN2HDbGtuFoDEtz/GEU75znssZ1xa3rx4q25I9H+3g2xnt1est7OPvm+933b8nYDxwOZgtRCnUKSw2/FREa+QHKnuUSXRszLnY4XiGBOvErN3P9ool7d03tj/gAENqV1p0Ou7woUzkSPox7qz2nJRct3zDE1ontYq0SjRKJc8iZXcrYiu5z92u9q5hvTBS23mp98rsdYUbe24+bKJvNmqltlV2TN0zeHClW6GnuG9k4MeTr4MTz8aGJ1/+eA29IY2xvBOZMJsqmFb7kvG9cj50sWc5daX9549fi+vrD6OnnxHwARmwFdgDf7AXFIBLoBt8gIiQNGQNUaFCqBX6ALPBRnA0XAkPYxgx5phUTCvmJ6KFJCKNyApWH5uBHcJJ4vbjRvBb8WUEAiGC8ISoQSwhwaRg0lMaI5pbtBq0d8h25Pd0KfSC9K0MngxzjNlMMkyPmMNZyCxVrAasL9kS2PnYeziOcXpzGXBL8bDwLPOO8DXwHxcIE7QSkhfmEMGJLIp+Ffsi/l3ipxSdtMgWPRkv2WS5EvkGhceK35W5VMxVU9TaNWg1PbUu6eDRd9VmfSGDXCM241pTD3NGi36rUzYRds4Oio7Dzh4u3W5m7o+3+Xsu7DjgBVEivZ/6qvkVBxAD9weTQsrDrCNA5A1qRDRfTHtcTILv7s9JFckJ+wdTVlLhg4Q0hkNK6VGHn2Q6H5k6lp4tm/M8Nz1fq+BrYfWpHcWkknOlamdul+mWt/5lVNlVZVf9pMbpQl+tSd3NyxJXTlwjXN9bv9JwuFHsVt/tlBbV1qm24g7bu8i9Ww+iHkp3j/ec7nMbYHk88DRryOLZ6vCFl7Yjk69jRn++TRnHvEuZgCcPfEA+7pv+/NnkS8JMydej32K+G32f/3F+1mb2xVzg3Nx87PzUgudC76LhYs0SeSlyaWBZZblw+euK+UrZyvJPp58Xf2F+uf26sAqtOq+eX1v/jW9H6/GDAYDi12uoS+rB2X9/t9n4rvSP3OTfLViPLmtlLbqslbVIA/4Hq1Dbb1b6fAUAAABWZVhJZk1NACoAAAAIAAGHaQAEAAAAAQAAABoAAAAAAAOShgAHAAAAEgAAAESgAgAEAAAAAQAAATGgAwAEAAAAAQAAAQUAAAAAQVNDSUkAAABTY3JlZW5zaG906WuzBgAAAdZpVFh0WE1MOmNvbS5hZG9iZS54bXAAAAAAADx4OnhtcG1ldGEgeG1sbnM6eD0iYWRvYmU6bnM6bWV0YS8iIHg6eG1wdGs9IlhNUCBDb3JlIDYuMC4wIj4KICAgPHJkZjpSREYgeG1sbnM6cmRmPSJodHRwOi8vd3d3LnczLm9yZy8xOTk5LzAyLzIyLXJkZi1zeW50YXgtbnMjIj4KICAgICAgPHJkZjpEZXNjcmlwdGlvbiByZGY6YWJvdXQ9IiIKICAgICAgICAgICAgeG1sbnM6ZXhpZj0iaHR0cDovL25zLmFkb2JlLmNvbS9leGlmLzEuMC8iPgogICAgICAgICA8ZXhpZjpQaXhlbFlEaW1lbnNpb24+MjYxPC9leGlmOlBpeGVsWURpbWVuc2lvbj4KICAgICAgICAgPGV4aWY6UGl4ZWxYRGltZW5zaW9uPjMwNTwvZXhpZjpQaXhlbFhEaW1lbnNpb24+CiAgICAgICAgIDxleGlmOlVzZXJDb21tZW50PlNjcmVlbnNob3Q8L2V4aWY6VXNlckNvbW1lbnQ+CiAgICAgIDwvcmRmOkRlc2NyaXB0aW9uPgogICA8L3JkZjpSREY+CjwveDp4bXBtZXRhPgpSRJbYAABAAElEQVR4Aey9d5Mtu1X3rx0nnDk53eh7rhNgm2CyiSY/QJEpilxAFVW8CV4Ef1H1kKugCEXO/IAfySaYZMARG+zre0/O50zc8fl+lrS61Xv2zNkzZ86ZcFszvVstLS0trZa+vaSW1I2xXMhcvCSoERoNnYge9cNobS0MllfDcKMXGmu9ENZ7ihoFS2x0pIA+nZOfU3RQGrUIxmGsA2e/SphiLEw5K8C46Zqz+y268pPYlBQFIzzFRczP80zsylhYKtcsT/yVXJ3Yzx6pM0ExqflgZi6W0ROkUuiySEqiLM8yRskTUck7Md10EoXukfPUzcr8VWKojLIgxlNcVIgtNJM1U6XoTCqj150Mo/EwNJrSV7MZNtbXw4c//OHQarXCm9/6lrC4eCwrI0mbMXnKzfNJl4mnTi4W54KI3JKze1lcUaVKN6HXWJ+qYhhxwbtMWvWV5TSh86aS52d8cma5v8rRrnK2CoCagm2qQxQqK1hRVYyJUinA0lr6lGcmV5bUUhRkeBK5ZZy0akktUcYEETy1CaCrIlr5Kyymc6LEm8siYRY36U008LCj3Q6N+fnQWZgPbR2NhcUQOu0UK+IISklXJEaGCoipkhQCEq3rleXQu3MnbNy9FwYPlsNY4NXY6IdGfyhaVeDIpxDN9O5XKNn46Scpx6phIjKhES8VxJPFm6PKXrhJAiJSGKzLq5RNmR+UDpgQkj/5kXfVEVhWighicJbzcEtUpjQ+zstIiYvx9hsLX4TBqpmSR/JYCQiPDmbSOpF2syK3Ki+n5UyMDv0bP3mq50TCKUZEiEu8q5oTUUqND6bpNvll1G26j5ECqnEYjkahCYi1muI/Cr2e6ojy6Ha7dlapCwHsQWHyRoEqeYhXwVfRBrqQZXkSGsW0O2n0hKHXVETLy/JJIXZXk15dQ5aP5ZFYTJ6UpzVP4xvlMomKBuJhlp30CzV11qWAufurzAm1IqVgUnI9+dAr6q3iRyKosqNUnkfMx+psRgTPGDMhq0IhQ4NVQaCLtBYnP+lLPrpSg7d8TXb5xMhSWUb2k12nAs56Ijn1SPWmMz8XWgsLoXX6dOicPROaiwuxMK1GGFk9i1Lwm4FYLMBYFRLq8WAQVm7fCcNr10Lzzr3QlxU27g9UCD3puZFW1rwASqYw5KDQyZfOBAw9Qv5EqDO5ZXo3+lgB8wqh4ElniShAzCkJlKjE1YQwQaopFW4VohJqUitJPBNlfAvBCE/5qOxcUcGiL/mNZEp+lhDaaCEZX8LgAv8sTwv2OMslkRj5JG+/jg1AlCmFc+FaNJCRTeIbGxvCcuD8POGnnEqUx0YuBEZupBjJS52JINYIQ6Xjry1LzEo9xFpvik/M03iS3Fh4KJzckSrlpCSmIkKyPJ0yUUXOkJQRIk/1pwhPddWp4J3yib6UOIUT1lCehbyKjvxjqsgtpkGn3F3OkarCvEgZqaHg3sjBSs7yMV8su3n1k6JFMK3OQoX+KCdOfq/2fm2hdqGfyM2kV+YYH5ZbLoiT2tkoIywXgiAKCZSnwiypfiNlvCJpvGfm46fqRJaxK+Ii1/gYoLY0G00Z7QpdWAqts+fC3IWzoX36RGgszYdRpxWGSdd2lwtLTF1Du2OjYRisrITVazfC6pWroXHnfujK8gK3BGFCQVVUHdywpqRtKbNC/EI6CpYqkcUWEUnodBOLIrhHdAUzD/MkRHBAo8OUqWtnbd54YVGKgLriEgDFsDw2+Z1nJRFZwdczKqQoqPyJ6Rz9XBIUvuSJNz5e4I+NuchC+ZUUKd9NTDOe3By52Ijy8FKdpTZgVDKzotmleOTlLIpbSkK8BzsHrPGxkKxJfVB30q5F1Wy2TGUjxZEmlTATjmhinGOMgq+H+H2MMWUJ4jWEJXUsgn4lR0xvISJSzs5QMSRxihhcREa2nsyuUp4icapqOQglQeToEhpNkQCPX8A0UiET98ticr1HEn4L5yJFLn4V8y2IsnKaXstCGwnUFSmKeJe65GS+RBxzQc4oK2XL5Yhsol69bKSP93aCJ5cmfikJj7jBMPbq2gruSiddQVFzoCEKnUOzHUZzc6FxYim0nzkXui88E5onTxgGwYx6R2dTOSo1FthoEAary2HtypWw/url0H6wEtoDODXCQBV0IARsHj8WFoSILZl3zVZHUOUgJumSbGMBm0mrDGJFIxP3WykIyCqXXepHDExy8kzMiih4yhU33PPTufCSPqUkeIKFsbcw8YotBIbxyGkJSvkbQBWPuJwImuQs2BJZsuQrI90qsLwIVkVAN8lZw0pAFINUfuXp1cXCtsjaeZQ8RQhrmFoZufAjURe8VDXx82N656KIjMSwwQcLJLJzTGLXPPywzqkHqnAFAQkKVp4IHikPi47lzAghKF2RXkGlECleASZMrBcxB4Eo+absYnJvpM6MuiV5LX/nm1hOORWNFp7oye+lK8Iyq2RYMuWeVnQbM4g6T+IThCyJBeWM1k6kVYyuY3uKVcSJPUGiE1OvL7HOpryj4pxZPCuqcIV/gp8J5JANZ8mQkZAs5ucMdM7qbKU6F5nhyei51I0YYHGp59dc3wittfUw1LBV/96D0FBYV6ZTS0bU8M6qhuGXNXTRDwsvvSG0Th63ricsBH7CQquIwzC6/1Dg9WroX7kWWmLUUn7jbjsMdDSPL4Xj58+Gzhn1UY8vhma3o/wpWKxEFMnuBDJaA00l9saalGJ05OxlqfgJ1GENispmzHTOtFfQZ2HutdoBOTxIrh9YuDM/EYSns8Xhzx3pPaH7ucYPnZ+jl5CYj/O1kPhDMiqAJUz52Ek/6bIkNGJdcvbyx1h70CRv9QSfCiNFc50fpNC1s+cSZzWNwHRYmXMi+Z0N9PgLPokfPDisLmB9ZQmcVS5fkQeRHKmcxhv2KZGnVVB5H52IQLkiryxPz6sgdUacJw9jEoPxVpwYOK/J8EIpnonOng20hV7tgoBULifiWsFZcigtYGqdTfXHyhspy8R+7XnAhnzQK87zIiw599oZ2V0Qj3fh/Kxw10WFFAY5s1nrbMoHBQBgMpCCeoBBLw0Zcx/qxWFHINbTcFb/3l0B26qiBWQPl0N49YqMp3aYa70YWsc06M8Y2ng8GI+Hgwhgn3wtDD51NTRX1oQj49Bvq+t4Wn3SC2fCwrkzoSsAa+qNwVgDa2YuSn6w2svnlaosVioxJymKv9xVrjxRxSIoArNkKZUpPvnthETxr2gISlU+1SJtKYOuJ2+e52KksRJECfh1WXRO+Tk55xhkv35VniuyRpqcI+lxjKxEF/PyJ2vM2/NPJMWpzNNTxSjCy7iCPAs1vtbgCHT++Tn6Ed9DIx8CoiYtXDzMEnMLvMjXU7kcpCbMw7lfXmYFFwAHXXRFylyHBX/RFOGiRKyUzs/xsrRSoKjqFYoqdWKhE7lHCUgVXX52fzXGrjAM3FXK5Xmp7Cm5h3gBKnVUPCrXnsh5+9l4eZ11julcyd8TpJIV/LwsLhTn5E8NHG7O2bk8Tp01nYp3UT4GWDmwPNXFHCyv2Jj86NpVvVh8EEayyFrq/Y1OHA/tF58LCy88G9rqGWL/h9Dvh4EN4t8IreV1mWfqOmpgtnn6eOi+/HyYU1+0xevOdisNCMZqAIhWnBW2GhgLrbCkiEpsjIwsigieOqkCpDSl5iBKhHbKr2EWD5qGO2dBukJZxiPxccL8bFHIEatuyQ0iIjeHEBPLqHiLhs4YpdPktaWY4ETXnMTQ5nn4dR4W00famA/lKxsb8VmeidwoczYxaaLNIkxxXJdh0Rd5ul4tT+MRw6flGcOSAJtOUc8xGB7VPItwz9CE8LwUa+EmgJFy6RL7uYyFhCvPw/2WdOKHuDxlfp37s2R5hgC6PyAm80wPDLh4kniWNr2c6d6VEmyRp2dvhF5nqQfOGQLPqQwr+Lr+LCrLwwgmr2NmziXy8PsXa5+LMy3PGFfyjOn5hYfOxStm+YU1bfX22gudMFzohlHzijDqnsBtFIarq2FwVcbWwlxoznUFYkK84YMHoX/9RggPV4zPkEHZUyfC/MtvCB0G0hbnLI8ofPx1AWKjK0WHkDioos/jJq88PJ0rmqFQAjIPM45OD/eYe8wk+T06O8cYj+fsfnl5AhX8JxJF4TN6ApzYzxmvLHnMw+M4ux+i0l/6ysQxjF+HIqfaLk9onA5e064JT85Z2SW0HuDnxIsGaN7yvjkFEWWoX6V0nk/BvxKgi+3oPIdIU6XUVWE1wJPYREF48hLjzoPi2a/yPHK/p8rPpClTx7vifPwc6StXzrYQygOgyv15Xu6HxrnlfpLq2pM7OWfICLdkfuERnD2RERAw4Qj3uMxvyXTtURlVlQEEk3lMXldTVJgWaWMGntLylfHUvHghdGVY6R142LhzW5DVD4GpXzdvhq7GxtqjjY3Qv3EjDG/f1hSKXug1uyGcWAxzmGoXzmniGQAGqJCt2EuRWZkUWBagyFy03gz9bAwmfxKjCj+4W4AjPIlyCvz5dbwkH/L3Q97kJmhT2uKB52T5WUlyufNy5WTT/KadgnkmqzMx3jHlo2WNdJMlqOZLuUuK6C+vq7S6yqKiNwvYRBwDcjljMap5RqazcoNnpM35bpF1EVzVq/OYkF2XOc8oq9MWrCqeWJtLykqk5NyNbmfVhMvq55g3qb1cuV+hHlwVskhWlXUa0eawojUXzKt5WgoF5TJWtTVdqOmhZf5VHpQ4htAHw4r0eMQCg9oXzoeOuujrg40wuns3tNV77N2+G9ZO3FLPUdMpxrfuahxsPQyUcijzbf5ZIR8A1unIIo7sTKgCwDwLciSXWMhSRAuSIIWKiijjU1xlnk0ReUDu3zoNVJvzzGWY4DNx6Zyz0llQJMuJc7+nys9T4qcEkWIyOF5Phk6jnJ7ftJQ55db+aSm9apWpSqpcr2X8Tn2buZQ5bOaVx2X+5PX7xiX+jKLiL2OmUZa5Rn4ll82ylrSP9pV8yH87WYnPqSu8t4hwfpF2WvotElqCLeImgrmc1CvJI9kE8TZ8S4gyovSDTuAeSxJLQBhvvXUstkJHmNRZWw6D9dUQVtft6F29KUtMbyQbD1ZDS5PAGAdraw7G3LmzGvk/pgF8dSuTFVbI5NqiXw+ApQj3pYAtT7PROZWft2RXRERKhpdx1XTVqyLJlp7N9HlI7t+SxbYR23Eo40rfZHkmmeeUk3E7u845Rf/mkJJjHleGzu7b3NQej+N2qcu40hclnbwu5d86pqSZzZdziv48JNbZKqc8vhoz/WozfR6S+6enf1TodhzKuNK3dZ3N7cU8V68N5TnGiidsNVWieWwhdM+fCb17GhvjDaYm34/1FrPd13iYLSVSn7PZldl26lRoaToF65VYRoIN67hlKJnLmcswxb8D0impdxe0H3nuTtKtb/Nu+T3JdIdJr+jhMMn7+pKV0nKUqML9imEOYDGkCDaPwE9G1dyJk6F/8lQY3noYWj11LQVk7YFG+htMVhTf5lwndJYWQ0Mj/qEtANPrx8LYskwnM84yq721BmoN1BqYWQOzQXeJOAI49Qpb8wuhc+JE0M4Cobmhua0M9w81S3aoATOWE4VFvQmQydbQzHzWLdn6qiIvPOkA2QzdisiZRa8Jaw3UGqg1sBMNMNjPmhA7C5e6muTaEYjZfFWhXHusKRZg00iWFxbYWHMzmEELRg11AFP02TnbbwmNFlL/1BqoNVBr4ElpALgBvNzZUD9zWGVoxUXsAjFb98asVbqOjIExG1+XEf0igDmD+lxroNZArYGnqQFAbJPdhEWl8S8mBnMIsQRXgBbmlpYZ2TomBsigS4dd1D+1BmoN1Bp4yhpwDIrn+FsdzdK2T6xVGjAmJjzrJIsMDMNLEpyf41X9W2ug1kCtgaejAbDH93WNVhkhacaEvMwt0y4WLMHlD5LyFact76rR6+ncqTqXWgO1BqZqwHEIKCrHxqrApE5k7HGW/c5IwG9apzqVeR1Ya6DWQK2Bp6KBBE4OXX4mb/yMgplxlkcQiZsWVgkskS8mqH9rDdQaqDXwpDUg3InYFH9tZ1f23LJLBsOix6kqmPWkZav51xqoNVBrYCYNuAEl7OKdpDlgLOKaLgtPiqxPtQZqDdQaOKAaiCAGaOXHARW2FqvWQK2BWgOmATe0dLadXQ2/1JUsd5WUrcZkDHeZ14LclPP4+lxroNZArYEnpQHHG+EQkyviAV6RoX3CJObss1/tikR+JG+kmrwoQmtPrYFaA7UG9lYDGQZFxo5m1WyKMbF6IKyqmPqq1kCtgYOkgekAhoT2dhKPWWb8+EHgtHT55LG8ywl97WoN1BqoNfBENSBQMowqwakNUOW4tHX+nsjPTmnw5xf1udZArYFaA09IA2CPA1byKyTNE0txj8x6EsAemaAmqDVQa6DWwB5pwPGnBDAYZ2Ni2+VTTbQdZR1Xa6DWQK2BvdeAA9hmzjOC2OaEdUitgVoDtQYOggZqEDsId6GWodZArYFda6AGsV2rrk5Ya6DWwEHQQA1iB+Eu1DLUGqg1sGsN1CC2a9XVCWsN1Bo4CBqoQewg3IVahloDtQZ2rYEaxHatuukJx+OtXwVPT1GH1hqoNfA4GiiWHT0Ok71KO9KXyAEB302jsih9rzLJ+JAfx82bN8Orr74aVlZWwgsvvBDe8IY3hG5XX0FPzuXx663OyD7Wh1euXrsaXvnUK2FtbS08//zz4dKlS2Fubs6SOcjNynOrvPYi3ORF32Jm8sRtAewe5Px3Kyu6JS3HQSp3Xrbaf/g18MRA7KMf/Wj453/+53D71q3w7HPPhXe9613hxRdfnKoxKvhQH/F9z3veE/7jP/4jdDqd8KY3vSm883PeGc6fPxca+pjvk3A0rn6/Hz74wQ+GX/3VXw0f//jHw3d+53eGH/iBHwhnz57dXZZChPf/x/vDL//yL4fXXnstfNd3fZfxy0Fxd4z3PpWDi01l1j0Q0mwCHXLl/kA7q3NwdBAjHf6m7mNLHz6tXa2BnWtg6/o3I4g5g9m7Sv8pMPqZ//t/w/9+4hPhjW98Yzh+/PiWIEYDwQr60z/90/Abv/EbYX5+Pnzd131deF7gd+7c2bg4feelfmQK8gU8r127Ft7//veH//zP/wyf+7mfG3q93iPTTiOAHweW3b/927+Fj33sY+FzPudzwsbGRsUamZZ2v8IAnOvXr4e/+7u/C//zP/8TvuALviB80Rd9UVhaWtoRcBXyix+ABV8eZH/+538eRsNR+Jqv/Zrwtre9rQaxQlG1Z+cacByqppwRxKqJtrui8uIeLi+Hy1eumDXy4MGD8L//+79m9WBlTXOfENh96EMfCp/61KfC4uJiuHPnjugH9HOmkT92GA0Nh7wA2WAwKBrfYzNPfOEDbw7Xy1a8kWd9fd26oNAAIt4F3SrN44QjDweWKOD9i7/4i+Hf//3fzRLFYn7rW9+6K/bw5I6tqSx/+Id/GH76p3/aHkqtdis8p4fS+fPnd8W3TlRrYCsN7ADEMjApDLIsLMuBBsmBVUIXgrEhnspXr161MacmwDQBTv/93/9tAOZsrJFpxbpsGw/a0zOykQcOGf2asx+7ydB5wgOHHsY6lJmV2cMned+/fz/84z/+o3XBAfFv+qZvMstlkm6vrpEDWQFY8uahwfnevXuF5biVrNvLgP6CPRSw8O7evRtOnDhhZ0Da6wU8dsd/+9zr2NefBnYAYihHtbMAsK2VxdPdKyxjQVRWQOqVV14JLzz/gu18nUMT9IxHXZHlhqVGRX/48GHobfSU3ZMBsrwB4Z88ti7d7DEGxAm8aNl5npNc6IL+wR/8gVkvb3/7261bN0mz19eAN/fnzW9+c/jqr/5qe6HxFV/xFeGZi8/s+uHR0KfjKTJDAl/8xV9sXdWFhYXwhV/4heH06dPb6mCvy1fzO9oaAIo4dghij1YKDRXLa1ndScCJbhGg9MlPftLeAA5Hw9BpVrO9pcF/xmMYF7t48WLRrRoMB0em0m8HYGgVnfGG9PLly/ZS49Ga3huKdrttXccf/ZEftXv2zLPP7P6lRhKJstIV/qqv+irjzWA+b32PHTu2N0LXXGoNJA08ERDD+mB8iQP37LPPWveE7grjXYAbT+TcAXDEnTx5MrzlLW+xcbTJbllBz2Mep4YCODIIT6OhMWJZxKho523FgzE6QIOXDTi3mCbPOS8j1A+D9FiZNFIO8vZ8jCY9HiphnnjaWeWBNh+TgyfHVg56UZhhTHcQ8Aco6Ibm8qAfyonDGpr2ZhB6HjRveetbTA74Yv3ysPFudiFHUn2v3zNLGZnRIbzzfKHnmje8lbe82b0jPnfIykNvdXXV0gJ4Pn5KHM7vr6dDD6Sh/DjSYFm67ifz8HT1+WhoYKw6NFI1qppEe1G2AmNiJWWAmLEWxsPoTtJtOnXqVJETFc27kgAex40bN2yshgpKI80bHxWaSvsxdT//67/+y7orhF24cMG6LICgd2E9E6/U5P0v//IvNpANkJEXb8zoukLjhzyetAgDhD/wgQ/Ycfv2bQOMz/iMz7BuH4PVlNZSKe1oHN/Oeb4FswkP8Vhf//D3fx/+8Z/+KfByA0cYb2mRFYDhbSFykv/73ve+MD+nrtq7vtjAA5oPf/jDVvYv+7Ivs4bOA+EjH/mI6Ru50TEPjk//9E8P73znO8OZM2cqknBvmA5D/ljCTIfBcgKkkIU8AUPetCLPv/7rv9pLGB4gzzzzTPj8z//88Fmf9VkWB2Pyo2y8MIAvaT/t0z4tfN7nfV44e+asARVvg7l/6I6uJnL+vfTAtBTuN11cuqOXLl2yBxR84enAhGzUp3+S3hiq4BraL/mSL7GHDPwBV9625jzgU7sjpAE1vD0FMXtiqiVjbTGgi9XC9ApAgsrMG8prajBUUBwVEhosMbqUVNrz585ZZQXAvEuag9iKntT/n17b/87v/I41Aio/lZuGSSP7oR/6ofDlX/7lxRPZKz7jbYw5/fZv/7ZNfaABMuBM4+MJ7hZLEsxO/JCeKRh/9Ed/FH7/93/fwAEQxfJ76aWXwnd8x3eE7/7u77bpI2zzLfiyNAWDR3gAnF8XYL33ve81PaETGvKv//qvWxkACcaXAGembfzMz/yMWazrG+sG5shEVxx5ADt0/Vu/9Vs2tgY4US540qBffvnl8I3f+I0mMw0bRxx08Pmbv/kb0weTfQExHiDcm1/7tV+z+8m4GfcLOsKJxxIj3x/8wR80AHGrrCWrGND9uZ/7OXuIfdu3fZvVBe4TMlHeX/mVXzFw5qHF/MC//uu/tnwoC2D6rd/6reH7vu/7rHvtdYD7Qd0AAH/zN38z/OVf/qWNpRLGg4xwZEJGgJuDCcfwrN3R0wCGw57dWSqXOSEjlZTG5N0NnrZ0FWmcAEJfAGKVShUd8GIciDRUtvOqiDgqJWEDplnMW5CBwz/pDR4Ng+kAbxJAvvvd77aGxZu9P/7jP7anMHnx1KeBcgA6zINiQivpAAWAlO4JwEDDxFp0+phb/MViY/4aUxCw5LA6aORYADztSYdlCZCdOH5CW+XqT3yd12QXKOcNDSDF2BEy/cM//INZF+jLJwfTIJn422q2wqrKwRs/gPuv/uqvTG+UBz0B+NwDumCUFx0ALvDCmgI0sKjwAyQGjrLosB8BdB463BvuAV06v5/w5h4x5w1dQAtQfeZnfqYBGWBGOBYaL20+422fkYoYH1CkxXLlrSdpcdxbrikLfnhwTdcTebEIsS6Rg+keTM2AP/pCLuoRQA3QA4DcD+ioR7/7u79ruuReYf3lZUmC1acjpoE9AzH0YlMJMgV5Q8aKoHFgdXxKjeiBAI6GRIXEiqBbQBcQy4YnJ+FU7n6vb+NeXMOLSv+Hf/hH1hipuD8oqwvLArD8pV/6pfALv/AL9jSn64UlQUMlHRbgX/zFX9jMfBrK93//99tkWhookzGxQqjsuSMdMmBNYMEh+9d8zdeEH/uxHzMAxGr4qZ/6KeOJH3CjYfN2DuByIIMnvLZylON7v/d7jScgQoNG9u/5nu8xIIMPDbjT7Vh3FV3QQFndAJh8/dd/veWNbIzREUbab/7mb7aGDQhCT7nREbrASsHq5b4AuvDEiubMgXOZPRzgRM8ALqsasLCZ1/ezP/uzZmXzMPjIRz8SXn7jyyaHjavJUvP08HRAz/OjvNQFVjZ867d8q9H/8Z/8sVnMgBnA+5Vf8ZVh6U3H1E0fG0DTnaUM1Aesbqw1AAuA/vmf/3mrAzyYavf60MCeghgqow0YAAkA6G5QYbF6ACjmitGIeDKfU7eRCk5F5clKw72kLg5PaxoQ543ehg0wQ0cYlsp73vseS/f5srS+9Eu/1BoqjYPGRTwWB2ca9bPPPGvgRBeD7gpAxfwruj5MY6CiA5p0p2joWDC5YwAfi4u0dFXoTtH9pBv69VpR8Pfv/XsDOfhTLnjS7UFWP3J+0/yAN9YH3SesMdIBRugHC2TSoU/khIYy/+iP/qiBGECHIz1g6g7d0V2msaMbgJJlVoCHTWgVvrqsfqYMHNw/wnDwAXC/5Vu+JXzj//nGcOr0KbuvWGiMSWFxcS+xTC+cv6BpNHEOmtcB7hEH/PxMWXiQMAwAEH2hxq+Gmt0PAGKJcU/gefnK5fDSpZcsHZYXAE6el1Rfvv3bv93u6VkBIfeGusUYKw9HnMtvF/XPkdTAni1KzCvnhho/gEEFxmERWZdIDYPGQ+XEASI0KroyPElf1pgNb9hozAAhPHj647gGTKicNMq3v+MdZt1hntAYGLQ2y0INhQr+SVX+oaZo0E0BYGhkAANdLF/DCYDQEGj0lbdolmOwtDR40j7/3PPhjS+/sejWQP82dZ04Ux6A2K055Jk8Ess9OdEV58EAIGMBYm2hfz/yTDyMMmMNA05YLICBUugvOujcuZ8yuMMPiL3lzW+xe8RCd+4V9xUQpjvLwwCA9fSet/PwcK7dD6B99md/tgEqa2Tb7Tizn7ywKukiIiv5A6Rc89KCLiz33F8oYKXN6X7y4gKZavf60cCegZipzBpSMCtqXU9YKioNDlCi++FWD4PsWDmAAyAG2NEoaWg0SCovYT2BHGf48IQHKGgs0GClcGZMB0dDIgxgAhRfFS1Ln0hHxadxXRJgAZTQ4OALIAKyuSVDHPkiJwcNjflTyM/YVHSN8BxjeMoXgMUCQLZJ5411MvxxrtEPDZi3o8jtgAlP93NGLnTBgyMHWawf9C/iQow8XRGYPB6HrrBCOx0+V8rTI5hFyDgcecHT7lfqUnvZOW/npzsJXxxgBD/qDHpHp8hLeqxz7iUPDWQB6NA/dazZkKUngMZizt9+I3vtjq4GePTuaXfSKruYUpH7sqB4UnNQGXk6YgnQoDhoXFRIxpqguSSAYTCaCom1wFN3qMMrIYCHVUVlppI6LbeHMNJRgQEaKjljOLxcWFleMYChgWE10e3gzZk7ZKPRkCd8/CBfAIx8CeNMV/ZjH/+YJ7WXAjQyrEUsAxqbywsR6dwRnl97+G7OdCVpvDR85Pc84Y8fea7r4fAhdcmwWtAxIMaUB+JIb7KU4s0kBjpqC8AAC/JpCqycBfzyA4Z+Pcnc5SUcP/fDHw4mVwr3eOcDiHFvua+AN5a1gx1jkdBxL6kLk3nAq3ZHTwPMCNgzEKPS+AGA8WSmgmE10NAYE8PSYjAYEANk6H7QuJ7TfK1LiqcCeiX2JzuNDr6AHoABLxphTuu3BguLcOgBldWVVS1EXjM/DYA4aGbZ2od8yJMGAzgxNsZYi/MnHisPoIMn/F1WABgZ/Ix/FudlfxQteZv1oTMuT8cDBB0zJYQ3sjwoDHzUsH3Mj/SWJgNZzzPnlYcRnsf59eTZ0+Rnyp8fk3FYXzjnn/MsaEUzVF3gQUY5sMR4+KH7ojwZjyJd7Tm6GqDa7CWIUfFY2M3caqweKhoV1ysmlhMgRoUDuOhGAgCA2bv0puwFxeGcnvEyt3II45rjUc4bC4DCsiWzCgWonHHWXiYwxfPMeRPGGBcABgggP0BM4wGciIcng9JYREzpyMemXA7OsziXwc+zpJlGw/gfU0l4o4oOGG9inAjg/5M/+RObUFpJp3K4m5b3tDCnf9xzhXcphunW4/IzmvSHBfVo2oMMmTzN48pXpz8cGtihJaZqlFU2ULAaoEs1WhZuAzg0dnc8MV/WeBTdPV6N+xsyaN6YBoepmAACT1gaIBWWeMIBElzO03l7uAMGlZgKTjocZ8KsciN/XgZd5oCDnzw4nB/AxQsBphYw7ubhLhtlY1yHsplOEnB5nn5Glsd1nvckH2QBcAEq5lDhZ4Ip0y14C4lVic6ZTwcP42P3z36M3TTeHlakyTKmmFPjYSkde1yWxLx2HyYDH3Wt+8dDknrg93NaEpdzV3lMY1iHHVgNsECOFr4DEKNmlhU+lmwCDQAKAQaDvlgpHGYRCZAAFUCMcSsfn+GtE+NUhANcVDzGOuiC0ihJ72DCOFgcyI9vKnOAQxbSApzkR0UHDOGFNQe4ADTMOyMevnlDwJ9fewPA+oIHebFchjeovKGkfO6gzQ9vRGrBThLBM115w/Y8CqIZPJ52Gin8mG/H9AO6kCy3+YZv+AY7062nzOgAZ3xMPH6q93BaHnlYxZ80UQkDIPXXGINiJZDlNCbELn7aqkPUF+4JVvL9e/ft3sCKeoLze2EX9c+R1gA1l6Mc4d6D4lKBqKyMZ9FosE44AAjGcBjYZz4YYMO4DV0f1i/STfOuAQAEH3hgTQAg8AKIADJ4MU6VT2dAdCox1gZjYaSH3q060tGQ792/Z+NYeYPCD38P80bAmbE6Gg3y3n9w387NViwL5fHDrYNZVOj8p9ESh9uOZlo6T8PcKsbtkOtlPRjQKw+ELV2Js1uSPKmIrcrq4Xm+HoaeqU+AGHXg9p3bdk/8gQFdDmY5j9p/dDUwI4hR2x9d4wECe0JqwBsQAkSwnryRY9lcunTJgIi5XFgMgJjPX3I1A1QAC7ywnLgGTOjKMbZDBcaKI548qbiMrTHOBvBh1TF5lDMHb/Ko+MyP4k2dd3VJy/gdaUmHczAjT6ZQXJTlCA1WDt1glkFB43QuM2caUTykVvk9zDyP+CnTxnTT+G/HAh3wBpWXDYAY5c0BzC3Qikwxq+3YPl7cFP5ezknGhE+6SVoedNxXHlDcL+435R2oruCoM7dv3S4eZNN4TuZRXx9+DcwIYrMVlIZEg+fwRuhWDtcACvPBADNvbFhmWEpe4QAPKiv0WGGcicOS8uVEpGWWPKBEPAerAbBCyI8xIOalwQveWCSceT3PNAOfNgEtLxcYK2KeF8754afBvFlLcxgTA8TI8+atmwaslNVp8fu1Nbw0T4r8Obxs8NzKATgANDx5APBixLvMhG3nPH8HbQALHdGVdrl4YPA2mDKbjIBGBhweNk3WPKzilzHv6Vy+4trYx3ji8nQ5rfv9PFnWPB3gTH1hug664p5zPykrDp2975/fZ/Vgko/zr89HTwM7GBPbvvBeabzSVa7VBvlYBED0sro5WF/MX8KyYsIi4e6oqIAclZQG5wfxvAnkLSBv3lhTx7WPn/3t3/6tzdQHcFhiw2RQZMEiYVIos/kBIhZO42cJEU/zv9a6R9ZHusXncnAmLWsM2SIGGtZfYtUx3oQ1ANhgFSIDY30OQg4c6MABBr/rJs/D/fDD2gTAsTAoH3mhI+Jyq8rTcM71zAMCfbKqgQbOAnXSAoasNcT6RWbTtxs+GZDlfPEjr8vsfr+O8SU4TcZX6bYGO083mbfnn595IPBgYZWC74rCbibUGe4pIP1nf/ZnZm1P41eHHU0N7BmIeWUDDOjm0VhokHPdtHGguqNtjWnQ2GlogA1TLrCSaPxe6el60shIS+MDaAAyKirWFQu+P6l5Zlhd7GLA2jryYkAbC5A1kyyKZiKkW0IMyLPOEFrW+rFImN0fkBVrjgFvgBWQc1AAfMgT0GR5D/OTSEPZWP4EPU9+rDpAEhqsBAet/Ow8t6tCxxaPGfDSSLEOf+/3fs9kY38sZEdPuXN9ud65xgKFHvkoJ3uSAWjI6WsJKZPLVsiFoZcZex7OOT/Iy+PwM7+LRf85DbydJg/fyg8fd07jPPyaM44yMjzBg4WHCgDGelC6+egNy5M6wEOQ+1S714cG9gzEvFG5RcMALCB18tRJzfCOUySgwTLgs2hYGzxRoaFhuQPEqIQsBaJ7BIBRiUl7TNdf+ZVfacCGNUbDZAcKwAqricXJLAhmbhR8cKRFlq/92q+1xsx2PVgk7F6BlcPaO8CRbglgSCOBH448kYN9rQBa9q7iZQQAg8yEQY8FRVqX08fhaFTk7W8FjekWP925ru1aAfiQD2N33u1FRgd+rDMaOfkiAzJ6vnSZeSNJ1xjLi4F+AJExR3QOEGKx8mBAP/agEQ/WK544eaJY8ZDLi58yANrcF79XnueC7gkPpkndUUz0QBw8cr2iX66JQw7o3MGXeMZTiccCdSuUOPLnfjHdhQcdU0bQE2Wim/nud7/byki50Q28ONfu6GqgRI/HLCMVjMYFmGANOBABUlRUKhM0VE4+RkGD4unJQZw7LDTiAQYOGq83VmigZ5uZS5cuWZeUN5Lwxwp6hxaFU5GRwR0VmPQvqxvLdi90O+hq8cSmcQMQyMp4G3PBPlvXyOAVn7R002h00JCWRgNY0/iw+Ni9AllJw8GCcnaXwHpjoilpnZ/LNXkmH/j/yI/8iHWTX3v1NdshFisS4MIBRD/xEz9hekRudIlz3ugBq5DtgnhAYFniKDvADqjSBcdK4drlfU6L25lThqwAB/fMwQTAYOsirEHkA9BwpEVmyv7DP/zDNi5FF56pKCaPjCfy+PEf/3HT9aerHDzA4AsosQMJ8mMlUi7jmfiSx7sFRgAnAAjf3HF/KB+6p65hiWG9c5/gCXiTDw8Z6gJgV7ujq4HG7d//nXFjRYuB5xdC++UXw4IqbXuJxiFgwYrXQ4xtVZhYtskxFwgCTnKAGAdv/wAJKjkVjrM74ukm8uSm0VHROLsjnqcq6QkHKKiE3lChg4Z472p6hXVa55Wf6fbwFgvZSAcP8qZBwZsw5IIHhwMrvDmg97QAGLs4sF4P2eBBI/I00NE4sSIJ56AsHp/LlfuhRy9W/jW9HNEfMqJDGrPnjzzwJN9JnsgJH9cP/KHjQG7XGTzhQdkpN8BGfLvVDovHFu2ekY+n4ex5+v0i3mUiT2TNdUccfNH9XKYHZCQcWeAL8PiDB57wIo70yOf6zesA5UJX0HAmHToC0H7yJ3/SutJYpfjpfk6mJX3tDrgGgByHHWHQuMFQhT4epBc5G//9idC7fCMM1rXB6l4Wg4pCBaeBcFCxJisPjY7KToXbKp6GQDwOfpM8uKZBsde8x7GvvfunlYnxG+JpLN5goEMGXA6UOR/3IwdyUS4cIIbzfB1M4OflMwL90Cg9Hw+bPBNP4yYfLEO6hlzjkIHDwShPSzqX0WmRBVrktbSWQPdmLj40TBaJ7zJ19JABSDwfKg4AyjX3gcOeU7p2F3nEHSfc0nE5kBs/4fAt7qHlqRUYivM6Aq3rzuWHnqEDDjHalLfLAH+vJ+iY46am3tyTdU44FrADtaepz0dPA3sOYrmKvFLnYfgJ588sPPmnOa/YOQ9vsEWYkqYqbluxOO/t+G1FU/CcknhanIttJfELpXVazi4vZfHwKewtiHgar6fh2nUAwVbpJ8O59jDzAwFJxR4OPwOpFBHpLBOiIr0AJ6ePEeUvcSKRve7Myzh8ntbPFmukkd4+oKzAvIxG42kT/5gk6pJ4yzc9eHJdEYdF9gFNl/mkutGAJ8MFAFntjrYG9hTEdqQq1U4HoMl0VFQa9KTLG0Tuh24rXs5jWmOxdMprVy6l88Y4jYfLuFXek2km6Tz9JN2jrif5TNLD91G8HxUPT6OZoj5P6+c8/2lheXzhR8biInpIy8HYns/rw6LDIgPAmLbDNBjmxDE+xrgh42YOdhPs6ssjooEZQcyrE8/e2tUaePoacACjy8gbXBa5s2qDFzp0v1l1wbw49vrnBQKfr+Mlhnf/n77EdY5PSwMzghjiOJA9LdHqfF7PGgC0sKAmHS8CWHnB2lvmw2F18uIIS4zxNbqQTHbmbStvqqdZ9JM86+vDrYEdgBgFTUC2uW4dbi3U0h9IDQBkkw7QunTpks0JpMuINcabTCwu5v0xzQYLjCk8vNyYxmOSZ319uDWwQxBTYWsAO9x3/JBLj9UFiDGXzCc+Y4URzltn5utxftS44G7UQNXfDKuxSUwL300eO0mzlTw74XEUaHcOYkeh1HUZDq0GsKyYPgGIcZil5d1OxXH9JKwvf3ZPAoeHP22Fer6T8jxtOQ5CfjWIHYS7UMuwYw04UJkFJOAScu2Yx04TVACjcrFTTjujd8CaTPUURZjM+kBd1yB2oG5HLcwsGnhS1tYseTuggJn4nzSQeB4uWw7V+PNrp3m9nWsQe73d8bq8j6WB8qsRkY2DiJ8fi3mWOIIlU5JLtxm09jrXMq/D5KtB7DDdrVrWA6EBgAxwYdsChxGu3S/vYzkHMM0ZCQ3tw2ddZVv1kdh6RpapXzxWloc6cQ1ih/r21cI/DQ2AFRFYInDZ2lC9TOANKCs2mM82TmNyu4eUBF120g88tTHD8Pb9MGYu3Mml0FjQemJtm2SOjJ7COGDM7GD/1iB2sO9PLd2+a8DhKwpiX5wmqC8rqalF8h2BCkC2J3LCJXJqCMQ2bt0Nvf/VlkzsLnLmRGif1iL949pt5thCaM3PaXcENd/GpD3oguweTp3DYTnXIHZY7lQt59PRABhStP8IKvFSfv03evoM4UNtIfRgWbuC6IvzApfGvCwkT2PbU5U8Kuy2KkGFSNvNiG7EdlV374XxXX29S9sN9R4+COu3tAOyAKwrMOuc1gaVJ/QRHm2h1dAcucIqMzlcmK0yPFrhNYgdrftZl+ZxNJCP2oMD2t5JcMIGdiHog9CjVXXv7msL7Bt3wrpAbG7pWGgNnw2t86dDQ3PXYpdSlhHdPCEReAYHWHFEB0Th0gJ3v7SwmB9WWF97Zg31mcDmsBeaY31/dUN72A304ZyV1bB+/0HYuHlLXUztCaedk7sntHvyknbrEKgWOVmGZa7G/oj+1CB2RG9sXawdaiCBSbFFkYCEcakwHISRNrjs37wThrfuhYEApL+s/fsHWqu5+iDILtMAvz4Zd0473up7EgYiCUDGWU8vsuc3+qJ0Ccii7WVxdEzHG+thdPtuCMsrIhd4NbXnmsJbwrhxX3vT9TfCeFly3NZ3No/Nh74WwGsDutA9pa3QT+rLYVpupcG6As9iXkf3twaxo3tv65LtRAPJaDFYAbywvvr6Wvy9u2H96rWwflOf9BN4NXt9WUZs7Cic6GlXWS1GZ1+8tgJaWvIUGHdnnKqpzTzxglnyAI5VAEtgBhH5uZN3IGtvoF05Gtq9OMgKgwnWWRM6SHUeK3yssbJRfz1srOpjOnfuh/Vjd0JLVtnCMxfD/HltE67NR18Prgax18Ndrss4mwYAFJymNfBmcF0fG+lfvmJWT0tjVIQDJrZaABST6wtoNq7fCB11IRf1FrF1WhZZJ46RGYCJxiDKeVuq+BOBTRhlcUalbmMv9PRthp4+BdhU97FdgJ9ADF4AmZyyUozyI0xgG/raBnxjJHkGoasvZ2lNVsx4Sr7G4Aj97BDEpMBcKVvdnSOkoLoorxcNAClU6HFYu3UjbLx6LTSu3wytBw9CB6tMoDESKo2o/0IdTgYoWEUMvN+4aV/1mheLFgDS1sdJzCJTwqLNFB5TarxSeoCJ7dXZYvuhPpp8934YrW0ky0t5aXDN87P3oJKD8beG+ANsDfVb2+OWer6NMMTf1nbiUzYVtUyP4M8OQCze4KoOqjelGldf1Ro4LBqgbgNfnGWFra2EgYCsqx1ku6OhdR+ZcxrHmVTnAS5LEq0jko3WBWSyyLDU5rDINEZFl9LQDzCL5pauS2e5JQCji6pN0cJIY27hobqtQ42BCZCw5tyiM/EAMGMhOfgXqrZG2tZccKZvu9sLhgbTLzDVXgfNE13MCGKQRtWVt6D21Ro4OhqI0IDF07APvQyYVMq4k76wMxBwYIH5hNZY6tQeFGfWkMBuqLGpDVlkzN+aY4zsJF8N07dBeU25CVBiAPlZ05K1N9Cbx77GtpqrPQGYvrGg1AzouyMFmMfZ5JEP3k0dfckxaMm/pC9gLTKHjNRH26EZjhlB7Ggroy5drYEIKTQJgY++pDWa74ShJrNiS+HU2TPwiFeTvwCZOAiIRgCZXgQ0BCLzAsLGcX0DVd1Euop0GUf6StaIbqNoyU1Z2AuE0brmnmle2EAz9Fu9gUCMPDT+xikBWZTOryxCwIpsykKWXr+tPJf06UBm9seEkeiI/vJQofw1iB3RG1wXaycaiC3ePr+nZI2FuTDQ1IWeZuO3enFqg1FMAQazsiyrCHJ0J0faabYvIONtYpPpD5qmMbYXA3xWbmBbaQ8GsvKUri1QazJtQm89x+v6Fqu+o9gUwNnYF11MXMq3yF4eeqekpxEPZXQNZfmNOxojE4A1u4zHWcoj/1OD2JG/xXUBZ9cArR7oYCmRuoD65uVY875GmqHPiNP2qFAihnp16uIJyDS3bP21y3o5cENIo0BZX7bGUt1Os8YURiq+XzoeKF54hVXG0TAmSK6L3JXZxFBdG4XOIwFZUxNu23yLlfGwR8qcMz68fspfW2KH9/7Vku+xBmzqBICjgfiuupR9fQrOoIbHPcAyo3kztq6jRrPUtQxhzTAMAGulcSpAzqw08WvwEWYzuEqEKn3TCogcHKWLV/qQsSywDrP20/SPkuJo+2oQO9r3ty7dDjRAhxC8oq82JxDb0JpErCbDtcRnEmCMPsuDeMbHDPNSuFlbYmIWFmEAF0wBo4hA5Ewqw0kL0o/vXpvYbHtiZ405WWItHRFsJyXdNvmhjqxB7FDfvlr4vdYAQELzb6sr2RYgDHSlzqFhDgbONGhIOFSIwvY8OV0EOoUAXnJYYg6MTse5ADKjmuEHdglFm5rO0dJLBMbzkDdK4Nxn4HWISWoQO8Q3rxb9CWkAEBKAdRcWNfteg+QbersoPHgUJEzG2zUWlcR0oJsGYLspRRw2k5zRdNTc2rYdja2QdjeZHJI0R38yySG5EbWYB0gDgJhmvHcW5kMLEDO7ZhKiZpA3ARgIRmrnkPu34+LAtx1NhEfG2OTTtj2jew+1+JKL7VNZLDTTjjxpHp+HHyB/bYkdoJtRi7K/GgBcvO03NOfKumZdvalUuM3nki+2aaeK8jo4TZPehr7yCEy6LZxxnYyevHYZLDxGmlRaPzm4flsT9duh8wbJrv3GQlfxKX0+UdeCYkG2kCQLrha14JdR7KsXi7QGsX29BXXmB0kDebumW2bbQWvDw7HeKo4HvELUWNYkCE028lkKlIBlGmnOjqzy65J+koFeCmhgP7Df2WWmdGjZE+sqtWGjPAIejim8CjYqa8FcOU7LNJWbqJK2SLQ/HgmzAxBzsaeVbn/kr3OtNbCXGqBmA1McjLG0aLQaF2PX1pFAbGhrKL0diOCAOVYBIN1Iu2r0tD1QWNDSp844dBnsZ+fXzBkQVYpiIaLQGa87DzbaCOA25UTxleROv0/naum2FSITOy/otmnqyFoDh0cDVGsWA1lNZ2oFs+iZWa8AQjlnreBAFYwpFja1QxsoDrWEqXfteugP+2Hp2Yth7ow2StQcsvgiE6uNcjhCUQwK5oVTuMpsO9myxY/GBs0itTlzk0XeX21QBiTYAYilwtYANnkn6+sjogEahB0ayOprY8KNKze0q8SyfTYtxvF7MB1fXrI3lZK9JRBqakufvpY6rQmIWf/ZPnNSFll8j2dz2LTUiV0z2IsMK64nf1+71Y61XUdTYY1V7R6rsObiQph/5nxonNL216wFjVCZKWF/dULuOwSxTPbaW2vgCGnAQaqtLXBG2pBw7VOXtSHi9dBZWbP1jZgx0SI7GIU2IJIoDiHs9sPkM+aIcW5pDG+sdZrDG7eCduYPY+3ZH3e2EIW+1MTmi76ecywrbiDg2hDojdRtbskK7YpGm5OFAWsxtSaze2wuNNv6UIl1totc91UZ8Z7VILavN6HOfP81kHcsmqxr1L72Dz/xSuhpU8T5lY3QFRhgybD1jWwX64Ttv9RRAoeSeKWSCNmsg2Ve7cYB6q6uht7lvoEZKwAM/Ogqs5aT5VFy9v1MAVlXB0mwt7pEqewbssYGmrrRvXhG212zpMmS6Keau4fux7m2xPZD63WeT1QDOTDlGcVmV8biYwyMs7VNPgjy6uUwYFdXfc2IMSbGigy8DCBybgfLny9RsrLIGrO9yHhTAWBtRHl5Dxn/dC2aCEYCPPNJFyhJZWapFF7bUUO7zI7X+iFo1+sIlKRTPONoRqXTProaxPZR+XXWT04DNLPNjoaZx8TGyBY8I1kcw5s3wuC1K6GrzQl9XdAwtVNLlSfdzPxAhDis2MqAXCLJTpzZkgY+8hJgKogxgJJdCtywPJlmAs6NNXVj/EAL2U8Kzu2DvVDhYrro37/fGsT2T/d1znusAW9a0baKv9UsrInGLpUiaLJsCz3uawD8tr4lqY+CNDUeNqeWy6aG0aUG7cyrDA/01a4gBvACnFRe05Yssg2NCzYe6mPBeklgXUpjvCvuT0RfNYg9EbXWTPdNAwCQxnaCPmdmmxFyTVdQZ7O4+JIRY0HQqJVCO1hZtrlVfPaMDQpxsatEugh2NOhp7uA05WnSbRFmhXHJJ8+b0ww1wN/XNwRG9qaT/qnvd7uZdj9CahDbD63Xee6dBmiQaocRZAAwjf/oQxsA0mBNnzHTNbGchwKvgbqNzP3yz6+ZJaa3cg3txjqnXVV9bMg5cqZrFqGsDM0L4DCQh+23Px8j2ySLvWZ1qX2ErOxoE+OxTb32hKK/tq5jTWNkmjxrH0DZxHXfAmoQ2zfV1xk/tgYiciU26UKW1vDW3bDxydfCQG/mhF5AmCwqnXn7pgNQopHawLfC2ZiwzZlwseFjuEoil3gmb3ZFyO6djZ7PmNzRZEby2chKmLKuYwFZE6klZyyzQGyjH3r6NF03DfhPUO7rZQ1i+6r+OvO90ICBlJobTRMra/jgoXZ0uKcvdGsuFOClo81aQhvQVrOMfUSZG3QxY2oSE4zzphuvZvsF93K3JU55hJ/JNyVEfr8wPxfRk7N+In6yoQyG37rgwyNagqm9+5uhc/xY6J47qblix9LW109EhBmYuqaqpDWIVfVRXx02DajBAUSxEarhqUs44u2iuo0tAzC+G6kBfBHYlAlAyw+VtdjPPm8f5s8DXCnkstlZ3inYwWyMFWPk+lEg3MgXpOSTt1hAxPfp5iqWbhvrNXmdEMFEtFwgKyfCDYTl2bFTRg6apIVZcrZcSXGtBrt1KC+RDqSsAXlrqVL31Ikwf/F8aJ87rS83CcSKFx7OYf/PNYjt/z2oJXhcDXij1NmmA2jsRjaEGr26iGqUav46AINIaN1FguVsRMiCacAx3oEoUsT2H2M8pHq2uJiF5eQbFZIdefLlcP4g0dJGG7fzryS12gq1D3so0kBO8Upn7NK1XVSz3NkVAuYglqcmTjJpkknoC/R7kmVDO18AWMeeuxgWLpy1HWPHLITXWFiEX6R72g5Bp7saxKbrpQ49RBqI3US1U71F68kKG2gnh6YapeAjtf+y0QEm7izUG7ehBjFlvNNtd04YYKjjLLDuHAgJawFSCmiyLpExOTYtjO8bQkffWxuxphFTUc5AT2fmaTl47UwiuMzmKPoYq0vkAPhAVtb6Yie0LpwKSy88GxbOntEn4OZFo9FDupcSCI3aF5lmy2IPqaJ+pjGsQWyaVuqwQ6UBm6RJt0sAsabB/MHGelgwMKL5b135/oBoRgAAQABJREFUzTqhJTvi7KLUTDgwHASETAaBlrIFyGwjRcnE8p2hBsXXl/WBXH0BabyhBdYCMl4kaPl1GHVbYU4Lrbs6WrJ4GmzEKEAZq4sZ9y/bpgy7kNm5wXskq2sga7Axpy8lnT5uy4vaWmLUPbEUmjaxFf3ETDzdLrLcoyRJAlN4Kc0OQYy7k8ljj4g8IIurvbUGnoYGVAephiyTGQog+jpYxIxFY2NQqp50GXfmynoeO4HVau+8ADBYx33tZalgZSmoydtORbJDxLpeMmzcva9xOoFXmms11lw0+1SbgK4vI2yoBdbrAq+2vrDUWZwPc0vHwry6cy1ZQcOGvnopMIuOkpLDTsuTkqeUbfFkHNHk1wLv1rHF0NEuF3N0Hc+dCuN5fW9TWcTyeX5Ri+D97nMv5didr5RFWk6l2dECcKsqE3nvX3EmBKkvaw0YgA01FcC6l2qkW7kiZisLzKo1MFit3/kVPLi2bARaQjCBFztAqHnpg7v9lfWwfv+BAOyBluxoHaZ2jeAFAxYaAMGbv7i0R3yUdrQ+0BQGzcVabuvt6nIYnzgeOme1fc7JpfixEitMLkHu36qkm8MtFUJTAHUT2xq477zwTGifPRWaAs+gD4747rVFGTez2ccQlKfsOZKb0RKbSOWp63OtgYOgAVomh3YwpTvGeTTQBNYkm5+5LGpyEZhag64LTCNoxjeB2ANYfEyaZcyrsdYLG9qDbE2TbfsPVkJDs9zbrAIQzUD9zIbGnJpLC2E4J7BQ4mFP2+XIQsNqa6qLyV5eo95KWFHXsylQk00U5k6e0DY4NFWEpAxR5h1bmCogfyONHVoR1V1sLy1GADup/cK0ASIOPficfOu5KQx6yxW9ycPp6bqU8ZRM6Q3vh0RTRKmDag3sQgPemgQ6jOMsPX8x9LRlw+CmttXRdIuOt0JZSza1Qi2wGFKhMRZglcJT84StsU7pnU0uYZG1eNLomwKkviyv9Vt3Qk+bEtryJsadFudC58Q5TVM4GTrPng1zOo/nO5qDxUz4jdB/uBaG+krR4PpNLUK/bWnDuizK22w53Qid3ih0ZDE11M0bKqORySzhK2Di0uQSZn5DaCWg/PZnEyqiVcj4G5bhOOYXNz5MaUmi/DihEazTR+RklE/mh5z9KHOwT7kgVhSyjKh9tQYOkwYAo7assOZFgcVc0Fu2buhfv6VuncaiZAkBMtCouWqciTeXdO3UIKzi57U/NhJCaPdcuZukiuHigyWmJU0jAdfg1r0Q7ssCG/VCv6281EU79uLLYelNb1a37dnQ1pu/5nG98dMbSW1uEzrafLDBBoTsxPra5bD83x8NKx//WBjfvisLbhDG1++F3towdNT37JzTm0yBH28UcdZqc6Eq0hpJ/CkATJfQYz6q7EOB1kgbJ3ZkRZYAz6TgmCzqJuojhuT+RPPUTy6cn2V47yeuPvXy1xkeLQ2U9VjtLSJOU920DlMDZLX0lpa0xfS10FPXbk4fwO0KK5izNRToGH1KE5Wi9DK3jGVhdlUQotCdh0LLYV0vWVQ9DeAP1JXUXs+aKKrQswKwt70lnHrH54SFZ18MDXXdeAtIqxvq1SVY0hoJNGQGNU6dloV2WpaaZD+9GJb/80NheOW+tokehg11S8dzd8LSgqY/dGWRqVvKoPvOrSKV2oTWj/4BrgZ7jWksD0BkLNHeWIp3xDmISLCV2y5uqzR7EV7Nd8Yxsb3IuOZRa+BJaQBYSdCihtho603fCU3M1E6kLX2xaKN9Vd00WTSrPaGYGi0tFKckEcziZaVp0HgtwCEr0vhvQSsgALQGdAcBMC174m3ihsawFj/9reHsl3x+6D7zgsBLg+aFRYT1JixTHg0macFM9GN1h+cW3xBO643heNwKyxsfEMCJp7rCy3pJgAW3tDRv5dMrURdlh2dljAUqZ7/i3ZDMvC1taA99jeztkN/+k8vgjU+E6bdq/wWsJag18CgNeG+iABYaqY7m/KIARNbLwlIYHbsZeq9dk1VzR2NVWpIEif8BfNFEiVBoYJNyzSwR676lTJi5PlLDB2CG2jRwQ9beSG8k+ZLQusBg7o0vh9Of97mh++KL6jMyZSHlAejJkZ+xMlk1wK/zSFMfmp15yfxcOPNObRF0byUsP/xwmNe8MsB39Z62idbYWJMvF8mSg1NiF7vGxnmGHyXyPzaDHGiNaYvtiRjYl1CCsyjbgQcFNKhhhHjXZih4TVJr4ABrIDa71LC9EQoUGupets/Oq3u3qC/3HAvDV/Q1shtXBSKyOZI1Y905pTFQ8DICZAnYCCKWJuPtmvwYC2Pt4UDTJ/paJdDQHmYAUfvCuXDicz8rzL90Sflq2i0ARWr+E3iRHl4NdS1ZZxkdZ8ksIJt7/oVw5h3vCIOrt8Lwtauad6YuqF5UsCJhjjWM3cewmCxjyqc3ptoQkkOwaDZY1KDkKGRKoh3Uk+SMmnAdHlRBa7lqDcykASpyhJvYLaJ6K0wj1WONR7VeuKDPj2ngX+NlOKwpjt04a+wCOkCMLWoGfO5MUMXC6bmXngsLb3pJ32vUGJi6hfRfYy6SwywuAZICOGyumM7E23IewIP+bmchLL78xnDspTcI1DTqo3z4FNtIY2/6oKTJTZrHdQzsD3VY9zTrojpYY9HyRwn2Ir/HlXda+rTs7KCKN03kOqzWwHYaiI2tqNEYHCJneQ0z0VuaRNrSzPgGXTcstazhRq6k9ENpC0aRD7yMn355u9lg11NZYkNZYQZsenvYfuZCaOmDtQYM6l5i1BlAxQxS+mSdWVi08opcyQDejJE9fz40Tyxo3pvesLJcSV9gCrLIWBUQRStSJe6POmUFEilbFwGMI03paKhH6ZYizAFccnHp0Gw19aPyehLxfgcSbym3efXqNe1awsve2tUaOPwaoJFhfyUbzApkjQ9Q0NGcV/eOo8nsIj5OVqVUM1aaeFgjlteMI4Vy5q0gB3H8MUM/CFwMDIRU88cXwwJzuvRyYdLZposKhDu5kjt/Blg6MbWBOPsB+fQic+7iKc2q126qgpK23rC2ljV/bF0D8QIcEygSk2oGB3c/8AkABGJ9TQtZU5e1rz3YbJBfMSaX0cI2piHMLLKkyxkyfIIkgBlOZfiLv/z/w80bN+N1/Vtr4KhpwNof4z3JpugIGTTQzts/68tpikNspFsX3EBMfNwG8Gtr6grEGrPNF8WixRgcX8oG3NTobU4XMthVzCkCWBVoI0VGlOTuai1le0EWpJYItTSGhQXWlACxe5cYW+LcX3Db5AEbjTUx4tfQXLS+Xhgs61N1y69oN9ybd0NDS6CQv9RM1B0aiHaZa2IT+ycc4PlyxsVzu5neSMTArX5dQZ54K7o6vNbAQdOAoYmEou7Kr/reaArINO40YpkQVbswgWaQXfRFK5AfULAAAQtjYnFgPIUBF0ZQ8iU7jkc7MQa0gCvjLe6Sc0S/VOhiXVkxKWR5NEMTxfMmHX6Aqi099PXCYK1/I2heRzh2cS10n70QgqxKW9yuXKJlRiaTOTpH4p6km8y3zKv9pV/yrnB66WQZsqUvE7bgl4Vtma6OqDWwOw0wGdOdza73i5nPnp5z8rc7GijXPLKW1jBqqgXAY83ZSWes0lG2RGzsBTA6MzQzkHVj2/GIMwP/uCZAKVf+zpKRgFFdyMB6SqUdMAOik6w7XVu2mY7g726avrAgcW6NgYdt0sMcOQfaBeTheljT5NrR6kroaAlX69Rx5UnGhpyWPv7MIn9GvmdeyUvW2cOh/eILL2jAkJs5i1Pq2QhnYVbT1BqoaIAG743PAcyvK4Q7uphobLLEmnT3dG5pm1XmenleCWFm457aAZYcAMUZPuuaajGnxefaEswamlkwJkIuR+7fJju9eOhp2RRLp1giNNQaxy6MtWTJcEcy5M3RrMpt2BFV0MtjsqsrrOXy2HsRG3Td1C4afQH8cHU5dNnh4vwZvWnVNBXJE92E/DCdCEqEe3wiIwRP51Qam7HPPkhbOchxnE1OfjyQiKciPBnV7mBowG/+Xt74CCTUw8g9VrIGO6I+lnMZI79ocqiRiu1QADbWwA9b45CnH7NmRzerofkRyNjVUqIBFpLej21o4uj6gwdhiQmkvAXFAnMxYI45lF9vlSEC6a3hstZ/runDtXwzsyUQs2VLmnIxTHJvlXy7cBcBLEDDzJlrmZmmFxVaOdBUmYaApz7TNljWvDRtNNnV9JSmlnFpNu52rJ9wHErBVe9W255+eoJsp1dPSvIKXeWC2NodTQ2oBqiOUM9jXYhPbcr6+FUgVkj2wxe0xJ1PtRNqW12+po6G7y5qcxRSbukUU0YZ7OG8rTBEqsnSfVJfDxBrAmIUglLh2S49JIp3Mpsoy7WsOgbfewKy4UgopjlXa1euho1rN8KiNhvkG435sLin5zzVeaHUixxeuRk2PvFaGGslQEt6GKlbN9RsfbazZn4Z8FveiancHhnISB7/6AWZxowV6rrFD/uiabnWqqyyfn89zD8nq+yEPhiipVxVXW1ZmkfmPzsBQk53es/8aAEmk8+QZHpudeiB1MDk/UVIqxUWIXDRkxoriac/28cwx0qdMuuCWAMoEuy0eGTAkfJYXwmrV6+E/p0HYb6zGOZPnAkt9tJSVyZaIIzNxDxSKutW+fiTAVRRnQtPVSjJP9bibABhpL2/eONHfY6gIJizMleTcAU3DsNSAtAHXVHNuG8em9fUja5m7stiUfp13vR98INh7vSSdcVk3og/70cj6HinjKKbAWQ6EE9kUXdOfUdtjKg9xT76Sa0wuK7F69K/eDQElg3lxU6w7Im/uYSbQxB1mrNiiryYF5aIrFcG0Mu1ZZExLaT3YDX0X7mqjxKrq/ycZvdrp5CmZLFxsilSJFZP7WTdye1yozixSJupZlfZ5rR1yMHQQPXexiuzahCPSzXUUU87NKxpsFctuK1vD7K+b+/qLpmoeY8GYfDwQehrus9Q85Z62jhrOH8ndE5qntTpkzbA3NKse3anYPfR/I0i4IDjjA/rpFo3Y7wVSCDWZHBfoBBhYDMYFOU3rvHHHtxiwxneNHaMFeuaCcA6epM3lI4Cc7i0m8Xyf/yXlgcthuNaftQ8c1YWGyCGSzK6SOLm4Ux/xZIba3+x1Y98PDz44If1/cz7WtcoUBPwdtWd60gHI5Yq6V5YFzABzizGiGU/8VMpPWWTMFY+6GS4Mp2jq80aB3prOdy4FZZX+2FO43NzL2jQf07gbdSk2D/3SBBDtELf8hcFTDLvr/hJiPq0aw2U94+7rEPtyG64GsdYL3wGevW+8eCuFh/ftnHdpYsXtRbxvLoUc2o3quV7YZYrWyaLrt9/qLdjK7aPVkNv+caar8Sg9uD+vTA+tiCgUCNmATSz7rV+sMm2NipAUQZ5EB9YIMzPqUCxYNpxYsxuFuzhpQbKX4SVjI8opznLJ2sM7mVBNruv8hGQ/vqD0FI3bHz1dlh+3/sNFI591ttD67x0BvgiWxROfnmMCWd5tMh78OB+WP/YJ8KKQLB35VXNC1MXVaDVEnjPq/wt7cwx2AudZwV0EQjazFoaEgHdy6Hekm5IvvFDbWk90H78cfVWxml/vDOB2DTR7IZOi6jDDoUGaLjWdVCttT9qKg2JGq3xmLEGdAe374Q1HRsCkdHGQ9VkjTXbkhetaz53Tj+MjQBkOmiQu3GWnxqItmPuazubsQaz+awZXa6WnvjjvrZuXtabOb0p27h3N/RvL9he8O1T+iK1jrYadkNb1+hVo1KoJI4LFETdYApkbzhVtoGmDWxcuRE2bt7RCLxmvpM3Tme6TZY+hU2zxqpFjHlZeo17dY5pidApLQRfkyU1WrOZ76NXr4UHg3/VTq2rYentn6au2DPqei7Y20WDW+XZ0GRb1leOWX9547o2RPx4WPnwR0L/U5cVJgAXgGF5Lgok548f1/IpRoDQtR9R/so1UTtwEbimJMLMNFPTFaVLyczgP0fFRfVVgp7WxYQk07P14m11np6qDj24GlCNs0YrCTlbi9XdZYxH28r0BCYbeis2ui3w0puxpgZ126GncRmR9G+GNWEDkNE5c1rrYvQ41hKe8vX7TkodaxTbOG/cuactmmXFSIY4I11ni2Y8TguU1aVi33wa9hBr4PZtLepeCoPTp7SRIGsV9VEN3qypccfxIloVhxz8leahNkgcXL0Z2trihn3vDbis7FhuiVY+gryuRwabf4t4IcCYwXt2ntDGhsLdsBru2JiW5luE8ZXr4YHe8q1fvxEW3vCiNkc8H+bOnND2QHppoZcCPVmbq3cehvVrN8Po1VfD8PIVdSFVNpWTfcmG0u/CiRNhQWsxscbIi4eOiWtFTJKY+IVUEniGQhTFIl2etoiY8GjbG01N6UgmZLcHIdmQ9yzJJ7jt1SU4vyu323S7yqxO9IQ0kLo2PG3pZgm81tTYVm/d1kcu+EKP9t3SbG690JdlpDd5GhsZjmQxaC/4FVXcYwLAzrkzssgEackS2rGgdFPUhVyXdcR+XOy+akPgEokpENHFPSkMdBTUEKg12DVCX/pmOsNYS30WtL4QIMWqiIAkQsk30kc41u7cCct6W9jTWFtHFl9Hax35pBp0/NEKAWXDdS53WAjbmYL5ZwsLYe4sb/fG0o/kW1mRNblhY2RDjSmtvKL9zPRtx9ZJbZA4rzE5vVwYqOvZ02aKQ+1H1hSIt1WmhrqQjD+ONXi+qK8QnTh7Vm9AF/UQEXCogFE+fnNJc//0AhiFyudfOjeqIpkiKq6IKLLBCutqGKGThhImU1SSP8ULezuZibspa+K2i9+UoA44FBqIXQhruhrHWdO0gBuhoVf6Qd9JbGkgX3vLqFGrmtKYeNSq0fPJMdbujdnX6posNQUvyVrontfYlCwEnFVsqzDe2Kapw6giaojnmhYeb7CnvBo0M8itm6c8wdbo5DcPFpOJZLKo1ynQElhoPM0aN4WCUGNLeEYChLWr6qLJGmJ9YFdTN+aZviHBKZKVC09yRXYesIOzWU3aKaNxrBHmmmcEUKOwcmukcb7lMNdraGNDGYR6uzcUWA+YKiF1RYtR+C95WhpvQufIz6TWhl4WLOoBcUwTTRkLY6rGSAoppd2BcE6qxFZGYxI5mY6zghdRphfuIZHKVye02pYVxvw3hhBYwXkQXLTEYo1+pDyxOJkissI/MnFNcIA0EG+ctXnVWvbDWr1zO7Ru3QrzGlBnOiNTDwAxa2g6pxSK0SCz5hK19QWe4fW7YWWoijxuC8hkkak7x4JnpivECRjaN0tIQ8NoKbM4lhMbjylDfPW6K/QYo9JYmNq9HUyZoNGwNpu3cLhYRVOErmUg2j71jMu16N4wm5x9uNihlDiNf61f1Xyty9dl4ayoXLK+kEvjZDbBVX5rwKlkMRP9ItMUJ3I5yhAjI6xGWtMO/IyXGvdxWWTdc3oZMRc2ZP2Nb2qP/JW0FEn8RwJrexMp8KJ4AAUAMZSlxRSKrqzKrrqcc1rywyfoRgonYx4aTInA2W/5o+vpchtxirOkll8EceJIRbidJduQ6TS6oNPKXDigimyIX5cCFyRXU6DKHbbpGa4QheyLk3AzzRNDOAriR9LJvshcZ7pXGohVkzrIDgk2J0j7uzTYIE83uHjGUnvlqMrWSAUU/HWZFLkuILuh6RDtywZSNi6lrp03NKvoloq85AwgYCiUwYySVbSuT5T1NfbW5ItENB4hIFMHrMHJGqDhmtlEencCLBZDawcsA7CmQMxeLoCeEr+v/ehXX9P4krrGLXUfu3xRSHLAE/CwjSucl0IqbuKyiJMc06JMThFhCQJsnE0WdS27kmtuUeuSj+tjuPeWtTRR442ayc/eYFZ+jfONpYOmBuvnbQ7YgqaSLOntqyyvY4yZ0bGOABd1B2+XA2mKiyQmykpuE7jEOJPXdOqE4mJR8JOTbqExUOVa94yYoerIiA+d6IO+QmiFEUot8XTyPm1nZdQ43aayPm1B6vz2WQMM1mojP21RYw1Q1ZfmGCtnqqAmIf54+ARJq8KycEY3bocNgYo+b2ED7E3W9zHCrQagifFqsGqsAi1sMo4xc6HUmIMmm65prGqsj8S2GMWnUetk8+izbp5lX/yIIAEFkgJgTc1Xsq6NxB4JDFfVhex96kroYt2Jp1mVGGnw1iHBjFtsiAXjnXkiC0sjqRPHxEKFMHnU8JsLepPHYnNZL0ONO7a1FfRQwDUGnXUwubUtC7ajQfumttwZy/IaCryQdYKrmJvwO5Mzo0Zk9Bvvc+TFveRFSvwThfSE5cfAvQ0RqBtr8+ok39K5U2HhpF6gMAlWVtrjypOJNoN367LLQFTkI5CsmlwFJQCNPKZSZ5C8JnmiGoh3lq9Ls8xnYJVTEGbmjxpYpV5A6wdCWZOwBsDOoH0N9gNQXXVNbUIq29zQtVPDHQF08g81VsVhOz0w7sZuorJO2D7QtoQS8Gl0y/6sikXxUr7kGZ3lLNnGkjewMNmmeohY/wBk0BvWtnjPySu70BIJNvVHA44HgXFahUXHHyIzV73KIuTdHAd3tSYDBGjxcxZ4Wjdbksg66wjMGZOLwkQCW1+p8bSRymMWncoGpsPDjFe8W7kJmY2sIpwuomjWzPlgCR8l4cDGYndbe4gxdYOXM5pU29THftvSa4fJrKoX9gaadaCyFlsC2mml30q8vQ1PBbMyl4W0e8xl0vemPEtSU2lJWSSSJyfaxKEOOOga4EnbUaUdyxrjCcvbtdTKCtHz8awEBxbHQ5AnOfO77AvWDx9qAbFAkW6SrAzGqPiuITztRQFjUrpmbArrDAvM9kgnT9UjhrXwlm2TwEIM85I/gBk0yZQlPw0sP+qgDnaomFNjGyhOr/5iQitPycPBJUWWEeaD0W5cFADeZhiIhXGyvBnTiuWyAXGMmFQosw7jwJjRR2ghOvKDsuLQhTHWGZpSURUy4y+g8njTPRRYVgC/jpF01OpGsOoIYNFjW9trj7AKFcd0Cl4okIZdP2zlfJG5CyGemXdCiD2+JCM/TInGf6Z5YlCiXFOMJat/jpIG6B50VJk1iGPWgJDHgIQ2YK5o9QowP33EGAmg0Gj5Y8LmUN1E3mLafu0yxKzK6YfxLhxtTkaHzgIiHQBZiiri7fNmKbTI2mL5UT5KgMXGesq2Jo/afleKIR174LRPLunDuXNhXd3UOYlqC37ESLGFdQSn0hGTXCFMpI+hite/lTUrhydJpSxIy68XEWMJs6YjBpYdjJSH/AyeAzLWxhQQs0gZReLIuwAsxeUAtllJid6yMFIeQuTBtzg7z10MzXNn1XXVA0APLrq7nG3uF4vLsXCtu0iJS2dlyeUpo56iL9enKVLW9kyOouTFmSlRTXRYNKC60NKTd6gn8JCnrn3RNQpv0xDSvY9VRr/WaPL6QBiH0lgjFECpHRjUicyCXReJjPrEs5RmMq12TXD31HYmDhBj2RHdHrMSlIulYTD8xKJArKtJuwJINVxW+LlD9NgYi5AICBUggJNxc6J0FWWlPFu5MpVBZyq70ok/6SJURSrTi7zpBayxNEsUuu0yyTO3ApW5EmV89Wuh3BcAUl1aXhS0LpwPnRef1xfHT6iv7QP0JJKO9I9uorYiF/jBx3OYVSzS7a0jZ5eiynlGEKsmqq+OmgZUOTTW0ZdVsy4zqauKT0WOTTYva16JyupM544r6xUlEhohg+iGbYSV5OZ3TgV2WLwTxdhyfClnAI0OWQvMYKfb42N3EQzUeAVuTbZWXtSrhof6ko/GoLCOmJtFanvZoDMOUIl/lFgvHzSm1tTYEMdI3V7TghKZRBTGHAERCmO4+CYR/TpCeOQPMEFNnPAk8tIvFlgMsFRGEykh1KH8YoxlGn9ydJsCYBB5Gkjxs4hroOUW3XMCsEsvheZp5rHRBY9wVUmgNPqf6rYKn0r8RAKRwI8ygxrESl28Tn2pymtqxEDjS4wldbQUxt4uFrU7Vw30m6szg+TeZXRqp8rbncflZ6uWYuuNjqYXAYyYJJ8lMEojtIkeGnuzFwLII7IIJJp2ocHoeS3VGWkXjPBQk2FlEtLVZEoG/3RnndZART+8eIjRgLgAUvkBIQA0vwy4R2iPwCIWRkGa5BOVu9IX40kTCeHlZcJSZQAfGXARTAvOGb8YX/yiqC0AzGmiLhnAb2rBuKbQLGnR9rMvaEcNrXkVgDnwO/125yjRdhRPMw5p/Ij51iD2NPV/kPPSwG1ncSEM5vQ5s/GaWr1aVnpQFwhhaEQFyhqplSle77yyK50nwmtsPGC6smLbFWDq7WdL32BsyNIKC4ID7bHlvNhDv3NMjXbhmLat0fpFQEogNBIyDYVgfWVhwKHGzds52/9e8XHplHbT0JrHgY6OiAAZhogAnKL4WSNC5O0l9jJa4eCSHcgheMsZOJmoZnObExiAiSnASbn53mbnhWf1PczzBmAVvi5OLkOF4OBf1CB28O/RU5JQFoheqbPgmJWK1shpDaxfnFrBNzeeHQtqfBMfWrK80c6Z5ARhEkIoRrexTbdPS4lYYG1vVbUAPGg5T1xhIDzSoHX39GlN6RA4s1OEuofg3Fi7rQbNxTInALNF47yxI3uB3HjY066s17VQXBNlNf2jSZcSUy4hjVlUhmaTMm53Xeoqlq+83i7V7HElP3x07m2emWQGtDtnT+jrRedsNYAV1BmXyTzkUJ5rEDuUt+1JCC3rRhZMmzeUDAKre6X5+MoogsuTyDGaNo/inMCrMIOwjgSzaoANrfnsaStorjut50NLmycy/oTITCOYe/G5ML6gveEZfZLVBYgx5wngMiIIFc7JUJt4TctgusGavk05FJj1NGWEVQxYgDaHi4Zv1lOSS8hrWJBATrGPcHEsrSBChOIiepwicZ6I1WU0WTeHpxBUBYgBYK0Tx8KcvkjOG9uxrit5cYHwlcAt2R64CO9+1yB24G7NPgmkRthgkFzjJfm4TSnNk6rps/IVXWpwpGD9I+N2I+2muqY1kn0NyC0IdPnEmOaLyFSTdaXNEx0osSzjOJCljrzgN+lYvSALbkFz5/rSx4a2xhkJyFpmkVVhBU7Ows+T7CavY+785i6m9kaZx2zyU+5HgZhIsMYamrQ6p22KuhfY+00rMsSMI2lgE+tDF2AF0oqTQyd4LfDeaIAKgCvak7oeml3f11wv9veKEwQiyUH7ZX5Z/LAIksmC1Oz/Pt1KAc3CS8+H9hktRjezS4UTOFtRvZxc8NrUy28s0gW7YWiLnzCnWewnj1vPi+kbA1lkI63HZJtus8IACCUxlhOsYLe/TrIxkK9VDB3tQTZ/UTuwshGjBvYY18Px0uLoOD45V7sjp4G8fXrhvA1b43UCznShNOYzUteML/QMtC2OWR0kmPrELzg568c4uyA5C+ev89Sxp5jGo7CN2oxZafyKDQ/XFD2vy85ZfZWHbiMWpsGNInhZod032AefnV2H2rFjyJZDmnCL7cJ23EPtJNu+cFrTEU5pN4pjmjv7nBaZq3v5qiwy7XLbEJCxHRHQWPQgpacoVZJdwnkp8pIVfoiNIKWywuB3PgVlygNdpDSWRNeVezORmy5b6k53pQO28R6znChzzsqCJpJmZAfUG/UUFSIRJX8NYgf0Vu1WLL/Fk+mt4urH6n5BJA/LgrRza08f6Bhcvqq3fSuiKQgm2HiN9/NE9K4uycsdfBNva9jyO1oZCbROwzmCCRYYlmNLS5+GV/WdRsk/1M6orOHk7d9QB9YlX9Jur+qFwAqLz7W3lxZjs6PEGBDkULz2fdT8MAHVca0fXNQ+/vowSqOtbpk2lB9qk6LhDe27pi9l2xSMKEKUrACVCGBsO729U35K73Phohb4jT5LayhJJnLpVJwtMKO160gIJLPvUEOz8/nSEiok+VQW0B4qV+qIlzj81SB2qG5gVdjJKuzXVGL35ylsuoACvDJbw1X3qX/nblgXgI21RXRbDdlArCDKOeDfMmKS8PGvcwBz9HWwyONMKoEYlhaL0fVmcbD8QIuX1YCxMhU+TCDWlSXG13saWF+AteIpL3QtgjT3rH//fmgvawtrTdHQmhwt3NZ+aYwr6S0me2r1rl0JDS1pims+YzHRSqHzCdkeXxE744CKhr2BgLxnm0wCq0/xru1M2B1RFxqupJoRxFwF05lUONYXT0UD3InJu+HX0+IqQtntFJXmWo20k2vvtWuyMLQpImM+5vx+V1Lt84XkdQArJMnlpHunt5YCrPaaBvwZ21M0g/lUcj4+ApDFeWGaigGAoUEsMJ1hzVgSFtaaNmoc6micUaB1txWoJTud86dk3SmgJf7ar3/E9t3GQ/FyO8Kughg59tbx5nao3XcHmkcHYDfnbG2A1Rdyy7W2tzk/SW5b62lGEEO4rOgFvyzsScpf896kgULzNMY0OEMYtybvyBS3SuFYHA2sFXOyTvR5+vXXrmgs6bq6WbIsiHfGCTDo7liKIiIl35OTZ+bMJq89fLYzXQtAy4CFHTRwYokdQnczfoBEDVzlNBBDd5HEzkptuuTbAiNtYjg6J50c124YImPHWt54tjt643l9wSbMAnj28V0RFJhkDAFGL0s6ZwToNMYjbwRRkm12qQyViAm+lbhUVvFvaNxvpI/ejrVnW2NBfDSwT0o4cjiXeJUzKWPy0IPjl/T2xPGSVOv7DHKqgMUNOOiFnaE4h5zE74ANMqtqAlIAmB34ddDI/DBwA4xkfbARYV+fCOtfvx4aAjP7ypDrY8Liid0RcvMcnXAvzs53Gm+vqJxncGIRx0mSpM5SOoiWlmawi9UQC1QeBScXZbBLYUpHq67CfayxdRDP2jngGA8t45FVx2H0tIeCD550eEMzkPJ8aH+uTZ1ttTd3xQUt6UpfxrMMTL4od0yf/OIPWLeZ4qeP8PIlcXaPne4KwadHH7jQBPhWP8sy7cASO3Alet0K5FXPqi0/tEbGeNQ4cTQ2BrLHurYNDlNrpYHbXmFaUhPu6huOV/TGbVlfNeLNnCGcJYeDe2Y6G3USqmjTzkLh7p2JmRNZRfULne3aS56FZ14by3NSnR2kyD/6k1XpbJJgfoluUENHM0WH+sDuSF0yQz3lDfRYQaTippTFFtoAEhrnuRDBKzHkMnPxq00RvIyJZRhp4cwBE5cjS1pYeJFavyKK/pyq6rcyiGqD8UF9/LijN7AtbbXzyIRVNgfsapp2oog1iB2wWzWrONxSDqvQqqRDfWJtpK9lN+Rn0Jq3bgMN2o9sCoEo1UCHmhza1xs53sx1dTDjvc2At7XCSGONNfGeRRawZbJRFUAGAyIRdIqbTLeJpAJkOZPc76kiN/+tJJUQpLBDBMwzc6kjAMVIgxnFE8YXlEbaG42HQUMz3QsGssw0JCbLVVAhfVJW2/JaieTNXCajR4iYLq/P/OfMx0HsQyBix75uTbp9Rq8f8lU8qwqGGq9kGkxTVhXdWICqcAhRcZIFJqoHQw0TAMa8qR2JT1nySoJDfVGD2CG9fbGJRMtroO8brr/yahjrox08dRt0F9nqmRntWGSYIfYvS4NGqYPBX9qIV//Ijys/kncb/YAFtvwH3ko22ZbgCTfCq6CyDdMto+CUuyhxDCEuj0/WjUU6uChMLX+k7l2c61rSm0/s6PlZOUQnO0yfphPYC/Rb7DdvWeiHt7cCksg1WmLwNVBR4sg1ly0vO5ZwAlFZRk19eCMsaSIqu0poTltLaz/bmhIBkJntp2v2TGM8q3/vnr4doPFLvYiZE5DG/FRAssoVLwGsfAIxA0zVDb78xPIj+JSuKmMZfvh8NYgdvnuWJKaK0kBkYami9m/dCR0+wGpdSjUytUgDM6pyqq/+hLf26Miiem18KiAA4xg+i3piG4pccvrYoKOMMc9Jnt7ot8ovCZ4zfaTfcooMjTZd64TPttKmxEJV68YpNHbpFARYiIiv0DX1hW4O23BRYUnbpm/ADj44TkgJjxwiLJIY0FtEnDgAmAGL0fXVoK7WdjZOsXBdIKa8WaRu0zZMUqXRNRsZcgNb2h9tpKVVq6+Nw+D+it3nOFSPDqMsJo/fbF2wb9pA1vlQB1aZQ3tJHaU87L81iB3CO0iDUnuIVZ3uor6c3VL3h4F8mV4CMJ2LqQORlmLGyk5KLhQeUa3glSLiaZbf1IBpwomrpSL70sUXDFhs7gpv0ZoSo3TCcoyiFZSedMdnzwKZigMrRRFukdl2NQob2JwwTWwVsMxp++a582dtC2zTkyFUEjBq3n5jWok1TdSUOeDh4MnWzw1ZYK1nzob2s2dljekbjpp/NjLrGSEBQzIjL13j1bl1/HhYeP45++jKoH9VQwesHDCqSKtfXMpSZdVUE5l9Q33tnKkgmIDGKqOxBEfgpwaxQ3YT4/ymKLQN4OurPkHfVmxo3SONxbpMNtxctir3AQz+1DYLQgGEeXzZBPKwrRVk6VKrcR7wtyA1SrpF9iaULq2xiflBQDloozFP0VlYutRFWc6UEkF34RxeSW3gqobfEViNBRx0GXmJN9T0iZGsofY5LfzW9s1dgRjrDdmP3vYYM8XF/FlfOtIRTTBsIXU79evSVQGcTLHaKO8o9FTgnr4BMHdOVtgFre/UAu0RfXpxgAsOwAQYjZ9QFn72QoYF7frs2/zF82FdD61h77bGNAehw3ZCIuZtK3zMyU9dsBcdjI1qcH+4qvE0BvfluPdYfofdWYlVlhrEDuGdpIJTBTmP1rUxIN0FPW1psHwxm3lQRYWGKDm8NuCrMxQGgikuVf909eiT0YthmS76yBrZGHwOerFAl9aai0ULQZSCBsfBOBBdJvw2d4s0KpWLbBalhT3uj0spgOClB61eM+9HAjK2q2loM8jFi+fCvD6g0daHa5npb8hAQ4eWQ46y2XpLjYtFOeNdsGkTitwEYFClrNkap0deJ7Uek0XZ2hpnKGACvqwjqjzivQF+okvZxi6ogloCX9aEjvVtzXXNyGcM1CKNnFRRziiv+Kl8gGJPY3sbjItpHWVDY25OFnM53L+UugaxQ3YPY0VPDYYGqbeMdCebeuLSIIYasDEwm1IuVetK/bVqn+o9Lce9U5JaHPQcXBT+dF2E0MXRwDNgwdO//3BZAKsJl9ZdkmyAGmM/2mWhuaTBZjYpZODcYVlmgkqndmg5wX1PnMvNrq8DYU8PPemNXVfW1xzWlzZVZKB9LFkAHHRhBz/JmVdgZd1dZ2hmDTJPlzeS6S0kY1sCkbkXLmrm/2mz8qybSno5BzDukHMiCj/Qb05vFxva56xzXlac3jiOmNCqSbl0Fe3OQgzyKauxaBl7a+nFge3IoW8oYHHaJ/ISu6NyqkHs0N5J1ViNhwEUQ716t9f9qu72GbTYLqwR0grSpZWUeu6OcL/OaTzez3mcNyxryCKwxidggpMt7ZE8K2pYG1q2A8AGpn3ISiw2ghE4wY8GNVDDapw8ERbVfVtcXLINGf0NmllLZui4hC7NNucKKRel5AYOauBYXgN16Zr6ItKcwGBO3TMaOd06wC2ajQYJ8sZzzFG8MMXkGEuDtZKYJ87A1xtFuyYM58IoT/LVZoxtjbF1tUFhUFeV8qmDiAIjXxdXZwuKTIwLUrhoLI3ii+fdc2dCXzPy1zQXjFn56lTapocjWZj22To+1Cu9zp89pc0i9WUjvRgYCtQi2FYETTkd3lMNYofq3qWGQWNKVhjTKwYjgYTAgT+sCJ7wVFOMGRoiLWF6tTXipAF4c0x38HIA6+vlASDWUYOiQ2RzqZiTprGXjVu3w8btexqH0Tw0vSlFEr40NBA9gNeSRTIcDUL//7V35j9y5NidZ+Rdh0pn6WipZ9BjY9cYo2F7sf//7/YC6wPoWRhYj93TrW61zpJUV97+fB/JSEYeVZlVqiNTDCkjeD4+Pga/9cggH7GW2jsBfAG5+gFDnR0mrjmFp72HdVaGmTqZyE6pNsYpw1ibXwurXQVBYj0o08L9kgVxMwB5mpjZ6fz+G+yOaS+k5r0EAcTCX9BpEiEEWvEhhGG4OdLBKn20SgSuiXgF62atoLoqPWF8ZmEYifPOntt5jBbGBL2d9G0lKYllRLiRZ/LhVKi/aWhuvhBBDsCoYMlE/XdPkDGyfP2B7zlk0nIMhqsNDEO2AOYWc2gFZrod8tS2qfhPpFXG3CsWNTfyJgNnGVMV9MsgdpPtctGy1XKA2IAFkIMxL3GT15O5Zllh8J/oScB/vbQGYnPL0UsRfzGBCM+5FGz0eFgWKGsIo6EhvwGa4OnBR9d798E5Ft02+SLWZC1Vn47Zp8NLC9H8l06U1mxSt8cCTGx5aTlIQ/a9+kdoblTgiDVYj7Ay8WAPe1gtf3alAGH2/a0yGfgrAw1BxHOon1ULgIFQc3vbbXFgRuPxQwyP0emVRv81QR7kEXKZz2gawEgAGBtEi7rz4qnralKeutalBbPZfKR5MtpEIChAMg2V8oaaV5OFVcxkt7EYa3NSVqaAVTxCNvBnASo8XoqLbrnM4weX+hBRIKeWPpoAVA2CpVEWAFiNo+oaaJt+8t5re6qbZbeySqJr5phIo2ScoAxipTTWwUGLlS8hWg0vb5vOqMMteq/5m8/q7CbgIksO09dsyHSKxX57dULRcjfomNJw6nTcMfNd3Q8f3dHrt26M+RqduE1PdQMBBOahdVhrQxoW818t5qOGmuxnkrmPyefxb6+de//elgHo5PARIKhJ6yHAXH+058Z0flBZBBczt1IMPNP5awy1bCX8jFB8WXYnbmZeDrSpcaxdq7XPEO2O1dch8yH1HnykPrjHgLO3USYCaGKAd+vhI7f1hFO3aS8bJhOhoiUqryOuUj8NLMnNQmbZCtNEf53j2IAssx82Brw8KqoEXb5O5oxB5tmc2+ogFv/KSQb2l25zhLE+NeHF5AWuo1V06CQ1wEF740YCEk2koxTYmjE1kX7cym4y1WZluFU+8ZnTv/WmOMhJmP6e63xJ/Qq0qNN3n7EI+5bNxp+tzAFaV40zH3XK9NYffu8aL14wxLmL2Xsm8gE/7SDY0dCTPZsnP//oun/+s+v+5898afuERoNWyYr0EV9Ym6iVjQbWVTFG6FWxCW96BcWOMWTPs25KGfMy3NZ2IjRAvxbLvqESn6YJXiMZ8oWHtCzNnRWywy+wkNln6NVZctFgmcvY5ifRjpkLPGVo3QfQmny4aPPVs85XTz9sVXU8QZUq2Vrpup17KZ/nVXNjaotRiyE9P9VReiAPC/clJASt3WdCkwTr61wBxKKU4zNWejMFE2t3K58mcm4Ff3+xB996xFCNgyAGdJgedq4GDO00V4JKw7DPTwpr6Od7TLW9Jj65Jj7TE1JviBU4apFlHdqa9+q+/eAKVpC3mCfrMSdTsFRh+49/Y7/mU7QP5mV0SIXRJq8sajBDA28POcz1nut/98R1f/gPd/yPf8JGF5oZfBvAvdfQr+k6aHQ1DBWK98lXQbUKzFnHlPucy1BPs1XUSiDGTzqQhoflXJQip+rrqU4FAkBKqpODpCXqYBXtS7QtRAI0ALKJhloDxHpoly3MRDcZ5mmy3YpQNhzSyASK/regaM/A1F38KBc6nCkUvl7+7ttakDa5SL/BAKZ6rgBiSq5myNdNSiDtt/YO0xkKTuapo/3UmGwudhmyYF7nGHPTI0CmPQAMBDrKaBkm3Osv+eSibdP4NGqSyHLYBnO+ip1gEbbPvBBT9Qwf0WqeP3I7/+t7t/v9967B8Kng+Ddhhf307kgltA7Ig6UMdWxz1e9suc7uPbwtd/CP/9f1dN6jzn78/Inj0rZsz19DpxepL9rrJwf5xV/KL97yUngqKIvwmaQJGogZqIfubrIxgiWJRY4oM88KeShLOZ2AFg3NKDKc72DWui2GAToBnr582h8AzwYZfHnnlmrEp7lRoMr1oGUfE8ynEB9X5jA5zCEyJ6jMs2aOJUFMkrdmW7PqbSa7mkvRpQ5T9mOGl1q02ezw3GlxSGzbHb9643oHx67WleUDXm9lJINvSd7itEn1UpfEcM+5FK1kGkqeMGw9xpy15rIKNiq7x3fd7t//0d35h7919f19Oq6AhyGP1A6b/VFmuXXpSQfUwkvxzTKH7f/9PXuru+7jPzE39vaA2BFAhtXZz7tuq9WBDjUIJDwVeYzYmTfV1pLZza9fs0l4aWN85TNtDEkqWndbPlFS9CVFr9LoF0P1DNQJJ0bDRAUKsOBXbmEIf0eAeQ86xIaLQF2kKcXiQyb3kGQSMOuKsOU5m8rwFQCYJLIkiM0KL4fcnASmXlXPiDpQwXAO4GjeeejutPnUfueeO/rpJZP+bA4/YbIc7UPKQZnfeo96nb8mrhgyG661YHbIxgdO39YaMDrKsIk29fw7t/s3f+uaT55yIjcAplO3rSDdYonx6en6zkupAF5j/6nb/v7v3MkHLHKc/IClWeaYWAdV2znkqxuLOzUkFf+B2iJePWUlmqQw2LYOLRJ8jGCXA2s87CDd8KfA0MZEqKywaZxOSMwETKL88FKZLE+8WQKAi3CNPBWrbxQWHepgf4RiQMl4iEz9c93zMk64sixRBhYc0ifZplKXpSRJyrDb6BCfqmIGsdvYOmfwZA1HvF5AdTbrFeqgcttNaoC+wLXcNqu7hVqn2gTc/4g6wFqoyps78YQ+LiILL3VXKVZaYKsvkfo6OZQmxXCw8+KvWEn+nDVUaE1iTD23vNRdfVlaq6VLd+v+hqrEMyRuP3nmdr/7gxv810uWahy7NltrajKxzFe/OvFaChWggjKiRmnk5t+qlSUPpWuNG9twxvBug7EgxCiJlGvPZSTtU+ge08aYUJOJF5cn66mp9vqlV5RItTxSzASkuaJbHKQJ5Z7lyqdO0iZZFDovR5LEZ1+D+7Rs14DlzKIkUHnZzMNNSGRopGaluwMwHRZZtpifEXgMmatZ9G/+Kz0la3vrWfsFCOhnHwtQL3RIa/v5Mz+5bZxVuAtEBFkK9z9zq6drcl1PHjWGw52nT9mAzXoqlmnI8kNXHw84Rs6OXBOlgLai4nmO3XH6aQkmNwM0gTDanBkYlOlpTfBrkh1n+M3r2BMiZ7siB2enCrEkDiwtTD6vrRa3kyQSf1MkVVBZmKc6laL0xjrEZxlxix0ZxG5x46zM2tQ7LG8NkNDGYdMM7G9vfD2rT/nOvwAiEvZYUtBHk1GHKjhpe4t9h+17fglBKMhK0hRcnL+LtCOLetoFYzHdmCUYDfYXbt9nol8fBeiUA5YpDJh300LS2atahwmozaZUiNckATF2Cgwwzz3UWjWZMuLfkE6uwerZcki5j+75ZX2p0BTILkczldXZkoopL1fe9eXOw8nrk/X1lWQIwQ2A0IS4Jpk1VzbvCorNvKipMCPKCgg2dvPTcgflHbNboLHHV0SWQggGZAtIgKmOINjR8E9aV9TDpohaGq8PSRljCQaT7Q22AuljgTQkAxWVFXqW50LUVr28Hqg5vdHJkTt5+YuroZG1nj11DZ0Wzpybycij/RzivuQ5EWsbtAk1koKZQWxtX8FlGBegCLz4GVrF19ZDwLIApsl7+0EpNZkjDqQ9jbaYdGeJhcwAySy2FpLKioJAbD50KqdAzmthEcTw2uS3tgfJHrzQ0DBFT/vn810AwcqMkkChVfWfPro+24U0v9dhaNzcf8Q8ot9n6L9Yhiz5cWslYG0JdxnEbm0TXYIxMMo6v6kvHigEWzbhbmEXo+2hL2hHvEF6iTTcYaMQgBSm7D3qVEFnQXHKH6+StvLzM70J8NTmcQ+FMbUqF3Nd4MmfbmVv2KJXhpUMJ08Zrg6Yd2szH9d4cJ+PEwF6L1POBVibzhKLj7KZjs9+L4EMYpv8JggAmNyvMb9UY3tSUGuCIjPdNap+81kv4mYeHy+b7zUWqmqIalt3sOTQY8Frn3kmmXU2wAGEpObHTT2Ga3OQJ6ZRMRo6yhLHUKCCrawhdG1Du0rRmisBm/Hj+fDNpoDU70Pn3y2z8WUQSTbBuyziDjmboHeMSRtMPm+xFKWJ0ULbHC7qBqiiGAfF86mnoWdx5GWRpp5yp5lJ7Ln2aUINpjLM86a5ZuMj1VjU2aln89+2kAxit61FviQ/ejsZ7pkBQoEYXSK+uPOLSWLJK1/5gksr4l8dek3MNo/YqynzyEV36Lq/vTMLFu2HrOdijdhImAP42BC0JDCnRAowIEPx0XyYzgfo6uQmQFFnZtpHCcrRlioPwGIo4XEOybODxIzP7wGRcsUDWtmYvY/u9LUbHFInLenA/r3M3WhngeqtXMp9VnXSss/iclkanl6EnJT6Mu7lSlmlTsuUehNplgSxKJCzmuYm2M9lLiMBmefR70u0npmzwZJDj4l8nWkom2Gj1+/c6OUr5373DQtI2SNo82FhIp1uv7CjhAj/AQCgYON091dOJWc7k21tYq1ZC8OJMhc9gZFY44vWJr7Lno64004G084w3jhku9bpEQtsDz+ZzbHmfSy+8pFB9eb/lAyrtCJn+Xm9ElgSxK6XqVzal5CAOhgqDn1dMzzyaQnBZbqdNCsRaGDKZozNqj4GM2qstKhjxbX308+u99ffYrWByXG+WNr2HfV6MmjgOfcyrQoG9fWRYWQPADn6848GYvUhZwbwpbIDvQJgHKIyyWot+h2kBGkXBTFxIhq6eCZkpHMVrOjXOY2DVyN33O+yAPeRWVGtsbl+rO1VVqeQ12jk201LYAUQiw0Py2XDJ2E3XZNcvpeAmqRsH9waTmpjMqv4RxoSEhetH5iOVGnCiWdCgjBpIeGfCGh4qsNYR2zSrp1gH4yJ8eP/+JE9kw/cHgtra+yFjCv2ayxaXXhpEzYLTgUcgw8H7vBP/45pnh+hydBONvB17iMbxAvZh2cuzkBYWpOYm7C6kPz5ERDyG0qN4Ii6iWyb4AFfLbWX8/SYtWQnh671DYt5790DwWOXWczA4pjzObquFOvA47KyiC2yZHqqPnm7l8yTk129BGKjJK9mCNLckg7t0LoutZ0HscBRktyjQiWgynYAMhGR2egmRgEbR9j+Gnx0ddkBe/PBHf7Ln+wAjN2/+yNGDZkcZ6uQTCnPBxyYkfFG5qOGGEP8/G8/uMN//sE55teaOieR4WoDoKxx0MWAr4Vsxbyad8+qDB/US9qjNqxL46zDgrHHwW79FmvhZDEVI4+omVW5LPCdIckFOa4/eB14XEYqK4LYMiRzmiuXgPqcrqQD+gBFqCfywCmTM91Pn9wA66mFDu0Qgq14BYpG0E+GY0cM4rXtjuuwUv+UoeQYszw1NlQPXv7mPv+ff3VD/Dv/869d+8UzDqjgkArtfI5IZsMxqIoXzYGR5/Df/p87/Ncf3ODXV5h77prl2Ab0m/cwL4QWhvFnyy1LHNIirdor1uO85Bqeyhij/snUs9lMg0Vt1RphaVbneU6GkudRu0T8VVTuEuysQ9YMYuvQSimPQhX9eNl9l5NHlkp5Gkipt6G5MMQ7YWvNEUYSCybe2yzstDQ2FiNJeS3qNVaApfIlqEhcCrYsGGOUtVJO0znltJ1iyIEfmtf6BfM/gNjpb2/czv/4g51a3eIko8IOotXrBijA2ykWXAcYQTz59/903f//F+cODgBCzPBAu8CMUOchJpc59GLQ8l8HrW4GgLH8sgLnOsT/mRcy0T/Z/BJcSk4y3hg/iDh4KGTJ1cB4QsnEMPFe2iU+vzTNSzO1BgQyiK1BI81nUa98/CkF6kP4jTgV/Aj79YcvOe7+w2fXPgZkABhLbyAWu7W6zIJuY0kEiFwhuc2lmSYkjYjOztFhHWz8m30xTFQPAC8dmDvE2usx9sb6fGk85WixFif8aDV8oROo0Wy0efz43XuMN7539bef0b5YF8Y/fRDQOYkttgE1H3LqkU4i0pyeGAhsCkAj9565S9xFK6ErAI20FSxR6YCTOhvTZXAy1cQs/qJFq5BQbiQRy43+/GBmnDAAAB05SURBVFxeAhnElpfVrUyJXkNnC7PdaA+ysX/KcoeTV6+xx3XE/NLQNZgXsw3UdBzDMJ7nD8omvSwOI31mxCA6/NPXQ3Vwnd+oZRV9wKvP8LJgb2XtUOchvnFd5sq6Wudlm9A9Tdm5H6IZNuCtxqJW24cpM9v32PzN2YxbnOLjMPmsw19Vln2RDL1cvFgdlmmNgFDSIH3JaSZCBFIWIVD2AGb0VTcK6VH8AJPbTTal1zg7IAWxlNJK7jPQal7ULN8rlfZVJM4gtm7NnLzVcpYnG2FsSxPkvZ9+cf3f3mJUEJDQglHZ2Re4qcfaYGleVzlPCOQ2tUR54095MEytpQ8MFWsMK3d1dNj7T67P4bljyi9kswub+VoQaxP8ZB2hiel7pbQ3kepq8omlC7v799wO+xdbd71N/j5DtxR6/NdRX7oQ6VwgM1TyCSUn/SoXZcfFuCpJICy/2JIJIM37nVLICG1zizMxHdZlvwiIVZiY9aj8eM3wHCPysyKBDGIVcayHR/0zXqYRMRl+yrxX9y8/uzFAVmc4qclpKWi6rGOEnmx92wdP3UlApJFWBnntoXsAMQsJkSH3mCUUQ1mAYNjV3uJMR+a/RnscosswVtuRBmhcyu/n9qEPXe3hFB92yAmmtNu7226bMwIathaLNWExHiakhcUSzwWuwNO8h9XbqsIN+jp5Ca748Y+dAhqJg8cALBBL3IglHdpDWW/vss2KZR6EK7uXSizBpBU91adPXA3LviuRQAaxKxHr1RFV34g/daExe/+OOVzj+L9+cgUnb7f4SqiZLNMyQloedi0GMKKt00GRp8DCe3WPP09jco8dmCfr0Mb0/RFI1dzloFhMY7d39hhasmhUh8vqjESIaqLcNqELpGT5lclyHfSqg3Jlb3+olf7E2dmMRAvC4iWeYokxbNmn6q1LTwGk/9ZpIQxlQS/CBGpAFsvb6BLM3enczAYLbZv3mfOjPl5/9Hl0P5MbE55Ple9XL4EMYlcv4y9eQlCwDGyEMQO2/4zY+9cZeI1HVko1hDQw4ikgkjln+XXFTu19i++zoBFD4tPnrbH+QEM/DckGAiewp8A0tjSrxpjFsAUfFYwZn944IplAT+A3JL0AzCxWRB5Fj+TBu5jJc2MCHZVH2h5laq5NZ0easUj8Mn1dZ0hcb225Rhuti3k+AVjBfJjm/DQ/J3NBfvgZ6x6f5zKQE1yxBDKIXbGAvzT56Y5dQ2tocYjuiCFdDVPOGh7JSqnUFk03mfoCkCU6zVyWfJcMkIHH/PLiCA+j7TMLsnT5u4ZhERlV/gDNphCYyf4+IIGHaBJpbs4ePAlWWiNBnAAi0lNSu5Q1OMuAin+BB1peBF6zG7OJe8TXxQF7MIdaKoGWpfMg25rD03wek/YFc191gLdoyCAjezXJ409DkubmGYKq/VtQ6qWDq3W9NLmvhkAGsTVt6rLLAxgtTqIesjh0dMAWGZlxNu0LzUOJhBM8Dc8EFCVCTCruaQXkkCdccgpoLEg0yatUlr5MjqZjyKQS4qWOz2UE0GGIF4iFLIQbRZ9YgfxUigGPgZmPqrJqpfqIc+6CGmMAANUJ4nWZu378wLSrDsPXGsfa1QGpBj8zUcSXUwEuN37S3Ixxzy9Oo2d37zqneF/vcxNVE6jEfF1MAhnELia3G8ullz3+PBPM1gBihYCMiegCc/S+80fIILWBRMhojxin7qqvcp6SJQxOdVcLt+xKUCaqOEtPIBJpiUfLEQDVVC8FpnSsJgoiosygNBe/VKYBKACmVfb13V3X/ua5q3/DWZicKC6z14V9Gk1Bd6KnThAoAtak3sb+xVnLOa9IAhnErkiwV0lWXU4dKnYq2Yevs3p+zDBpzKp39VEb4hkTMZU6Y/iBNF7fEFAlnRRnVIQERnHJQVmQ0UtvMW8sw8fJF+lMuFSgiKb5Y0ICjY9IbyrNKl6RYs6rryUTDBGbzx65+lNMT/MFVItpPV5GAFN5Yij+VNAX4EFk8nVtElgRxKZeQmtvvQD5ui4JzEhbQzOGRdoC1MWCxIB5Ma0Nowtbf4zDQRtS8pVwxNc4ufWVUN/jtG5L/bamoZcqYW2qp3coLAYp+rJX1NQ8HVG3Uu0ZXfPKMO4iIySMzum0guce8X3mwLaePHDNbwRgrPHSHB2XlS8BlOWGPwmLCFquJHn05+etkcAKIKZWnm5p/2Lcmtp8RYyY5K0v0glplvodFokydOq/+4SfZRZMiBUsG/AHhXBCEXNlOvlIfXdk66JGYB9LCmQhAnM4I1bZa0ZIJqJ1+ZYNbh4TzcqiL3Qzds/M6UudmwQeYqzha/RMJZbNsZ4qwur/1vN9rE8glwaJVS+vhoWnCITfl6jcFB/Ze30SWAHEro+pXNLZEpjpv9IsOtuuYALbHXH4BdqV0tRY89Ti66UmsZvSvHgW/MzyKv46C1S1dmvw8ZMZJCwOD9HiWBIBKurnIexsXlaLneZ82r+Y2iKciTxGSraBnHVnW0/3XefRI4yDtWxtmMlDifWzxCHHIsLTrMSCYngsMPrz89olYM1JOywJYrH1r53PXOA5EvB9kpbk69r2432GlWyRQQNTZ5UWJpv4tpATsJJmpj2MOPxPyx9IV2e/pZZoDF6+dO7wM9uV2CokwuFatp/H9Gc/L977E5YMi+QXb6Zk4ZbNsSGg1X740G0/2ucsTJaeyBgkcdpKVLnMn1KsxGbPmkhALbgkiK1Jjb4qNn2nTLtmk+FkU8NKAKu8rKfjs0l1whU31Xfr7Ffs1F9gN58J8Z9euv6Hj67B2YxgAkn5l5CDwJQ/kIs0Q9rojXwoeDosxsWnZSVRWl6aJ7KhMAGT0sktbVJruQbaAfDovtt+/hzLGRy9xvo0zaVpdJmKxGtiBE4c8izJoE+a7zcvAbW9fhnEbr4tLsHBFDRIs5pzGSjQi/XP+u10MjSzBkBWazynsxeuy5sxOADIMN9jIDaPZhKmF2mZa7rYmTwLCClYedNoA1gCbC0ckVpR32f9187j+6aJFRxTp1zKV5YbHCkdou0q08SA6ee5CaYzZP+1SIB2ySB2LZK+7kImPa4yszUJrjKkcJCu1sGszrNnrK+qu8HPv2AV4wBkYAO37S+sZrluXwQesarlI9qNIHDWliVpYRpK1pnEb6GJ1RhSJtBVYVV0Iq1KhHJMy2dRwumM2X9jElATZRC7MfF/qYKne16Vrm24rgbN+kxVI1gH4u4wtHzOFh00mX77V9d//ZrzGDmH0br+5Xu1cXtJMqKhtXAaIRuQqUZooVsc3tvGAKPNCYrfWK+zRaTcJbAtkdTS59vtkUAGsdvTFjfHCT3Xf8/EwSy5NLIGX/d0VJpMM/cxsDji9J+CpRnzO/lyqGR5STqfhq/+MpSUxn4QiultOYnWvGnbla4Y4X35vqES0LuUQWxDG3fVaull8MDAJDke2cSXocMWa6y0fWegw3EFZGER7LL0bTgrehAX/VjOcvmVunp5HuEHnkwLC0k0vOwefHJNvrR2mvq4keRTpnBNDxmTqJgkP9dMAhnE1qzBrpLdCDACB1vPL6sO2jzdPeVcyI+AGCcmrariGJh4qJhetuGn3UVxHpSkKFSttX2ZDCBmOQHWggW7Q8xxDw+OOGGJaX6drLaARAyeV2q1pOxbBwlkEFuHVrouHund6uDgA0+AQWoL66xke0trzsyelmbQDY1SCAgZA58+RnfvEljZbgCBDaED5q9GBJhJaMrQuZjaNSBrGLYdini/rovUS2h+oqkDSOpHnOiEaWz3iI8RDbYa2WWxM04FJDHTKeem94H5flskoPbTq5hB7La0yC3hw4wnGvj4uSUzrqgdAPYDjgyXuKUIgNvD1WwlbG6dmw7abpjH49IQt/BQpWj4KgOJGh8KNwV68nowJcEc4ooTvilK6cfiD6u2xccj5u8As10fQ3SVVwuY3CgmX2sugSVBLDb1nLdpzQXwdbOftGds4hIxFKB4n8YbLYzSinHRP++pNNLndGmerfDWUeUDuQRSskA7ZGP2WMYTidcmdEMcEEqgNGCdWo2TkXQYisBTsbomXPkwixP6cfUZ8tY4c6AldDQUVOqYUynytWkSWBLEVO38Imxa4/v6eJiZ1E3tHMP8UtcxpybZUC++AxYd3gd7xPSRSnxX0JHQroAg18c8zpgvnbJEq0NFtIez1mKYKfteuGWgsA6YaZ+nrHIM2TFw+u4dc3Gf2D3AsXOAksBqUrQHNpUYh6ECQgHfsItRNR1TJ2CLYAZABkUw1iIym59rLoEVQEw1DS/n9Du75kLI7AcJWC8PbWwPOj5zVQOdzA0o2PYdklrz65NlCXY4/ThTDoIDDalCAh7m00bYqa8/uufqD+5xOAh26/n62eREIdn+kglraWFmDkj7O3GPOIR3vIVtezSxMZP1NpxViSLNT2dtCqPktVX7PO3S/Bqb4EcnaGSyIUYi8SvLsh7PNPjM16ZIQK/diiCmt2FTqp/rUZWAECF27/AUADHxJJPXdipQbP4SsKoUSl8ko3cFhNFwsX6Pk8C/fcHJ3vecjDg6HYkWtCP/SgWtjyyCndp44DrP9m2hbe+kZ8YeZSMtkARQpeX5nCXb4hWw7XHKUoNhZVtgKTti8KsVbgIxXWIvsmgB+baWEojtuDqIrWV1M9MXloBUH1N/AAxNZgkKDAEi9IRoYuylEpAIavDYPBhfN2vbd1zn8VPXxDRO0WFLkOW3m6X14CJ6nqaBGJu3a5yW1Hn6xI3eH7rh8VsrfmyIpRLI75ODUaJlpVLomJ1Sp27IUXHj4R3MUWPtlujAuU2TBQbIk69NkEAGsU1oxQvXIQJJlYAPVRhwAigMOclbw0ommhRSgodhB4ntSawWnOqnAZuGeFqQOsCq6tYLAAwT0aaBGfG0hHR458N1t1AAq3aXDd1/+M4dY62295aDgQFJKYKFCmBIq7R2Z3ipZRrCuAFD0dPusWtjG43ZNgM84V384czXBkkgg9gGNeZFqiKNRp07XgIFu0KP195vTZbrlGxLKW3MMmg4Vzoti/LWQTQ9SWVfHpucMtT+3RNX7G15sCOyHP7JrTz8vMsc/qYDKaU3cXxaA22sw9zYIZP9fVblt2R+28pRbsqCoA631TKNIR8NdCQbtoUYxko7EycR7FSKz2MZ820jJJBBbCOa8ctVIgKa7+oCB34ECgpsnascCRQoXbn8IoCbARimJhp3trCwykEdmPkZAzDCD1tA64mL0OLL0ugG7OhsTfZyto8P3Um3y8r8U75WoqUBXkPoDviaOeArZ50Dbzv7990WvwY7DWp8TLC1HFABDg17VaPpOi5mIsesgwQyiK1DK10Dj9WOTYEBkIAKEACQACi6fElsABw2bNSwTqikK6QV4OjgXv1koLCz/5CJ/PumIenjQE1fIpcBME/V35Ve9PkY0H762I2ZsB+O3vD1cQBdgZc+GuwBXA9c/eGea+7tuBrmqb0FWw+CMt0TtUaV76FZ5FdlRnnyddskkEHstrXIDfEz053V21GpagBFG2uxY+x0jQ4x0aP5sRO29fT6zDZh/lqQAEDFtFrK0Afl6g/uclwaljBYJiHtS/RnyjinroaNSkN+TYHpMJTOt9+4Ljy54x47i3ZcA3PcDU56qt/Z8R8NbB2IUMsyKrMB56plK3e+1kMCGcTWo51uhksBBxrY9gOWRzBBP+qdsgbryJ2+P3CDz2y27vbdqDvAfAQT6GhmI+aqbMjJ0XHt589MQxKYaNi3KpIIwPTT0FTPQns4meqq3+NLp+a9+M5Qx2RQwc9rXaSzISvDxQCaZKsCpxFSaL42SQIZxDapNa+iLiw+1QnjtV2Ze2a9GAtftVRCC0qHANng87ErDllYesgCU7b7jFn/1eLAksa+7JGRRwB2gUu5hDn6JsqyVoaxmtXix7CycU/LNHRqE5P5Rl8g6dMLwDTrpfzKIZ9degSnRfrQfN8ACWQQ24BGvEwV1Nl1xf7tfeEekEAr7j04cHISC1dbLbSf3T03esC8VI+TkZinGmMGZ3B8bNpQEzv3td0dqXEQ8t8eK3RX8AiIPG/c4UcamZ+sD6BGsJZ4xGUeSusHrz6XZUqcKxSdk66JBDKIrUlDXSWbKZDJHf1WJh6vTAkaPDxYAr4G1poYTgTPHIA1Zg6sxvosxelrYtFg7GcZvT50Ef6VUxcQakXqI0PkRQVFPvWMOGUZws1rYUmq6EwTZffaSyCD2No34RVXwKNGAhmUl4KB3MxFFdrIbZYIxY8FTiVU+OqXBzLR8zqWpyC/ftz9o8KSRaS3mCgNy+6NkUAGsY1pyqusSECKhUXE+Kg7yR/DFmZaMUL0IpB9adorspKT3yoJrAhivETp+2M6fBpwq+qWmVlBArEV47PSzivQ8S9ISWWlnF828W3g4cvWKFObL4EVQEyIZaiVUMovSiKMtXduXmtuXo3W/iW7ggosCWLzAOwKuMkk11gCVw0YkX58rrGoMutfVAJLgtgXLTMT21gJXDXAXDX9jW2Yja5YnInd6ErmymUJZAlsrgQyiG1u2+aaZQl8FRLIIPZVNHOuZJbA5kogg9jmtm2uWZbAVyGBDGJfRTPnSmYJbK4EMohtbtvmmmUJfBUSyCD2VTRzrmSWwCZIYHqxva9TBrFNaNtchyyBjZfAfABTtTOIbXzj5wpmCWy2BGSqKbnyiuhEGNmZJZAlsAYSwHC5gMub9LXDrObaXpoCtwrwrUEtM4tZAlkCGyuBsHcS+NJBD5z2rKeZYZkBqgBkM+EbK5tcsSyBLIGblMCU7rSIFZ0PA3hxBHz4GYjZGDOj1SKh5fAsgSyBa5bAFKDJaz9uaGKcGANeSQsrhpxmI00sglhMdc385uKyBLIEsgSmJSA4sitAlA5E1o/Da3ZxNe2oendy6oqTE47l4jzBEYek2r+YMz+zBLIEsgRuTgJSsHRQ87DbcwN+bqgD/QRirTuuXmtz+CmHPXD01oizBMc65Zl/wwxiN9diueQsgSyBUgJSvnQVHNA85AT6oc44FaihntXqWx3X0FmCLBmrnfbdgPMDx/0hHy1rdnR8PIHZk8j3LIEsgSyBm5IAiMVp88KoASA2RCsbcLhzrbizzUnNTZ3o5wrAa0SC0dEpk2Rgn/2PGHhTjOdyswSyBL5KCQh6NEdvk/Y8ByPX/3jkeu8OXB8QY0DpBjr/tHZ/1413tzkqXqoaXykBsf7rd258eORqYx0gn1wZzxJhZGeWQJbAlUsgApmwiWFk/z0ApikvfYSsc9Lp3i4gtrftGg/33LjTAvAYb3IU/cmrV6Dde1djbqwOEQOyDGBX3l65gCyBLIFEAvbpUQDE3Ndg6LrvP7jDN29tKFljuqvWbrnO44cMJ7earvHovqvdv+MGINuYGf/Rp8+u+8srN3z3gSHmwD5jJqS90xAyhEb3RZ4zhHPApkkgfS3m1i0mmBuZA79OCYSXQpP3YJA0sCMwqfv5E8oW40ZpYbs7rnV3j3Vi9bpr3L/rGt88cd3jEzc6OHQtjUPfvXPHDDJbLLdo7z92RavJZwBmzvhprqwyzpS/vKKnMhAtY0vHKuqdPkEsewm9V76gf162pekuQSvyt4oMYh4Jfk14FZusPiw5j45qtZPKyDmbvKwus7aRhH8mWSsRoYAYPZWrkrTq8SnPzhdjqzmjL8ZeF68qd1Jm5CI+Y0z0V58x9iZ4TTmZkbrwxya4eJyeuuGbD6778ys3evPeNXqsnACCCqbA2k/3XePuHdcotFey3XHtJ49Yf3HquuNfnDs8dvVTAO1N352AeifHR257f9+19/ZAwDoU0tcCd/RGqYhDc8eIMkCOSXolMoZ98Pw7NFK6lUQpfUUoYfxVEp7hCTQWlhGzLkP3LFrzeBXtZehGHs6iH9MsS/MsWtO8pjTPFVTJiL5wz228Comk/pVwsiZsFGZwhQTTaab/wCmP3in7o5MkTpwlgxVH4JX8RiKNq+SVpxLgU16SV797OSl0ThGT2FBYpcwQW8m3gFclLfMGRyUf8eYvEwWhEIhcL8tr4NQeZQnTOABYDaR1vfvoBr++dcO3B64A0Ji4d/W7227rxVPXerbvajsdWNJiCz5VumHfDQ8/ueMff3bdl7+4+uGhQ/dy/VbbnbbbrsEE2tb9+67z4L6ro8axuEwLNPwzbCI3rsrKi734UwwRFmepTBiTgDQixKcPe1HL6hIT3OkLHF/a+EzzL3SndFL60xngz+jG8LP4hU7KV+RVWWN4SUt09UllmSvhb0Yeaf4vzatoq76RrtznXYFXe+iW8J5mtRc30LNHcMfk8Wl5Ap1YfJSl4qI8YtvrGd2xvJgv+stnWkgoIwbN5FFADIzPQCjmMW+gkyaJ/ManpSfBPF5FI80bivCPWFAoI3pn8ohAJBKfCaE0n9on8mV0QmQaFvmclutMuUkZZbuLHr9ANk3h3fCnd0FdocdC+8+Hrvv2nTt9z7z8IQvwj7UurO/6lD3eabqt3z1zu9996+r3WKgPDhVjzeYLxERkDPp9PHCHf/nRAxlLLRr6C9iouwEMjFst10CNK3a2GF62WOjf4AsBQBa5s0oHTqXzWXhUVqMgQXJzcrN6hfD0hfY1m9AN9IuUvtJU/KKnxW+il/6UcPoSj4FPuSp0ptPKL7r+6WMjfe+b3Cd0rdY+U4gmrvQHXsVnhd8JpYlrQlNh5/OqYlL+UveEqq+/VQpJiDejHhLM8uplEGlZ4pTYJB8uaff+77WCPf9I0DtjSnntN0npmfCythJKNkqH0fP5RFcX3Jdy9XVXWSYD/YFQMnu3kuKNFdG03EZFXMgnUiU5Y8LnU6wyKMhqZ3Ei4MMsn5LoD3pJQNEpf4pT/kAttJN49fwSOZdXI1zW03g1UuJEZerGZR6VqSDR9E8rxgqex6syegJn8hrzp7wqLJaZlg+9SZsEmRpHZVExWygZfYh617SU4qRnc/IjVkeMtKCVZRWmYwlndrfQvh66rd8/c40He64Al/SuBRCzWlMCz9HQ9T8dMLH/izv9+VdXHB27BgUMCB/wHGvLuDKzQFYoaHVQdmtFCcMLxJ5lY2owkL6silVOy11xE1i9jEagqXKM/nQZFkE+Prsqt728nnaVWOKLdH2GQDeJrzjV+LEMZYjuSqJQHYE3lyVZIA97qyJNdTTRPOOKvCoJbi+DRekjXUusDBLa7GVFBv6W4FV0PDgGYJil6EPEH8NIkR9oiQ7vCTl4EXHzwtX10uGvqUx+1WU8yqVySM/PfEqsHKKrgFB7/755n1FUnOXzfI55Bzy/ysO7Z3ktyYQOYZ4bvTkqqLBy5QzJJ/mUNhIhVp1OqYxXuTyLRsN4xSUioh87dOVZ4TXK1tOMxRhHCuJK6cSeNBJgqlyfpMqrL5wYX3dqZqlMrla2vCqBK8g2LaPkNaSJQKseVgJuoC0SRsnq6301CYQr8jqGV5ORhU5uMZ/emLr2b/MVshgM7P0Yszq/B8PDDkPGB/eYA3sEiD1wtbs7bmwAxvtDyWaKx4AJuqqEgKl59z441XTNnV3XQ63rH3x0vaMjRpx9E1TRG/Ey4iaPva5i3phWiLHlnyZdHybQ8sBFFG7/C25rNUusgOpV0lWwpxITWJk2y+fp6cUtacc3ISaefp5B16RdSR/4jXwuom1VCCA2xat/UZCFiUcvwlXzqgrAkJVTqczEU8ogtkxoO8LL9qSuqOrQUeXic0Ji2uXnrqAHgB3yzrw/OXYMENwe79LdrV3eGz4kQd9AzPgLsjVCKsuECGAQENjxUZ4nHxTcPinRtlTb+DSgEa/JLzqNjsgq2jyxAHvzya8nvBOsGPOVZfj31+dQ4OR9Nl5FL5JTTpOhDyzpGC3zWS0LtU1kLjyjVzl1TXg1n/EkV+R1UqbSinaMFTuez8irfBbPreSZkAmvypv6Pa8KFSMCrwrPEEz5E235/TXJK16NrhU+iQ0Jyz9kNrMFzwaYdKOi2XTD5rZrPnzsOt8+c/VHd53bYimYVlHwL/a0/wYHYPXicMV52wAAAABJRU5ErkJggg==;" vertex="1" parent="-qusbfA-B7IGT00e7ALg-160">
          <mxGeometry x="8.14" y="179" width="116.86" height="100" as="geometry" />
        </mxCell>
        <mxCell id="-qusbfA-B7IGT00e7ALg-182" value="" style="shape=image;verticalLabelPosition=bottom;labelBackgroundColor=default;verticalAlign=top;aspect=fixed;imageAspect=0;image=data:image/png,iVBORw0KGgoAAAANSUhEUgAAAHgAAABQCAYAAADSm7GJAAAYVmlDQ1BJQ0MgUHJvZmlsZQAAWIWVeQdUFEvTds/sbIQl55yj5Jwk55yDqCw5g0tGRUREBBWQIAqIAhdBFIyIiIAEAyJJBUVRFBRQVAxklG8Ieu973//83/n6nJ5+trq6qro61NQOANwVlMjIUJgBgLDwaKqDqYGAm7uHAH4SEAAfIAIhQKD4REXq29lZAbT8bv+zzA0CaK19LLMm67/7/7+F0dcvygcAyA7F3r5RPmEovgYAUuwTSY0GALdGF46LjlzDaAUsVNRAFKev4YANXLyGvTfwpXUeJwdDFHcAQKClUKgBAND1oXSBWJ8AVAbdDNrHFO4bFA4AK4LirWFhEb4AcBuhPBIoTySK1+ah7v0POQH/IdP7j0wKJeAP3pjLeiEYBUVFhlIS/o/u+N9LWGjMbx1iaKUNpJo5rM0Z9duzkAjLNUyL4ulwbxtbFDOheCHId50fxTApMMbMeYMf5vGJMkR9BthQLO9LMbJEMQ+KTcJDbaw26d7+QSbmKEZ3CBwfFG3uhGIOFKf7RRk7bvKcoUY4bOqC6/2phvqb9PsU6rreNV2vYkKc9Tflfwv0M9+Uj6FLDHRyRTEJxSKxQS42KKZDsWxUiKPlJo92YqChzW8eaozDmv0iKHbwCzc12JCPifWnmjhs8meERf2eL+ZMYJC5zSa+Eh3oZLbhH0yHD2XdfnQumD6/cH3n33L8otysfs/F18/IeGPumEm/cGfHTTkLkdEGDhtjEVJkqN0mPyLkF2q6RhdCsXJUrOPmWMQlGt2QG/IR/8hoO6cNO5HEYIqF3YY9SDawAobACAiAGLR6gwgQDIJ6pm9Mo782ekwABVBBAPADMpuU3yNc13vC0acjSASfUOQHov6MM1jv9QOxKP3nH+rGUwb4r/fGro8IAe9RHAYsQSj6O2Z9VPgfbS5gHKUE/Zd2Clp9UHtD0brW//+m/6b+TdFHKVablJjfGgXof3PijHFGODOcCU4S4UK2IlqIFfrUQ6sioo5o/J7H3/zY99h+7FvsU+wo9vnOoBTqv6y0BqOofJNNX3j/0xeIGCpTBTFAdFDpqGSEDeECMogyqkcf0UU1q6BUw02717wi8C/Z/zGDf6zGJh9RnggT2Yl6RIl/j6STolP5I2XN1//0z4at3n/8bfin59/6Df/hfV+0tfw3JyYdcxVzD3MH8wDThLkBBDAtmAZMN+b2Gv6zu8bXd9dvbQ7r9oSgcoL+S9/vlV3zZJR8jfyU/MpGX7Rf/NodDQwjIhOoQQGB0QL6aETwEzAP95HdIqAor6gMwFp82bi+vjusxw2IrfdvGgW9d9UV0aNu8DctAr0zavPRI3Pyb5oYeqY5NQC44uATQ43doCFrDyx6S9CjJ40TjV/CQAKdjyJQBVpADxgDC2ALnIA72IFaH4jucyqIA3vAfpAGMkE2yAenQCkoB1XgIrgCboAmcAfcBQ9BH3gKXqC75x34CGbAHFiGIAgPkSFmiBPih0QhaUgRUoe2QsaQFeQAuUNeUAAUDsVAe6ADUCZ0HDoFnYWqocvQTegO9ADqh55Db6Ap6Bu0BGNgWpgF5oXFYDlYHdaHLWEneDscAO+CE+FU+BhcCJfBF+B6+A78EH4Kj8If4VkMwNBg2DCCGBmMOsYQY4vxwPhjqJgkTAamAFOGqcU0ouv8GDOKmcYsIjiEGRFAZNAdbIY4Iz7ILiQJOYKcQqqQeqQDeYy8QWaQX1gylgcrjdXEmmPdsAHYOGwatgBbib2O7UTP0jvsHA6HY8OJ49TQs+iOC8btxh3BleDqcK24ftwYbhaPx3PipfE6eFs8BR+NT8OfxF/At+AH8O/wCwQaAj9BkWBC8CCEE1IIBYTzhGbCAGGCsExkIIoSNYm2RF9iAjGLWEFsJPYS3xGXSYwkcZIOyYkUTNpPKiTVkjpJL0nfaWhohGg0aOxpgmiSaQppLtHcp3lDs0jLRCtFa0jrSRtDe4z2HG0r7XPa72QyWYysR/YgR5OPkavJ7eRX5AU6ZjpZOnM6X7p9dEV09XQDdJ/pifSi9Pr0O+gT6Qvor9L30k8zEBnEGAwZKAxJDEUMNxmGGGYZmRkVGG0ZwxiPMJ5nfMA4yYRnEmMyZvJlSmUqZ2pnGmPGMAszGzL7MB9grmDuZH7HgmMRZzFnCWbJZLnI0sMyw8rEqszqwhrPWsR6m3WUDcMmxmbOFsqWxXaFbZBtiZ2XXZ/dj/0wey37APs8BzeHHocfRwZHHcdTjiVOAU5jzhDOHM4bnCNcCJcUlz1XHNdprk6uaW4Wbi1uH+4M7ivcwzwwjxSPA89unnKebp5ZXj5eU95I3pO87bzTfGx8enzBfHl8zXxT/Mz8W/mD+PP4W/g/CLAK6AuEChQKdAjMCPIImgnGCJ4V7BFcFhIXchZKEaoTGhEmCasL+wvnCbcJz4jwi1iL7BGpERkWJYqqiwaKnhC9JzovJi7mKnZI7IbYpDiHuLl4oniN+EsJsoSuxC6JMoknkjhJdckQyRLJPilYSkUqUKpIqlcallaVDpIuke7fgt2isSV8S9mWIRlaGX2ZWJkamTeybLJWsimyN2Q/y4nIecjlyN2T+yWvIh8qXyH/QoFJwUIhRaFR4ZuilKKPYpHiEyWykonSPqUGpa/K0sp+yqeVn6kwq1irHFJpU/mpqqZKVa1VnVITUfNSK1YbUmdRt1M/on5fA6thoLFPo0ljUVNVM1rziuYXLRmtEK3zWpPa4tp+2hXaYzpCOhSdszqjWwW2em09s3VUV1CXolum+1ZPWM9Xr1JvQl9SP1j/gv5nA3kDqsF1g3lDTcO9hq1GGCNTowyjHmMmY2fjU8avTIRMAkxqTGZMVUx3m7aaYc0szXLMhsx5zX3Mq81nLNQs9lp0WNJaOlqesnxrJWVFtWq0hq0trHOtX9qI2oTb3LAFtua2ubYjduJ2u+xu2ePs7eyL7N87KDjscbjnyOy40/G845yTgVOW0wtnCecY5zYXehdPl2qXeVcj1+Ouo25ybnvdHrpzuQe5N3jgPVw8Kj1mtxlvy9/2zlPFM81zcLv49vjtD3Zw7QjdcXsn/U7KzqteWC9Xr/NeKxRbShll1tvcu9h7xsfQ54TPR1893zzfKT8dv+N+E/46/sf9JwN0AnIDpgJ1AwsCp4MMg04FfQ02Cy4Nng+xDTkXshrqGloXRgjzCrsZzhQeEt4RwRcRH9EfKR2ZFjm6S3NX/q4ZqiW1MgqK2h7VEM2Cvsh3x0jEHIx5E7s1tih2Ic4l7mo8Y3x4fHeCVMLhhIlEk8S/diO7fXa37RHcs3/Pm736e88mQUneSW37hPel7nuXbJpctZ+0P2T/oxT5lOMpPw64HmhM5U1NTh07aHqwJo0ujZo2dEjrUGk6kh6U3nNY6fDJw78yfDO6MuUzCzJXjvgc6TqqcLTw6Oox/2M9WapZp7Nx2eHZgzm6OVXHGY8nHh/Ltc6tzxPIy8j7kb8z/0GBckHpCdKJmBOjhVaFDSdFTmafXDkVeOppkUFRXTFP8eHi+RLfkoHTeqdrS3lLM0uXzgSdeXbW9Gx9mVhZQTmuPLb8fYVLxb2/1P+qruSqzKz8eS783GiVQ1VHtVp19Xme81k1cE1MzdQFzwt9F40uNtTK1J6tY6vLvAQuxVz6cNnr8uAVyyttV9Wv1l4TvVZ8nfl6Rj1Un1A/cyPwxmiDe0P/TYubbY1ajddvyd461yTYVHSb9XZWM6k5tXm1JbFltjWydfpOwJ2xtp1tL9rd2p902Hf0dFp23r9rcrf9nv69lvs695seaD642aXedeOh6sP6bpXu649UHl3vUe2p71XrbejT6Gvs1+5vHtAduPPY6PHdJ+ZPHj61edo/6Dz4bMhzaPSZ77PJ56HPvw7HDi+/SH6JfZkxwjBS8IrnVdlrydd1o6qjt98Yvel+6/j2xZjP2MfxqPGVd6nvye8LJvgnqicVJ5umTKb6Pmz78O5j5Mfl6bRPjJ+KP0t8vvZF70v3jNvMu6/Ur6vfjnzn/H7uh/KPtlm72VdzYXPL8xkLnAtVi+qL95ZclyaW41bwK4U/JX82/rL89XI1bHU1kkKlrL8KYNAK+/sD8O0cAGR3AJjR/Iy0bSP/2ywY9OUDRlsXSBb6CHdgDiCOWD2cOJ6LwEHkJ+nQ2NCGkLPpbtJPM8ow+TGXs4yxSbEncLRw0XO78lTwfufXFkgVfCTMKOIgelTsoQSQVJLylz6xpUtmXk5C3l4hWbFG6akKrKqgtl09Q6Ne8402WUd9q5fuYb3L+i8NCUaqxj4m2aYNZq8sIEsRK1PrYJss22t2z+wXHNmclJxtXcJcj7rVuj/0eLNtxnN++/JO4EWicHrL+Oj7Ovjt9PcLoAQ6BmkHC4RAIaOhLWFnwg9EBEba7VKnCkQRor5ED8Y0x1bF5cYnJYQmuu8236OzVy1JdZ9Gsv5+yxTXA36p0QcPpuUdqki/erg1oztz8MjroxPHPmV9y57NmTs+mzubt1SAnGAt3HLS9JRP0b7iwpLa0y2lD888OTtcNlo+VfGjEnOOtUqq2uC8Z03chbyLV2r7675eZryidNXxWtT17PrqG40Nd262N7beutV0/XZdc3VLeWvJnfy2jPY9HcGdjndV73HcW7w/+qC36+7D9u47j5p66noL+6L6DQfIA48fFz3xf6oyiB0cGqp6Fvtcbxg3fA/dXyovJ0ZyXmm9Gnt9dFRr9OOb0rcOY5ixunHn8cV3ee+3vG+ZcJgYnzw4JTc1/qHqY/i00vTsp7rPPl8Yv1yfsZt5/3XPN/Zvd79n/Qifpcz5o/tofKnzp+zq6vr6C0OX4GCMImYSuYxNxrnhdQgyRHGSOI0QrTxZk86e3ochibGUqZl5ipWBTZ2dwpHOeY3rFQ8NrxLfNv5kgbOCLUIvhGdFacT4xVUkzCW9pBKkc7dclumWnZRHFAQVtZU8lKNVMlUr1G6qP9J4q/lDG6fDvVVB11ovVD/L4JJhn9EnE4Ipr5miubGFs6WPVbh1vE2S7QG7g/ZpDumOGU5HnDNcUl0T3ALdnTyMtul6mmz32BG3M9/rEqXNu8un0/e6X7H/7gDXQPkg2qDp4L6QxtDqsKLwrIiUSOouT6peFH/UcvTTmIuxaXHe8cYJ8okiu3n3cO5lTWLYh9s3l/x2f1fK5QP5qXEHt6dZHDJKtzpMydif+deRu0dfHfucNZs9nzN7/HvuTN6n/OmCzycWTjKc0igKL64s6Tk9Vjp15t3Z12XPy/sr7v/VXNl0rqvq03nBmu0Xii8+r2O5ZHM5Hb29Fq/L1vveKGoYaMTeUm7aeftgc2VLU2vznfNt2e17O+I6k+9m3Su5X/7gdNexhzHdjo9kepCe4d4rfZn9wQP2j42fGD+1H/QeinmW+vzQ8N4X/i8NR7hGpl/dfH1o1O2NzFvC2/dj7eMl73a915ugnXgyWT6170PQR9/pwE9hnyO/RM5EfqV+i/2e8CNuNmjOdJ5+/uqC8cLDRY/FT0t9K7Q/h9fXXxp0QJbQM9gPg8NkIdJILzYRJ4ebwv9FCCTKERdJXTSltHFkBzpFejr6OYbnjK1M1cy5LHtZA9gc2HU4JDlZOVe4JrkHeJp5a/nK+YsECgTzhLKE00RiRSlixuIC4gsS3ZKlUlHSZlsEZWCZKdkhufvyjQrnFQuVkpW9VDRUcaq9avnqbhqcGs81S7R8tRV1cDqvttbrZukF6hsZiBkyGAGj78YTJoOmt8wKzP0sRC1GLQutbK3x1u02B2zN7TjsPtg3O+Q6BjppOZOdX7lcdN3jZuHO6v7ao2pbBBr/F7ff3pG809CL4NVPKfYO8dH2pfUd9jvnvytAPWAlsCUoOVgvBIS0hu4PMwxHwjsjDkbqRy7sqqG6ozG7Oto2+kdMYax27Ku45Hje+NsJXolsicO7a/Yc2OuWJJE0t689OXd/QIrRAalUjoM0aSDtx6Gx9EeH6zKOZFKOKB/FHx0+dikrIzskx/Q40/G7udtyp/MS8/ULDE6knyScyigaL+E8rViqcUbjrEqZXLlEheBfnJWM50hVxGp6dCfpXPC6eKj2Yt3jSytXJK56XDt+vf8GS4P7zeLGoSbsbclm0xbv1n13Trc1t7/uWL0reM/wfsCDI12XHw52/+yR7N3Wd6L/1WPFJ0effh5yfHZzWPBF/ojca7o3ceOZkwmfbL7NLdqvrf/G/4BrBacKQC6aZ7ocResUADk30DzzFgDsJADsyAA4aQD4UC2ATWsBFHLwT/yA0MSTgOacbIAfSAJlNNO0Ah5o1hwPDqMZ5QXQDAbAe7ACMUGSkB6aH0ZBR9F8sBMagyFYEDaAfeFDaJY3AC9hhDHWmERMFWYIISCaSBhSjjzHMmEt0YysHQfh9HDJuDY8Fm+Bz8Y/IwgSQgk3iXiiK7GKuESyJp0lzdPY0FTRIrTetO1kUfJh8mc6J7omNNPJYQAMuxjGGd0Ze5lMmG4zqzPXs2iytLM6sI6xxbDj2As4xDgaOG04J7nSuRW4x3hKeb35pPkW+O8K5Av6CikL44RfiFwVzRILFbeUkJYkS85IPZW+teW0TJKsp5yGPIv8jMIjxfNKh5UDVSxUZdVY1VbVP2m80hzQ6tLu1OnYek+3R29Yf9JgzggY49B7jmBGMCda0FqyWAlaK9vY2Ibb5dk3ObxzIjsru7i77nU7497hMeFJs11+h8vOPV4VlB7vBV8RP0f/gwFNgUvBhiEnQxfDfSIGdplQm6KVY+riZOIvJ2rv7tsbsY8neTAlL9Xq4NyhvMNbMjqP+B1jzXqd8yh3JH+1UOCURrHV6Z1nEsrOVAyfk6k+c0G+dvTy2Ws7btDcrG3a3iLdxt9pcr+sm7ZXon/uSc6QxPP+l6dfn3g78N5ravET05cL38AP+TmN+dXFjKWG5Scrt36W/4pcVVu/P6D1/xyYADcQA4pAF1gDTxAGkkAOqAA3QS94B35CbJAcZAH5QwegMugO9BZGYHHYCqbCp+B2+AuGB2OJ2YOpw4wjXIgDkol0YiGsDnY39hZ2BaeLO4B7gGfAu+P/wn8j6BNyCe+JWsRc4jTJBF3zFRo3mmtoJkylfULWIJ+ho6GLp5ugd6fvYTBhaGXcytjCZMjUxezIPIJmpkusWWxSbA/Zd3GwcdRz2nO+50rgJnNX8OjxjPPm8Fnw0/GPCFwVPCYUJGwgwiHyUfS2WLa4v4SBpKgUkzRhC1aGIEsnxyTPqEBQWFScVBpS7lK5o3pHrUv9hcY3LTpteR37rUG60XpU/UADN0NTIw1jZRN1U1OzneZJFmct71nN2HDbGtuFoDEtz/GEU75znssZ1xa3rx4q25I9H+3g2xnt1est7OPvm+933b8nYDxwOZgtRCnUKSw2/FREa+QHKnuUSXRszLnY4XiGBOvErN3P9ool7d03tj/gAENqV1p0Ou7woUzkSPox7qz2nJRct3zDE1ontYq0SjRKJc8iZXcrYiu5z92u9q5hvTBS23mp98rsdYUbe24+bKJvNmqltlV2TN0zeHClW6GnuG9k4MeTr4MTz8aGJ1/+eA29IY2xvBOZMJsqmFb7kvG9cj50sWc5daX9549fi+vrD6OnnxHwARmwFdgDf7AXFIBLoBt8gIiQNGQNUaFCqBX6ALPBRnA0XAkPYxgx5phUTCvmJ6KFJCKNyApWH5uBHcJJ4vbjRvBb8WUEAiGC8ISoQSwhwaRg0lMaI5pbtBq0d8h25Pd0KfSC9K0MngxzjNlMMkyPmMNZyCxVrAasL9kS2PnYeziOcXpzGXBL8bDwLPOO8DXwHxcIE7QSkhfmEMGJLIp+Ffsi/l3ipxSdtMgWPRkv2WS5EvkGhceK35W5VMxVU9TaNWg1PbUu6eDRd9VmfSGDXCM241pTD3NGi36rUzYRds4Oio7Dzh4u3W5m7o+3+Xsu7DjgBVEivZ/6qvkVBxAD9weTQsrDrCNA5A1qRDRfTHtcTILv7s9JFckJ+wdTVlLhg4Q0hkNK6VGHn2Q6H5k6lp4tm/M8Nz1fq+BrYfWpHcWkknOlamdul+mWt/5lVNlVZVf9pMbpQl+tSd3NyxJXTlwjXN9bv9JwuFHsVt/tlBbV1qm24g7bu8i9Ww+iHkp3j/ec7nMbYHk88DRryOLZ6vCFl7Yjk69jRn++TRnHvEuZgCcPfEA+7pv+/NnkS8JMydej32K+G32f/3F+1mb2xVzg3Nx87PzUgudC76LhYs0SeSlyaWBZZblw+euK+UrZyvJPp58Xf2F+uf26sAqtOq+eX1v/jW9H6/GDAYDi12uoS+rB2X9/t9n4rvSP3OTfLViPLmtlLbqslbVIA/4Hq1Dbb1b6fAUAAABWZVhJZk1NACoAAAAIAAGHaQAEAAAAAQAAABoAAAAAAAOShgAHAAAAEgAAAESgAgAEAAAAAQAAAHigAwAEAAAAAQAAAFAAAAAAQVNDSUkAAABTY3JlZW5zaG90g+p3LwAAAdVpVFh0WE1MOmNvbS5hZG9iZS54bXAAAAAAADx4OnhtcG1ldGEgeG1sbnM6eD0iYWRvYmU6bnM6bWV0YS8iIHg6eG1wdGs9IlhNUCBDb3JlIDYuMC4wIj4KICAgPHJkZjpSREYgeG1sbnM6cmRmPSJodHRwOi8vd3d3LnczLm9yZy8xOTk5LzAyLzIyLXJkZi1zeW50YXgtbnMjIj4KICAgICAgPHJkZjpEZXNjcmlwdGlvbiByZGY6YWJvdXQ9IiIKICAgICAgICAgICAgeG1sbnM6ZXhpZj0iaHR0cDovL25zLmFkb2JlLmNvbS9leGlmLzEuMC8iPgogICAgICAgICA8ZXhpZjpQaXhlbFlEaW1lbnNpb24+ODA8L2V4aWY6UGl4ZWxZRGltZW5zaW9uPgogICAgICAgICA8ZXhpZjpQaXhlbFhEaW1lbnNpb24+MTIwPC9leGlmOlBpeGVsWERpbWVuc2lvbj4KICAgICAgICAgPGV4aWY6VXNlckNvbW1lbnQ+U2NyZWVuc2hvdDwvZXhpZjpVc2VyQ29tbWVudD4KICAgICAgPC9yZGY6RGVzY3JpcHRpb24+CiAgIDwvcmRmOlJERj4KPC94OnhtcG1ldGE+Cj2tORcAABHoSURBVHgB7V0JfA3XGv9EVmS3hQQhlsRea2yhVV1sfU/7bK22FK2HtqparV1fVYt6lj7U0qqqelpFKW1f7UsEQWwRsSSIiC2CEMT7/pPOvXNv5iYzuTN3a/6/383ce+bMOWfOd5ZvPSnxiEEujszMTGratCklJSW5+Jvmfz23/EnFKa7UA8UEdiVqyrxLMYFlOsWVkooJ7ErUlHkXd5k0p0p68DCXEs7foh2J1+nBw0e0M+k6NQzzpXL+ntS2dhDVCSlt8X2u375PCalZtGZ/OiVn3DHJF1M7mDrVL0t1KpWmkm4lTO45048SzshFn792l6asTaYTabfptBlhzDvf092Nqgd70qMjK2nD0ul04OxNmrbhDJ29kk3pmffMs+f7jecjKpSidrUDaXincPLxdK5Fz2kIDGluzYHLtHjbeWHW5aOEggRvJtbdB7kKcspn8eLnYyKDaNxzEVQ50Fs+k4OlOgWBD6Vk0ZhViXSEl2JHgEfJEtSjWUWa1KMmeZR07Bnt0AR+mPuI5vx2jmZuOusIdM3XhgAfd5r8fC3q0rh8vnuOkmB3At/MfkAnL90mMDwi6oWWIR+PkuTl4UbdZx6gJL7vyKgTUobAh/mXcqfgMp4UFuxNEeVLUetagVTB38uuTbc5F41Zuf9MJv1+9Crvqel0+WZOvg44M6N9vjRHTjiRZnnraBDqS31aVaJnG5UjX2+bdzfZrEaIMOviL9OMjWcIXPBfBYfPZ9HhlYk0ec0per9rDerZIoT3bduJXTYh8FFmjoZ9c4zOFCLSuDLRb997SGNXnaQvfj9Hi16rT5GVytjkdXVlATFrZzGD1GXGvr80caWUTLtxj7rN2E+r91+SJuv2XbcZnJ3zkAYsTKDdp27o1nhnLfgB8yEjvj1BJ1lR816XGrq+hi4EBnExa09fzta18YUV7s1ceL3KvtSzZQg1q+5Ph1Ju0q8JVyjudCZdzsrP3BVWntb35/2RKhQ5ioms166sOYFzWePUY1a83YkLPfL8V+uZ0KRqWR/q9lgFIW3HyWvU/8sEus/biD0BIvt5e9AbHavo0gzN9+D+8xPo+EXLYoMub2FW6KjO1fMR1ywLtakVRHsntjJPtsvvTzecphMX9ZH1NSXwytg02pZ0zS6dJFZazs+TBnUIE38K16MXsnjPO07/ZoYPihURAaU8aP/k1rotj2I9Sq7Y0q7osG1otkQ/zM2lCatPkb09vL4b0shg3ku5mk19/3PIRO6ey2JKX1Y8jP9bTaHfg0p7CBqoG3eMhFdCEK3zQAHU54uDtGlUcyqh4Yas2Qx+bmY8gbmyJ0KDvKkGqwhFDFt6zIS4SMee+83Oi7TluHGlmftyXfERu16T0u/QHo2lDk1m8D02wR2z874LyrzQvKKBQFAfHmZjvhwwW/619hS1j2wu3G5VM5D2TWplcfXJYaeC9MwcGs0aqUQWbfTEkK+PUuyEaIIdWgtoUspA5kZzudPsjdJeJQ1N2Jucafgu90Vq3MB9GAnK+sp/KgV4U+OqfrT27Sb0TMNycsVplnbjzn3afOyqZuVZTWDBTSbZMZQZ2Tm5ho6JqlywKtCvCIp/zKpJf4cNWMNN0tBi45dxPyYRxE0tYPUSDZHIEWYvOuPng5dp6JNVhX5pGu5PNdnVBvuaHEayKCUC7zCcdeWWANl52J/lYpbXYwtR/LmblrJbnQ4LG5QxLWoEWF1WkWYw9rCtJ67SoMVHqNvn+61uhFYFYH+8JPGz+qx3HSrPYpMUmHu92KLzrGSpHcr73ikeCJY+M9kCln7T6L/1RN1gaZG6fN94OEOTclXNYKwa2xOvEQRzWIgcESOXn6CvBzcQRKWGVfzol3eb0Vfsx4WZ7OtdkjpEBpvso6lsujx7pWDzJdgLMFkV/GxnvF+xJ436tQml8HI+VnWzYgKjIz5gLnLHyetWVaj3w3CbXbrjAr3aLlSoCnLuiGfCZavNZKVHx09iNdvvZCspYuLd+7n0+JRY6sV69DeeqEJVgotG6EKXaMzaVXsvUbuP9jg8ccW+nPTTKXaNPW2itRLv4Yp3imXGsM3k3ZTzgH84MDCTO02NY9n9AsEKpRYFzmCMotHfJ9JP7FrjbJj7ewrN35xKrz8eJizLPp4lCe8DBmbeHyl0UEcmSeu+gp5h3A9J9O2ui/T1oAaq/LwsEjiHC31lwWFhpGvdYFuVBxFuzm8pwsdWdepZD5jIJ3k2r/hnIypMDBTbIbtEQ53Xm/WiWMaKoV0PuLP8DAMH+IJA/hRFW5V19wF1Z8kFYpQSyM7gnnPidZXzlDTMlfIgtmlgh1B6r3N+7w34aM3YeJYgeioF9mJMwK0ftKDKrH8vCPlm8HjWougpxBfUGPEeHNREVC1b8AuI+Rz1Cl/pXeNayhIXbR7SsSolTYsRZrWad8CAiPk4lgPujNo7uedNZvBNNpktY27N3oBbbe0/owLn9qtLq+Iu0S4Wf5Qg9epdOnrhlqoZoaTcouSBSnPrhy3JnyMgCgKUL/smtaYWE3ZRhgqbMIhcb/QOOjKlLWH5l4NJzV15bVexUsiVp0nags0pNL1PpFAW9qk+0ZWEj9LCoceFeDGG3VQhEtkLM1+MMiEuRJ3Zv54jrFDg6ruyM/x41m0DsAGvGNqIOk7ZS2qaDA77zWXHyJLJ07BEY4aksoHcEbB6Xzot332xyE1x497CoBhpQcFR5IJVPNg03I+ebmC0PL3FRICogxl6h+3mV2/l0FeskOk0da9hUlUvV4qa1/BXUUte1g2HMij1mjztDDP4zW+Oqxo5qluh4gGM4A//e5K+51nYMiKA7bZBip+Ojgg05B38eBVasv2CLq4whkosfOnRLESIV8Lt/x29Qms59FUOUKGu54iPro/lBbBBPRlbiKlTrpyecw7SzrHR+bxB3GNiYmj4WyPo6m31I8e8orK+HkLSlSxjIJl5HjW/YbDHZwErLJSior8XbWbuEi6z4F6jOEJ/W6LtXWSDy+T1BdoNprWgZXf+lhQDgTGgiwI41GMWm6s03RcsWEBTt97jvcrowqKmgvJ8VMKM3pEUXTOAR2zeRo89BhGD81ljtIn9kG0JWJPgi1WrYt7RDXXZtLeNj3ewJwrjA26xbCvijkSCENOUXlfuTeNtqbpJdreImrVoaxEMCAiXHMzei7HjWwlhkiJxUTo8K+ABMY/9kpezE5ynuzyHZ9ISDX84gn0aM0pERAXL54Qgz8D2Rp9oaybEXNbameur3XJYa/WoCKwzwiERLScFnO7gciJFNC85iwfmme+k6a7+fctxo9sNAsQbVfGVfeUyPBlgMRKxjc2x1uCyxB6OctyOcXhjQfuDXGXY52a/ZPREhEcEuMG672+nxmN20mNjdxJ8pEW0Zqe2ITp57ot1ONp1M3tt4gQfAPIwBvkzzFWLLrFY09rxKUC7J7QyuPnCfBlnpXr4EtutpXA/wgRWi6GsfREBR/Iu0/cZWH2kw6HtPbZC4d5r7fOc0F9oHkJzWAZUO5jEepzxOuXnZFryWgPhpALonr94pS5Bbo3nk37q81FPUidBvF+/+Ycomy1e1uCSZGtAOe77zqjzLcJo7Nu6kqENz886YEJcww3+MmVdMj3XpILgrRjGOtNZL0XJBn1dv3VfcLuFMwGsWK6C3Uk3aOCiBJrLhBWj+3FSjxynDGXFYT5sRmsY5GClBYsNRX4Qw5JTG+5ja9/HxzWIAn9hh5Wk3bgrBK5JGRSUowbQfEmtNDjrA8uhvVaO7Txon/xkL03kE3ngRAdrkgho3A6ey+LV7oTgDyamW3NNM9+D1RZWUqLzVNJpatw/Q9j/eNOoZoIMq7ZdOLClNzMrhz9uQ9Wl0Q2dqtLP7zQVlkTb8vLGN0hnJ4PXlxzlrczUQfGpT+N4QB/QjLioMYT5IyncIe6oAfZVEA1iEZabEJaD08w2drE8Ny4cLqYiMvhF78tw7ChHVAxghYDmauNh5fKzHyvzt49pSbjKAcZxOK0v3JIqbBsyTZB7TPM081Py1BgWlDbG/Ngud5zctpZVZUpxj5mA9fEZBs3L5g9aUhRzz3IzdWz3CINm5QrrXpuztcQSDnCUHxgRoEk1f8UEhrZqP1tipNYUiGsQ/zB4odQXRzEYPgwCMIDWwIMHZClJFIWSskpxOxDWKuIWKzQydQh4C5esXqjLHcf8qMW0X04bCIylMXl6DNUZtU3gEFEWRIGP+IAwKPxFbCpkRm5MyOAlNi8/OEylmN0vyoS4E1cn0VesfxaBjl0/silV4+BvAEwf9NzmCgExv5LrIB4o+FiDazzg9UBZDsGRwj2U3TFBkMLUadKHUtjmCusIzGEijn7SViAwygGnLWV0cAAoHAm0BpZzyJYiBjDH+gefvyUFLDeQ0XeMbclO8F5Cu6Bd+wd7rdgLkHefYLOg1giCO5BEB47y3aBGlKoZlVa6jpfpSRwPLAJLJWYLZDspcU+l3+YY3YO6GOAD2FtCii3H5LVA8DGTDjDz56Rl6P0dEQvRE3dZtYJYauOorsYtQMzD21MJ6sdyLcxqaoA9d8n283xi3RVawq6c0rhclIM9ZhDPqDgWk+DdqAek8uQ6NsfJ8QFivccuGMM+g8yWMTGP0uuirak0i5U2agFDgjVbQ2H1IWrDHMIUeJc3/6UcFK3G8UssCBEPHVnOg6dgAH+g6AdDhZfRm1v15hVDhK+P8buYJr1i2xBhzmmK6Uqv8K+WHgWh9Dk98zWvHkDlODDOHAKBwWlWDvCiFCZWUXGN1ZP42BK7+KQcEe159ILhA5cvB6mnhK3bKdcerdM+71vHoOeWlm1w2fl2SMMi7cXSwmz9Pe2GKScKMcQ4T42tgZp0tMTyhcNQXQmNOMgOSiI5GAgcGuRDDcIKDpqWK8CeaeCQx/1w0tCE/hxwtnhgfTbN+QmMHpipPtEhtIaVHKKKFWGgY1Zpz9EbGmHjL5CAEOmAqxxM2NBlbzSiVpN2O9z+ItdwMW0Zx+u83DbUwORhqcbHEhBr5SoGDTDI3/HKi63JEkzuQMQZ062GwT5p6SFHSofcjcM9C1t2wRS9s/w4wU7rCsCMfZP17M0LOQXAhMB48Rc4+h2uOM4ELNXPz44XzmSGrVUqLsHfCedUQ7H/I7vjugKggh3GNvnhT1Ur9HVMlmgxN8QmHB20cMt5Mckprou3nid80AGBrNGB/K2HvteenQFl0pjuNai3RA1cUHtkCYwHPuwWwZYib+G4BkuiR0EF2/Me5O+rGrnu2vM9zOuGXxciPqTmUPM85r8tEhgZ+8eEUvuoICFOGDE/xdCmB2AeheuOEoCRqsbndIx4Opw6s6OjWhRIYBSGcIptHECFw7lGsxVGyX8LM28EtEj2PrbXvE32+g3iwrpViRVL8zgG68e4dIHY2az5A0rw/oJ/4AXbcWc+CejVmDBZDZXS9hdKYLGgDlHBtGd8tEDgd1ecECIOoLKTW77xz6IQWQAFw9RetYX/EvbsZ3F0iQ3+f2XAZj3zxUiDSPf2U+GEj55QTGCxEfg/QEsHNxR/ClcY2OE4B1QM9JLViO3kwTFwMcx5riGmCC+r4g8Yv1/ZHSmcV0RbQjWB5RoHXbZPUMHKfuwlCwc0oCPsK+xIh6fJvY/WaZV50OOYYHM3Wa3rkSsvnxwsl0mrNB7EgvNb4qftLMazalWXo5SDsy23sFuTPYiLPtBkBqvtTDgE4ChBEDqZHQIWsV3Z1YDDy3DyvNRN1h7vaBcCiy8KQkfyf0WZ1iuS7rPYAHViGXbDQWjMPHYWB/zYDQVHEOKwb/g4Q5GBoxT1xkvsBDGAOdgdHCuEQ1KUoF1kIA1oG0aNq/kZjBtKntMzj93/OWVRXg7/3PljPtD7tyOm/ldFKcv8mYrstzX3lSiOjvQ3WGig777JKk+IOLf5ivrPZGQL93HOdOUgLwrl/ycMXsTR4JQEFjsRccDrD2bQlyxPXrfSBbU7R9j3Yq9OOAaAIXQVODWBpUQAsRELdI6vOM4//mxWvlBWMX9DdsuNZGd4iCxN+CyNurxNQG53RbgMgeWIg38Lf+tunoYI9wXPT5UO63LlOlOaSxPYmQihV1tdc13Sq7ecsNxiAjsh0dQ0uZjAanrLCfMWE9gJiaamyf8HSZupNxaqMHIAAAAASUVORK5CYII=;" vertex="1" parent="-qusbfA-B7IGT00e7ALg-160">
          <mxGeometry x="20" y="59" width="75" height="50" as="geometry" />
        </mxCell>
        <mxCell id="-qusbfA-B7IGT00e7ALg-192" value="" style="shape=flexArrow;endArrow=classic;html=1;rounded=0;exitX=1.006;exitY=0.644;exitDx=0;exitDy=0;exitPerimeter=0;entryX=0;entryY=0.204;entryDx=0;entryDy=0;entryPerimeter=0;" edge="1" parent="-qusbfA-B7IGT00e7ALg-247" source="-qusbfA-B7IGT00e7ALg-144" target="-qusbfA-B7IGT00e7ALg-160">
          <mxGeometry width="50" height="50" relative="1" as="geometry">
            <mxPoint x="650" y="180" as="sourcePoint" />
            <mxPoint x="700" y="130" as="targetPoint" />
          </mxGeometry>
        </mxCell>
        <mxCell id="-qusbfA-B7IGT00e7ALg-194" value="" style="shape=flexArrow;endArrow=classic;html=1;rounded=0;entryX=1;entryY=0.5;entryDx=0;entryDy=0;exitX=-0.023;exitY=0.848;exitDx=0;exitDy=0;exitPerimeter=0;" edge="1" parent="-qusbfA-B7IGT00e7ALg-247" source="-qusbfA-B7IGT00e7ALg-160" target="-qusbfA-B7IGT00e7ALg-252">
          <mxGeometry width="50" height="50" relative="1" as="geometry">
            <mxPoint x="670" y="390" as="sourcePoint" />
            <mxPoint x="610" y="286" as="targetPoint" />
          </mxGeometry>
        </mxCell>
        <mxCell id="-qusbfA-B7IGT00e7ALg-200" value="" style="rounded=0;whiteSpace=wrap;html=1;" vertex="1" parent="-qusbfA-B7IGT00e7ALg-247">
          <mxGeometry x="840" y="40" width="156" height="200.75" as="geometry" />
        </mxCell>
        <mxCell id="-qusbfA-B7IGT00e7ALg-172" value="" style="swimlane;shadow=0;strokeColor=#4277BB;fillColor=#ffffff;fontColor=#4277BB;align=right;startSize=0;collapsible=0;strokeWidth=3;" vertex="1" parent="-qusbfA-B7IGT00e7ALg-247">
          <mxGeometry x="853" y="100" width="130" height="130" as="geometry" />
        </mxCell>
        <mxCell id="-qusbfA-B7IGT00e7ALg-173" value="&lt;font style=&quot;font-size: 14px;&quot;&gt;&lt;b&gt;containerize&amp;nbsp;&amp;nbsp;&lt;/b&gt;&lt;/font&gt;" style="text;html=1;align=center;verticalAlign=middle;resizable=0;points=[];autosize=1;strokeColor=#d79b00;fillColor=#ffe6cc;" vertex="1" parent="-qusbfA-B7IGT00e7ALg-172">
          <mxGeometry x="10" y="9" width="110" height="30" as="geometry" />
        </mxCell>
        <mxCell id="-qusbfA-B7IGT00e7ALg-176" value="" style="shape=image;verticalLabelPosition=bottom;labelBackgroundColor=default;verticalAlign=top;aspect=fixed;imageAspect=0;image=data:image/png,iVBORw0KGgoAAAANSUhEUgAAAHgAAABQCAYAAADSm7GJAAAYVmlDQ1BJQ0MgUHJvZmlsZQAAWIWVeQdUFEvTds/sbIQl55yj5Jwk55yDqCw5g0tGRUREBBWQIAqIAhdBFIyIiIAEAyJJBUVRFBRQVAxklG8Ieu973//83/n6nJ5+trq6qro61NQOANwVlMjIUJgBgLDwaKqDqYGAm7uHAH4SEAAfIAIhQKD4REXq29lZAbT8bv+zzA0CaK19LLMm67/7/7+F0dcvygcAyA7F3r5RPmEovgYAUuwTSY0GALdGF46LjlzDaAUsVNRAFKev4YANXLyGvTfwpXUeJwdDFHcAQKClUKgBAND1oXSBWJ8AVAbdDNrHFO4bFA4AK4LirWFhEb4AcBuhPBIoTySK1+ah7v0POQH/IdP7j0wKJeAP3pjLeiEYBUVFhlIS/o/u+N9LWGjMbx1iaKUNpJo5rM0Z9duzkAjLNUyL4ulwbxtbFDOheCHId50fxTApMMbMeYMf5vGJMkR9BthQLO9LMbJEMQ+KTcJDbaw26d7+QSbmKEZ3CBwfFG3uhGIOFKf7RRk7bvKcoUY4bOqC6/2phvqb9PsU6rreNV2vYkKc9Tflfwv0M9+Uj6FLDHRyRTEJxSKxQS42KKZDsWxUiKPlJo92YqChzW8eaozDmv0iKHbwCzc12JCPifWnmjhs8meERf2eL+ZMYJC5zSa+Eh3oZLbhH0yHD2XdfnQumD6/cH3n33L8otysfs/F18/IeGPumEm/cGfHTTkLkdEGDhtjEVJkqN0mPyLkF2q6RhdCsXJUrOPmWMQlGt2QG/IR/8hoO6cNO5HEYIqF3YY9SDawAobACAiAGLR6gwgQDIJ6pm9Mo782ekwABVBBAPADMpuU3yNc13vC0acjSASfUOQHov6MM1jv9QOxKP3nH+rGUwb4r/fGro8IAe9RHAYsQSj6O2Z9VPgfbS5gHKUE/Zd2Clp9UHtD0brW//+m/6b+TdFHKVablJjfGgXof3PijHFGODOcCU4S4UK2IlqIFfrUQ6sioo5o/J7H3/zY99h+7FvsU+wo9vnOoBTqv6y0BqOofJNNX3j/0xeIGCpTBTFAdFDpqGSEDeECMogyqkcf0UU1q6BUw02717wi8C/Z/zGDf6zGJh9RnggT2Yl6RIl/j6STolP5I2XN1//0z4at3n/8bfin59/6Df/hfV+0tfw3JyYdcxVzD3MH8wDThLkBBDAtmAZMN+b2Gv6zu8bXd9dvbQ7r9oSgcoL+S9/vlV3zZJR8jfyU/MpGX7Rf/NodDQwjIhOoQQGB0QL6aETwEzAP95HdIqAor6gMwFp82bi+vjusxw2IrfdvGgW9d9UV0aNu8DctAr0zavPRI3Pyb5oYeqY5NQC44uATQ43doCFrDyx6S9CjJ40TjV/CQAKdjyJQBVpADxgDC2ALnIA72IFaH4jucyqIA3vAfpAGMkE2yAenQCkoB1XgIrgCboAmcAfcBQ9BH3gKXqC75x34CGbAHFiGIAgPkSFmiBPih0QhaUgRUoe2QsaQFeQAuUNeUAAUDsVAe6ADUCZ0HDoFnYWqocvQTegO9ADqh55Db6Ap6Bu0BGNgWpgF5oXFYDlYHdaHLWEneDscAO+CE+FU+BhcCJfBF+B6+A78EH4Kj8If4VkMwNBg2DCCGBmMOsYQY4vxwPhjqJgkTAamAFOGqcU0ouv8GDOKmcYsIjiEGRFAZNAdbIY4Iz7ILiQJOYKcQqqQeqQDeYy8QWaQX1gylgcrjdXEmmPdsAHYOGwatgBbib2O7UTP0jvsHA6HY8OJ49TQs+iOC8btxh3BleDqcK24ftwYbhaPx3PipfE6eFs8BR+NT8OfxF/At+AH8O/wCwQaAj9BkWBC8CCEE1IIBYTzhGbCAGGCsExkIIoSNYm2RF9iAjGLWEFsJPYS3xGXSYwkcZIOyYkUTNpPKiTVkjpJL0nfaWhohGg0aOxpgmiSaQppLtHcp3lDs0jLRCtFa0jrSRtDe4z2HG0r7XPa72QyWYysR/YgR5OPkavJ7eRX5AU6ZjpZOnM6X7p9dEV09XQDdJ/pifSi9Pr0O+gT6Qvor9L30k8zEBnEGAwZKAxJDEUMNxmGGGYZmRkVGG0ZwxiPMJ5nfMA4yYRnEmMyZvJlSmUqZ2pnGmPGMAszGzL7MB9grmDuZH7HgmMRZzFnCWbJZLnI0sMyw8rEqszqwhrPWsR6m3WUDcMmxmbOFsqWxXaFbZBtiZ2XXZ/dj/0wey37APs8BzeHHocfRwZHHcdTjiVOAU5jzhDOHM4bnCNcCJcUlz1XHNdprk6uaW4Wbi1uH+4M7ivcwzwwjxSPA89unnKebp5ZXj5eU95I3pO87bzTfGx8enzBfHl8zXxT/Mz8W/mD+PP4W/g/CLAK6AuEChQKdAjMCPIImgnGCJ4V7BFcFhIXchZKEaoTGhEmCasL+wvnCbcJz4jwi1iL7BGpERkWJYqqiwaKnhC9JzovJi7mKnZI7IbYpDiHuLl4oniN+EsJsoSuxC6JMoknkjhJdckQyRLJPilYSkUqUKpIqlcallaVDpIuke7fgt2isSV8S9mWIRlaGX2ZWJkamTeybLJWsimyN2Q/y4nIecjlyN2T+yWvIh8qXyH/QoFJwUIhRaFR4ZuilKKPYpHiEyWykonSPqUGpa/K0sp+yqeVn6kwq1irHFJpU/mpqqZKVa1VnVITUfNSK1YbUmdRt1M/on5fA6thoLFPo0ljUVNVM1rziuYXLRmtEK3zWpPa4tp+2hXaYzpCOhSdszqjWwW2em09s3VUV1CXolum+1ZPWM9Xr1JvQl9SP1j/gv5nA3kDqsF1g3lDTcO9hq1GGCNTowyjHmMmY2fjU8avTIRMAkxqTGZMVUx3m7aaYc0szXLMhsx5zX3Mq81nLNQs9lp0WNJaOlqesnxrJWVFtWq0hq0trHOtX9qI2oTb3LAFtua2ubYjduJ2u+xu2ePs7eyL7N87KDjscbjnyOy40/G845yTgVOW0wtnCecY5zYXehdPl2qXeVcj1+Ouo25ybnvdHrpzuQe5N3jgPVw8Kj1mtxlvy9/2zlPFM81zcLv49vjtD3Zw7QjdcXsn/U7KzqteWC9Xr/NeKxRbShll1tvcu9h7xsfQ54TPR1893zzfKT8dv+N+E/46/sf9JwN0AnIDpgJ1AwsCp4MMg04FfQ02Cy4Nng+xDTkXshrqGloXRgjzCrsZzhQeEt4RwRcRH9EfKR2ZFjm6S3NX/q4ZqiW1MgqK2h7VEM2Cvsh3x0jEHIx5E7s1tih2Ic4l7mo8Y3x4fHeCVMLhhIlEk8S/diO7fXa37RHcs3/Pm736e88mQUneSW37hPel7nuXbJpctZ+0P2T/oxT5lOMpPw64HmhM5U1NTh07aHqwJo0ujZo2dEjrUGk6kh6U3nNY6fDJw78yfDO6MuUzCzJXjvgc6TqqcLTw6Oox/2M9WapZp7Nx2eHZgzm6OVXHGY8nHh/Ltc6tzxPIy8j7kb8z/0GBckHpCdKJmBOjhVaFDSdFTmafXDkVeOppkUFRXTFP8eHi+RLfkoHTeqdrS3lLM0uXzgSdeXbW9Gx9mVhZQTmuPLb8fYVLxb2/1P+qruSqzKz8eS783GiVQ1VHtVp19Xme81k1cE1MzdQFzwt9F40uNtTK1J6tY6vLvAQuxVz6cNnr8uAVyyttV9Wv1l4TvVZ8nfl6Rj1Un1A/cyPwxmiDe0P/TYubbY1ajddvyd461yTYVHSb9XZWM6k5tXm1JbFltjWydfpOwJ2xtp1tL9rd2p902Hf0dFp23r9rcrf9nv69lvs695seaD642aXedeOh6sP6bpXu649UHl3vUe2p71XrbejT6Gvs1+5vHtAduPPY6PHdJ+ZPHj61edo/6Dz4bMhzaPSZ77PJ56HPvw7HDi+/SH6JfZkxwjBS8IrnVdlrydd1o6qjt98Yvel+6/j2xZjP2MfxqPGVd6nvye8LJvgnqicVJ5umTKb6Pmz78O5j5Mfl6bRPjJ+KP0t8vvZF70v3jNvMu6/Ur6vfjnzn/H7uh/KPtlm72VdzYXPL8xkLnAtVi+qL95ZclyaW41bwK4U/JX82/rL89XI1bHU1kkKlrL8KYNAK+/sD8O0cAGR3AJjR/Iy0bSP/2ywY9OUDRlsXSBb6CHdgDiCOWD2cOJ6LwEHkJ+nQ2NCGkLPpbtJPM8ow+TGXs4yxSbEncLRw0XO78lTwfufXFkgVfCTMKOIgelTsoQSQVJLylz6xpUtmXk5C3l4hWbFG6akKrKqgtl09Q6Ne8402WUd9q5fuYb3L+i8NCUaqxj4m2aYNZq8sIEsRK1PrYJss22t2z+wXHNmclJxtXcJcj7rVuj/0eLNtxnN++/JO4EWicHrL+Oj7Ovjt9PcLoAQ6BmkHC4RAIaOhLWFnwg9EBEba7VKnCkQRor5ED8Y0x1bF5cYnJYQmuu8236OzVy1JdZ9Gsv5+yxTXA36p0QcPpuUdqki/erg1oztz8MjroxPHPmV9y57NmTs+mzubt1SAnGAt3HLS9JRP0b7iwpLa0y2lD888OTtcNlo+VfGjEnOOtUqq2uC8Z03chbyLV2r7675eZryidNXxWtT17PrqG40Nd262N7beutV0/XZdc3VLeWvJnfy2jPY9HcGdjndV73HcW7w/+qC36+7D9u47j5p66noL+6L6DQfIA48fFz3xf6oyiB0cGqp6Fvtcbxg3fA/dXyovJ0ZyXmm9Gnt9dFRr9OOb0rcOY5ixunHn8cV3ee+3vG+ZcJgYnzw4JTc1/qHqY/i00vTsp7rPPl8Yv1yfsZt5/3XPN/Zvd79n/Qifpcz5o/tofKnzp+zq6vr6C0OX4GCMImYSuYxNxrnhdQgyRHGSOI0QrTxZk86e3ochibGUqZl5ipWBTZ2dwpHOeY3rFQ8NrxLfNv5kgbOCLUIvhGdFacT4xVUkzCW9pBKkc7dclumWnZRHFAQVtZU8lKNVMlUr1G6qP9J4q/lDG6fDvVVB11ovVD/L4JJhn9EnE4Ipr5miubGFs6WPVbh1vE2S7QG7g/ZpDumOGU5HnDNcUl0T3ALdnTyMtul6mmz32BG3M9/rEqXNu8un0/e6X7H/7gDXQPkg2qDp4L6QxtDqsKLwrIiUSOouT6peFH/UcvTTmIuxaXHe8cYJ8okiu3n3cO5lTWLYh9s3l/x2f1fK5QP5qXEHt6dZHDJKtzpMydif+deRu0dfHfucNZs9nzN7/HvuTN6n/OmCzycWTjKc0igKL64s6Tk9Vjp15t3Z12XPy/sr7v/VXNl0rqvq03nBmu0Xii8+r2O5ZHM5Hb29Fq/L1vveKGoYaMTeUm7aeftgc2VLU2vznfNt2e17O+I6k+9m3Su5X/7gdNexhzHdjo9kepCe4d4rfZn9wQP2j42fGD+1H/QeinmW+vzQ8N4X/i8NR7hGpl/dfH1o1O2NzFvC2/dj7eMl73a915ugnXgyWT6170PQR9/pwE9hnyO/RM5EfqV+i/2e8CNuNmjOdJ5+/uqC8cLDRY/FT0t9K7Q/h9fXXxp0QJbQM9gPg8NkIdJILzYRJ4ebwv9FCCTKERdJXTSltHFkBzpFejr6OYbnjK1M1cy5LHtZA9gc2HU4JDlZOVe4JrkHeJp5a/nK+YsECgTzhLKE00RiRSlixuIC4gsS3ZKlUlHSZlsEZWCZKdkhufvyjQrnFQuVkpW9VDRUcaq9avnqbhqcGs81S7R8tRV1cDqvttbrZukF6hsZiBkyGAGj78YTJoOmt8wKzP0sRC1GLQutbK3x1u02B2zN7TjsPtg3O+Q6BjppOZOdX7lcdN3jZuHO6v7ao2pbBBr/F7ff3pG809CL4NVPKfYO8dH2pfUd9jvnvytAPWAlsCUoOVgvBIS0hu4PMwxHwjsjDkbqRy7sqqG6ozG7Oto2+kdMYax27Ku45Hje+NsJXolsicO7a/Yc2OuWJJE0t689OXd/QIrRAalUjoM0aSDtx6Gx9EeH6zKOZFKOKB/FHx0+dikrIzskx/Q40/G7udtyp/MS8/ULDE6knyScyigaL+E8rViqcUbjrEqZXLlEheBfnJWM50hVxGp6dCfpXPC6eKj2Yt3jSytXJK56XDt+vf8GS4P7zeLGoSbsbclm0xbv1n13Trc1t7/uWL0reM/wfsCDI12XHw52/+yR7N3Wd6L/1WPFJ0effh5yfHZzWPBF/ojca7o3ceOZkwmfbL7NLdqvrf/G/4BrBacKQC6aZ7ocResUADk30DzzFgDsJADsyAA4aQD4UC2ATWsBFHLwT/yA0MSTgOacbIAfSAJlNNO0Ah5o1hwPDqMZ5QXQDAbAe7ACMUGSkB6aH0ZBR9F8sBMagyFYEDaAfeFDaJY3AC9hhDHWmERMFWYIISCaSBhSjjzHMmEt0YysHQfh9HDJuDY8Fm+Bz8Y/IwgSQgk3iXiiK7GKuESyJp0lzdPY0FTRIrTetO1kUfJh8mc6J7omNNPJYQAMuxjGGd0Ze5lMmG4zqzPXs2iytLM6sI6xxbDj2As4xDgaOG04J7nSuRW4x3hKeb35pPkW+O8K5Av6CikL44RfiFwVzRILFbeUkJYkS85IPZW+teW0TJKsp5yGPIv8jMIjxfNKh5UDVSxUZdVY1VbVP2m80hzQ6tLu1OnYek+3R29Yf9JgzggY49B7jmBGMCda0FqyWAlaK9vY2Ibb5dk3ObxzIjsru7i77nU7497hMeFJs11+h8vOPV4VlB7vBV8RP0f/gwFNgUvBhiEnQxfDfSIGdplQm6KVY+riZOIvJ2rv7tsbsY8neTAlL9Xq4NyhvMNbMjqP+B1jzXqd8yh3JH+1UOCURrHV6Z1nEsrOVAyfk6k+c0G+dvTy2Ws7btDcrG3a3iLdxt9pcr+sm7ZXon/uSc6QxPP+l6dfn3g78N5ravET05cL38AP+TmN+dXFjKWG5Scrt36W/4pcVVu/P6D1/xyYADcQA4pAF1gDTxAGkkAOqAA3QS94B35CbJAcZAH5QwegMugO9BZGYHHYCqbCp+B2+AuGB2OJ2YOpw4wjXIgDkol0YiGsDnY39hZ2BaeLO4B7gGfAu+P/wn8j6BNyCe+JWsRc4jTJBF3zFRo3mmtoJkylfULWIJ+ho6GLp5ugd6fvYTBhaGXcytjCZMjUxezIPIJmpkusWWxSbA/Zd3GwcdRz2nO+50rgJnNX8OjxjPPm8Fnw0/GPCFwVPCYUJGwgwiHyUfS2WLa4v4SBpKgUkzRhC1aGIEsnxyTPqEBQWFScVBpS7lK5o3pHrUv9hcY3LTpteR37rUG60XpU/UADN0NTIw1jZRN1U1OzneZJFmct71nN2HDbGtuFoDEtz/GEU75znssZ1xa3rx4q25I9H+3g2xnt1est7OPvm+933b8nYDxwOZgtRCnUKSw2/FREa+QHKnuUSXRszLnY4XiGBOvErN3P9ool7d03tj/gAENqV1p0Ou7woUzkSPox7qz2nJRct3zDE1ontYq0SjRKJc8iZXcrYiu5z92u9q5hvTBS23mp98rsdYUbe24+bKJvNmqltlV2TN0zeHClW6GnuG9k4MeTr4MTz8aGJ1/+eA29IY2xvBOZMJsqmFb7kvG9cj50sWc5daX9549fi+vrD6OnnxHwARmwFdgDf7AXFIBLoBt8gIiQNGQNUaFCqBX6ALPBRnA0XAkPYxgx5phUTCvmJ6KFJCKNyApWH5uBHcJJ4vbjRvBb8WUEAiGC8ISoQSwhwaRg0lMaI5pbtBq0d8h25Pd0KfSC9K0MngxzjNlMMkyPmMNZyCxVrAasL9kS2PnYeziOcXpzGXBL8bDwLPOO8DXwHxcIE7QSkhfmEMGJLIp+Ffsi/l3ipxSdtMgWPRkv2WS5EvkGhceK35W5VMxVU9TaNWg1PbUu6eDRd9VmfSGDXCM241pTD3NGi36rUzYRds4Oio7Dzh4u3W5m7o+3+Xsu7DjgBVEivZ/6qvkVBxAD9weTQsrDrCNA5A1qRDRfTHtcTILv7s9JFckJ+wdTVlLhg4Q0hkNK6VGHn2Q6H5k6lp4tm/M8Nz1fq+BrYfWpHcWkknOlamdul+mWt/5lVNlVZVf9pMbpQl+tSd3NyxJXTlwjXN9bv9JwuFHsVt/tlBbV1qm24g7bu8i9Ww+iHkp3j/ec7nMbYHk88DRryOLZ6vCFl7Yjk69jRn++TRnHvEuZgCcPfEA+7pv+/NnkS8JMydej32K+G32f/3F+1mb2xVzg3Nx87PzUgudC76LhYs0SeSlyaWBZZblw+euK+UrZyvJPp58Xf2F+uf26sAqtOq+eX1v/jW9H6/GDAYDi12uoS+rB2X9/t9n4rvSP3OTfLViPLmtlLbqslbVIA/4Hq1Dbb1b6fAUAAABWZVhJZk1NACoAAAAIAAGHaQAEAAAAAQAAABoAAAAAAAOShgAHAAAAEgAAAESgAgAEAAAAAQAAAHigAwAEAAAAAQAAAFAAAAAAQVNDSUkAAABTY3JlZW5zaG90g+p3LwAAAdVpVFh0WE1MOmNvbS5hZG9iZS54bXAAAAAAADx4OnhtcG1ldGEgeG1sbnM6eD0iYWRvYmU6bnM6bWV0YS8iIHg6eG1wdGs9IlhNUCBDb3JlIDYuMC4wIj4KICAgPHJkZjpSREYgeG1sbnM6cmRmPSJodHRwOi8vd3d3LnczLm9yZy8xOTk5LzAyLzIyLXJkZi1zeW50YXgtbnMjIj4KICAgICAgPHJkZjpEZXNjcmlwdGlvbiByZGY6YWJvdXQ9IiIKICAgICAgICAgICAgeG1sbnM6ZXhpZj0iaHR0cDovL25zLmFkb2JlLmNvbS9leGlmLzEuMC8iPgogICAgICAgICA8ZXhpZjpQaXhlbFlEaW1lbnNpb24+ODA8L2V4aWY6UGl4ZWxZRGltZW5zaW9uPgogICAgICAgICA8ZXhpZjpQaXhlbFhEaW1lbnNpb24+MTIwPC9leGlmOlBpeGVsWERpbWVuc2lvbj4KICAgICAgICAgPGV4aWY6VXNlckNvbW1lbnQ+U2NyZWVuc2hvdDwvZXhpZjpVc2VyQ29tbWVudD4KICAgICAgPC9yZGY6RGVzY3JpcHRpb24+CiAgIDwvcmRmOlJERj4KPC94OnhtcG1ldGE+Cj2tORcAABHoSURBVHgB7V0JfA3XGv9EVmS3hQQhlsRea2yhVV1sfU/7bK22FK2HtqparV1fVYt6lj7U0qqqelpFKW1f7UsEQWwRsSSIiC2CEMT7/pPOvXNv5iYzuTN3a/6/383ce+bMOWfOd5ZvPSnxiEEujszMTGratCklJSW5+Jvmfz23/EnFKa7UA8UEdiVqyrxLMYFlOsWVkooJ7ErUlHkXd5k0p0p68DCXEs7foh2J1+nBw0e0M+k6NQzzpXL+ntS2dhDVCSlt8X2u375PCalZtGZ/OiVn3DHJF1M7mDrVL0t1KpWmkm4lTO45048SzshFn792l6asTaYTabfptBlhzDvf092Nqgd70qMjK2nD0ul04OxNmrbhDJ29kk3pmffMs+f7jecjKpSidrUDaXincPLxdK5Fz2kIDGluzYHLtHjbeWHW5aOEggRvJtbdB7kKcspn8eLnYyKDaNxzEVQ50Fs+k4OlOgWBD6Vk0ZhViXSEl2JHgEfJEtSjWUWa1KMmeZR07Bnt0AR+mPuI5vx2jmZuOusIdM3XhgAfd5r8fC3q0rh8vnuOkmB3At/MfkAnL90mMDwi6oWWIR+PkuTl4UbdZx6gJL7vyKgTUobAh/mXcqfgMp4UFuxNEeVLUetagVTB38uuTbc5F41Zuf9MJv1+9Crvqel0+WZOvg44M6N9vjRHTjiRZnnraBDqS31aVaJnG5UjX2+bdzfZrEaIMOviL9OMjWcIXPBfBYfPZ9HhlYk0ec0per9rDerZIoT3bduJXTYh8FFmjoZ9c4zOFCLSuDLRb997SGNXnaQvfj9Hi16rT5GVytjkdXVlATFrZzGD1GXGvr80caWUTLtxj7rN2E+r91+SJuv2XbcZnJ3zkAYsTKDdp27o1nhnLfgB8yEjvj1BJ1lR816XGrq+hi4EBnExa09fzta18YUV7s1ceL3KvtSzZQg1q+5Ph1Ju0q8JVyjudCZdzsrP3BVWntb35/2RKhQ5ioms166sOYFzWePUY1a83YkLPfL8V+uZ0KRqWR/q9lgFIW3HyWvU/8sEus/biD0BIvt5e9AbHavo0gzN9+D+8xPo+EXLYoMub2FW6KjO1fMR1ywLtakVRHsntjJPtsvvTzecphMX9ZH1NSXwytg02pZ0zS6dJFZazs+TBnUIE38K16MXsnjPO07/ZoYPihURAaU8aP/k1rotj2I9Sq7Y0q7osG1otkQ/zM2lCatPkb09vL4b0shg3ku5mk19/3PIRO6ey2JKX1Y8jP9bTaHfg0p7CBqoG3eMhFdCEK3zQAHU54uDtGlUcyqh4Yas2Qx+bmY8gbmyJ0KDvKkGqwhFDFt6zIS4SMee+83Oi7TluHGlmftyXfERu16T0u/QHo2lDk1m8D02wR2z874LyrzQvKKBQFAfHmZjvhwwW/619hS1j2wu3G5VM5D2TWplcfXJYaeC9MwcGs0aqUQWbfTEkK+PUuyEaIIdWgtoUspA5kZzudPsjdJeJQ1N2Jucafgu90Vq3MB9GAnK+sp/KgV4U+OqfrT27Sb0TMNycsVplnbjzn3afOyqZuVZTWDBTSbZMZQZ2Tm5ho6JqlywKtCvCIp/zKpJf4cNWMNN0tBi45dxPyYRxE0tYPUSDZHIEWYvOuPng5dp6JNVhX5pGu5PNdnVBvuaHEayKCUC7zCcdeWWANl52J/lYpbXYwtR/LmblrJbnQ4LG5QxLWoEWF1WkWYw9rCtJ67SoMVHqNvn+61uhFYFYH+8JPGz+qx3HSrPYpMUmHu92KLzrGSpHcr73ikeCJY+M9kCln7T6L/1RN1gaZG6fN94OEOTclXNYKwa2xOvEQRzWIgcESOXn6CvBzcQRKWGVfzol3eb0Vfsx4WZ7OtdkjpEBpvso6lsujx7pWDzJdgLMFkV/GxnvF+xJ436tQml8HI+VnWzYgKjIz5gLnLHyetWVaj3w3CbXbrjAr3aLlSoCnLuiGfCZavNZKVHx09iNdvvZCspYuLd+7n0+JRY6sV69DeeqEJVgotG6EKXaMzaVXsvUbuP9jg8ccW+nPTTKXaNPW2itRLv4Yp3imXGsM3k3ZTzgH84MDCTO02NY9n9AsEKpRYFzmCMotHfJ9JP7FrjbJj7ewrN35xKrz8eJizLPp4lCe8DBmbeHyl0UEcmSeu+gp5h3A9J9O2ui/T1oAaq/LwsEjiHC31lwWFhpGvdYFuVBxFuzm8pwsdWdepZD5jIJ3k2r/hnIypMDBTbIbtEQ53Xm/WiWMaKoV0PuLP8DAMH+IJA/hRFW5V19wF1Z8kFYpQSyM7gnnPidZXzlDTMlfIgtmlgh1B6r3N+7w34aM3YeJYgeioF9mJMwK0ftKDKrH8vCPlm8HjWougpxBfUGPEeHNREVC1b8AuI+Rz1Cl/pXeNayhIXbR7SsSolTYsRZrWad8CAiPk4lgPujNo7uedNZvBNNpktY27N3oBbbe0/owLn9qtLq+Iu0S4Wf5Qg9epdOnrhlqoZoaTcouSBSnPrhy3JnyMgCgKUL/smtaYWE3ZRhgqbMIhcb/QOOjKlLWH5l4NJzV15bVexUsiVp0nags0pNL1PpFAW9qk+0ZWEj9LCoceFeDGG3VQhEtkLM1+MMiEuRJ3Zv54jrFDg6ruyM/x41m0DsAGvGNqIOk7ZS2qaDA77zWXHyJLJ07BEY4aksoHcEbB6Xzot332xyE1x497CoBhpQcFR5IJVPNg03I+ebmC0PL3FRICogxl6h+3mV2/l0FeskOk0da9hUlUvV4qa1/BXUUte1g2HMij1mjztDDP4zW+Oqxo5qluh4gGM4A//e5K+51nYMiKA7bZBip+Ojgg05B38eBVasv2CLq4whkosfOnRLESIV8Lt/x29Qms59FUOUKGu54iPro/lBbBBPRlbiKlTrpyecw7SzrHR+bxB3GNiYmj4WyPo6m31I8e8orK+HkLSlSxjIJl5HjW/YbDHZwErLJSior8XbWbuEi6z4F6jOEJ/W6LtXWSDy+T1BdoNprWgZXf+lhQDgTGgiwI41GMWm6s03RcsWEBTt97jvcrowqKmgvJ8VMKM3pEUXTOAR2zeRo89BhGD81ljtIn9kG0JWJPgi1WrYt7RDXXZtLeNj3ewJwrjA26xbCvijkSCENOUXlfuTeNtqbpJdreImrVoaxEMCAiXHMzei7HjWwlhkiJxUTo8K+ABMY/9kpezE5ynuzyHZ9ISDX84gn0aM0pERAXL54Qgz8D2Rp9oaybEXNbameur3XJYa/WoCKwzwiERLScFnO7gciJFNC85iwfmme+k6a7+fctxo9sNAsQbVfGVfeUyPBlgMRKxjc2x1uCyxB6OctyOcXhjQfuDXGXY52a/ZPREhEcEuMG672+nxmN20mNjdxJ8pEW0Zqe2ITp57ot1ONp1M3tt4gQfAPIwBvkzzFWLLrFY09rxKUC7J7QyuPnCfBlnpXr4EtutpXA/wgRWi6GsfREBR/Iu0/cZWH2kw6HtPbZC4d5r7fOc0F9oHkJzWAZUO5jEepzxOuXnZFryWgPhpALonr94pS5Bbo3nk37q81FPUidBvF+/+Ycomy1e1uCSZGtAOe77zqjzLcJo7Nu6kqENz886YEJcww3+MmVdMj3XpILgrRjGOtNZL0XJBn1dv3VfcLuFMwGsWK6C3Uk3aOCiBJrLhBWj+3FSjxynDGXFYT5sRmsY5GClBYsNRX4Qw5JTG+5ja9/HxzWIAn9hh5Wk3bgrBK5JGRSUowbQfEmtNDjrA8uhvVaO7Txon/xkL03kE3ngRAdrkgho3A6ey+LV7oTgDyamW3NNM9+D1RZWUqLzVNJpatw/Q9j/eNOoZoIMq7ZdOLClNzMrhz9uQ9Wl0Q2dqtLP7zQVlkTb8vLGN0hnJ4PXlxzlrczUQfGpT+N4QB/QjLioMYT5IyncIe6oAfZVEA1iEZabEJaD08w2drE8Ny4cLqYiMvhF78tw7ChHVAxghYDmauNh5fKzHyvzt49pSbjKAcZxOK0v3JIqbBsyTZB7TPM081Py1BgWlDbG/Ngud5zctpZVZUpxj5mA9fEZBs3L5g9aUhRzz3IzdWz3CINm5QrrXpuztcQSDnCUHxgRoEk1f8UEhrZqP1tipNYUiGsQ/zB4odQXRzEYPgwCMIDWwIMHZClJFIWSskpxOxDWKuIWKzQydQh4C5esXqjLHcf8qMW0X04bCIylMXl6DNUZtU3gEFEWRIGP+IAwKPxFbCpkRm5MyOAlNi8/OEylmN0vyoS4E1cn0VesfxaBjl0/silV4+BvAEwf9NzmCgExv5LrIB4o+FiDazzg9UBZDsGRwj2U3TFBkMLUadKHUtjmCusIzGEijn7SViAwygGnLWV0cAAoHAm0BpZzyJYiBjDH+gefvyUFLDeQ0XeMbclO8F5Cu6Bd+wd7rdgLkHefYLOg1giCO5BEB47y3aBGlKoZlVa6jpfpSRwPLAJLJWYLZDspcU+l3+YY3YO6GOAD2FtCii3H5LVA8DGTDjDz56Rl6P0dEQvRE3dZtYJYauOorsYtQMzD21MJ6sdyLcxqaoA9d8n283xi3RVawq6c0rhclIM9ZhDPqDgWk+DdqAek8uQ6NsfJ8QFivccuGMM+g8yWMTGP0uuirak0i5U2agFDgjVbQ2H1IWrDHMIUeJc3/6UcFK3G8UssCBEPHVnOg6dgAH+g6AdDhZfRm1v15hVDhK+P8buYJr1i2xBhzmmK6Uqv8K+WHgWh9Dk98zWvHkDlODDOHAKBwWlWDvCiFCZWUXGN1ZP42BK7+KQcEe159ILhA5cvB6mnhK3bKdcerdM+71vHoOeWlm1w2fl2SMMi7cXSwmz9Pe2GKScKMcQ4T42tgZp0tMTyhcNQXQmNOMgOSiI5GAgcGuRDDcIKDpqWK8CeaeCQx/1w0tCE/hxwtnhgfTbN+QmMHpipPtEhtIaVHKKKFWGgY1Zpz9EbGmHjL5CAEOmAqxxM2NBlbzSiVpN2O9z+ItdwMW0Zx+u83DbUwORhqcbHEhBr5SoGDTDI3/HKi63JEkzuQMQZ062GwT5p6SFHSofcjcM9C1t2wRS9s/w4wU7rCsCMfZP17M0LOQXAhMB48Rc4+h2uOM4ELNXPz44XzmSGrVUqLsHfCedUQ7H/I7vjugKggh3GNvnhT1Ur9HVMlmgxN8QmHB20cMt5Mckprou3nid80AGBrNGB/K2HvteenQFl0pjuNai3RA1cUHtkCYwHPuwWwZYib+G4BkuiR0EF2/Me5O+rGrnu2vM9zOuGXxciPqTmUPM85r8tEhgZ+8eEUvuoICFOGDE/xdCmB2AeheuOEoCRqsbndIx4Opw6s6OjWhRIYBSGcIptHECFw7lGsxVGyX8LM28EtEj2PrbXvE32+g3iwrpViRVL8zgG68e4dIHY2az5A0rw/oJ/4AXbcWc+CejVmDBZDZXS9hdKYLGgDlHBtGd8tEDgd1ecECIOoLKTW77xz6IQWQAFw9RetYX/EvbsZ3F0iQ3+f2XAZj3zxUiDSPf2U+GEj55QTGCxEfg/QEsHNxR/ClcY2OE4B1QM9JLViO3kwTFwMcx5riGmCC+r4g8Yv1/ZHSmcV0RbQjWB5RoHXbZPUMHKfuwlCwc0oCPsK+xIh6fJvY/WaZV50OOYYHM3Wa3rkSsvnxwsl0mrNB7EgvNb4qftLMazalWXo5SDsy23sFuTPYiLPtBkBqvtTDgE4ChBEDqZHQIWsV3Z1YDDy3DyvNRN1h7vaBcCiy8KQkfyf0WZ1iuS7rPYAHViGXbDQWjMPHYWB/zYDQVHEOKwb/g4Q5GBoxT1xkvsBDGAOdgdHCuEQ1KUoF1kIA1oG0aNq/kZjBtKntMzj93/OWVRXg7/3PljPtD7tyOm/ldFKcv8mYrstzX3lSiOjvQ3WGig777JKk+IOLf5ivrPZGQL93HOdOUgLwrl/ycMXsTR4JQEFjsRccDrD2bQlyxPXrfSBbU7R9j3Yq9OOAaAIXQVODWBpUQAsRELdI6vOM4//mxWvlBWMX9DdsuNZGd4iCxN+CyNurxNQG53RbgMgeWIg38Lf+tunoYI9wXPT5UO63LlOlOaSxPYmQihV1tdc13Sq7ecsNxiAjsh0dQ0uZjAanrLCfMWE9gJiaamyf8HSZupNxaqMHIAAAAASUVORK5CYII=;" vertex="1" parent="-qusbfA-B7IGT00e7ALg-172">
          <mxGeometry x="10" y="54.5" width="75" height="50" as="geometry" />
        </mxCell>
        <mxCell id="-qusbfA-B7IGT00e7ALg-188" value="Model" style="text;html=1;align=center;verticalAlign=middle;resizable=0;points=[];autosize=1;strokeColor=none;fillColor=none;" vertex="1" parent="-qusbfA-B7IGT00e7ALg-172">
          <mxGeometry x="20" y="104.5" width="60" height="30" as="geometry" />
        </mxCell>
        <mxCell id="-qusbfA-B7IGT00e7ALg-189" value="" style="image;sketch=0;aspect=fixed;html=1;points=[];align=center;fontSize=12;image=img/lib/mscae/Docker.svg;" vertex="1" parent="-qusbfA-B7IGT00e7ALg-247">
          <mxGeometry x="923" y="50" width="50" height="41" as="geometry" />
        </mxCell>
        <mxCell id="-qusbfA-B7IGT00e7ALg-186" value="" style="endArrow=classic;html=1;rounded=0;shape=flexArrow;exitX=1;exitY=0.25;exitDx=0;exitDy=0;entryX=0.019;entryY=0.365;entryDx=0;entryDy=0;entryPerimeter=0;" edge="1" parent="-qusbfA-B7IGT00e7ALg-247" source="-qusbfA-B7IGT00e7ALg-160" target="-qusbfA-B7IGT00e7ALg-200">
          <mxGeometry relative="1" as="geometry">
            <mxPoint x="820" y="113" as="sourcePoint" />
            <mxPoint x="880" y="120" as="targetPoint" />
          </mxGeometry>
        </mxCell>
        <mxCell id="-qusbfA-B7IGT00e7ALg-198" value="" style="shape=image;verticalLabelPosition=bottom;labelBackgroundColor=default;verticalAlign=top;aspect=fixed;imageAspect=0;image=data:image/png,iVBORw0KGgoAAAANSUhEUgAAAGIAAABeCAYAAADYHcHYAAAYVmlDQ1BJQ0MgUHJvZmlsZQAAWIWVeQdUFEvTds/sbIQl55yj5Jwk55yDqCw5g0tGRUREBBWQIAqIAhdBFIyIiIAEAyJJBUVRFBRQVAxklG8Ieu973//83/n6nJ5+trq6qro61NQOANwVlMjIUJgBgLDwaKqDqYGAm7uHAH4SEAAfIAIhQKD4REXq29lZAbT8bv+zzA0CaK19LLMm67/7/7+F0dcvygcAyA7F3r5RPmEovgYAUuwTSY0GALdGF46LjlzDaAUsVNRAFKev4YANXLyGvTfwpXUeJwdDFHcAQKClUKgBAND1oXSBWJ8AVAbdDNrHFO4bFA4AK4LirWFhEb4AcBuhPBIoTySK1+ah7v0POQH/IdP7j0wKJeAP3pjLeiEYBUVFhlIS/o/u+N9LWGjMbx1iaKUNpJo5rM0Z9duzkAjLNUyL4ulwbxtbFDOheCHId50fxTApMMbMeYMf5vGJMkR9BthQLO9LMbJEMQ+KTcJDbaw26d7+QSbmKEZ3CBwfFG3uhGIOFKf7RRk7bvKcoUY4bOqC6/2phvqb9PsU6rreNV2vYkKc9Tflfwv0M9+Uj6FLDHRyRTEJxSKxQS42KKZDsWxUiKPlJo92YqChzW8eaozDmv0iKHbwCzc12JCPifWnmjhs8meERf2eL+ZMYJC5zSa+Eh3oZLbhH0yHD2XdfnQumD6/cH3n33L8otysfs/F18/IeGPumEm/cGfHTTkLkdEGDhtjEVJkqN0mPyLkF2q6RhdCsXJUrOPmWMQlGt2QG/IR/8hoO6cNO5HEYIqF3YY9SDawAobACAiAGLR6gwgQDIJ6pm9Mo782ekwABVBBAPADMpuU3yNc13vC0acjSASfUOQHov6MM1jv9QOxKP3nH+rGUwb4r/fGro8IAe9RHAYsQSj6O2Z9VPgfbS5gHKUE/Zd2Clp9UHtD0brW//+m/6b+TdFHKVablJjfGgXof3PijHFGODOcCU4S4UK2IlqIFfrUQ6sioo5o/J7H3/zY99h+7FvsU+wo9vnOoBTqv6y0BqOofJNNX3j/0xeIGCpTBTFAdFDpqGSEDeECMogyqkcf0UU1q6BUw02717wi8C/Z/zGDf6zGJh9RnggT2Yl6RIl/j6STolP5I2XN1//0z4at3n/8bfin59/6Df/hfV+0tfw3JyYdcxVzD3MH8wDThLkBBDAtmAZMN+b2Gv6zu8bXd9dvbQ7r9oSgcoL+S9/vlV3zZJR8jfyU/MpGX7Rf/NodDQwjIhOoQQGB0QL6aETwEzAP95HdIqAor6gMwFp82bi+vjusxw2IrfdvGgW9d9UV0aNu8DctAr0zavPRI3Pyb5oYeqY5NQC44uATQ43doCFrDyx6S9CjJ40TjV/CQAKdjyJQBVpADxgDC2ALnIA72IFaH4jucyqIA3vAfpAGMkE2yAenQCkoB1XgIrgCboAmcAfcBQ9BH3gKXqC75x34CGbAHFiGIAgPkSFmiBPih0QhaUgRUoe2QsaQFeQAuUNeUAAUDsVAe6ADUCZ0HDoFnYWqocvQTegO9ADqh55Db6Ap6Bu0BGNgWpgF5oXFYDlYHdaHLWEneDscAO+CE+FU+BhcCJfBF+B6+A78EH4Kj8If4VkMwNBg2DCCGBmMOsYQY4vxwPhjqJgkTAamAFOGqcU0ouv8GDOKmcYsIjiEGRFAZNAdbIY4Iz7ILiQJOYKcQqqQeqQDeYy8QWaQX1gylgcrjdXEmmPdsAHYOGwatgBbib2O7UTP0jvsHA6HY8OJ49TQs+iOC8btxh3BleDqcK24ftwYbhaPx3PipfE6eFs8BR+NT8OfxF/At+AH8O/wCwQaAj9BkWBC8CCEE1IIBYTzhGbCAGGCsExkIIoSNYm2RF9iAjGLWEFsJPYS3xGXSYwkcZIOyYkUTNpPKiTVkjpJL0nfaWhohGg0aOxpgmiSaQppLtHcp3lDs0jLRCtFa0jrSRtDe4z2HG0r7XPa72QyWYysR/YgR5OPkavJ7eRX5AU6ZjpZOnM6X7p9dEV09XQDdJ/pifSi9Pr0O+gT6Qvor9L30k8zEBnEGAwZKAxJDEUMNxmGGGYZmRkVGG0ZwxiPMJ5nfMA4yYRnEmMyZvJlSmUqZ2pnGmPGMAszGzL7MB9grmDuZH7HgmMRZzFnCWbJZLnI0sMyw8rEqszqwhrPWsR6m3WUDcMmxmbOFsqWxXaFbZBtiZ2XXZ/dj/0wey37APs8BzeHHocfRwZHHcdTjiVOAU5jzhDOHM4bnCNcCJcUlz1XHNdprk6uaW4Wbi1uH+4M7ivcwzwwjxSPA89unnKebp5ZXj5eU95I3pO87bzTfGx8enzBfHl8zXxT/Mz8W/mD+PP4W/g/CLAK6AuEChQKdAjMCPIImgnGCJ4V7BFcFhIXchZKEaoTGhEmCasL+wvnCbcJz4jwi1iL7BGpERkWJYqqiwaKnhC9JzovJi7mKnZI7IbYpDiHuLl4oniN+EsJsoSuxC6JMoknkjhJdckQyRLJPilYSkUqUKpIqlcallaVDpIuke7fgt2isSV8S9mWIRlaGX2ZWJkamTeybLJWsimyN2Q/y4nIecjlyN2T+yWvIh8qXyH/QoFJwUIhRaFR4ZuilKKPYpHiEyWykonSPqUGpa/K0sp+yqeVn6kwq1irHFJpU/mpqqZKVa1VnVITUfNSK1YbUmdRt1M/on5fA6thoLFPo0ljUVNVM1rziuYXLRmtEK3zWpPa4tp+2hXaYzpCOhSdszqjWwW2em09s3VUV1CXolum+1ZPWM9Xr1JvQl9SP1j/gv5nA3kDqsF1g3lDTcO9hq1GGCNTowyjHmMmY2fjU8avTIRMAkxqTGZMVUx3m7aaYc0szXLMhsx5zX3Mq81nLNQs9lp0WNJaOlqesnxrJWVFtWq0hq0trHOtX9qI2oTb3LAFtua2ubYjduJ2u+xu2ePs7eyL7N87KDjscbjnyOy40/G845yTgVOW0wtnCecY5zYXehdPl2qXeVcj1+Ouo25ybnvdHrpzuQe5N3jgPVw8Kj1mtxlvy9/2zlPFM81zcLv49vjtD3Zw7QjdcXsn/U7KzqteWC9Xr/NeKxRbShll1tvcu9h7xsfQ54TPR1893zzfKT8dv+N+E/46/sf9JwN0AnIDpgJ1AwsCp4MMg04FfQ02Cy4Nng+xDTkXshrqGloXRgjzCrsZzhQeEt4RwRcRH9EfKR2ZFjm6S3NX/q4ZqiW1MgqK2h7VEM2Cvsh3x0jEHIx5E7s1tih2Ic4l7mo8Y3x4fHeCVMLhhIlEk8S/diO7fXa37RHcs3/Pm736e88mQUneSW37hPel7nuXbJpctZ+0P2T/oxT5lOMpPw64HmhM5U1NTh07aHqwJo0ujZo2dEjrUGk6kh6U3nNY6fDJw78yfDO6MuUzCzJXjvgc6TqqcLTw6Oox/2M9WapZp7Nx2eHZgzm6OVXHGY8nHh/Ltc6tzxPIy8j7kb8z/0GBckHpCdKJmBOjhVaFDSdFTmafXDkVeOppkUFRXTFP8eHi+RLfkoHTeqdrS3lLM0uXzgSdeXbW9Gx9mVhZQTmuPLb8fYVLxb2/1P+qruSqzKz8eS783GiVQ1VHtVp19Xme81k1cE1MzdQFzwt9F40uNtTK1J6tY6vLvAQuxVz6cNnr8uAVyyttV9Wv1l4TvVZ8nfl6Rj1Un1A/cyPwxmiDe0P/TYubbY1ajddvyd461yTYVHSb9XZWM6k5tXm1JbFltjWydfpOwJ2xtp1tL9rd2p902Hf0dFp23r9rcrf9nv69lvs695seaD642aXedeOh6sP6bpXu649UHl3vUe2p71XrbejT6Gvs1+5vHtAduPPY6PHdJ+ZPHj61edo/6Dz4bMhzaPSZ77PJ56HPvw7HDi+/SH6JfZkxwjBS8IrnVdlrydd1o6qjt98Yvel+6/j2xZjP2MfxqPGVd6nvye8LJvgnqicVJ5umTKb6Pmz78O5j5Mfl6bRPjJ+KP0t8vvZF70v3jNvMu6/Ur6vfjnzn/H7uh/KPtlm72VdzYXPL8xkLnAtVi+qL95ZclyaW41bwK4U/JX82/rL89XI1bHU1kkKlrL8KYNAK+/sD8O0cAGR3AJjR/Iy0bSP/2ywY9OUDRlsXSBb6CHdgDiCOWD2cOJ6LwEHkJ+nQ2NCGkLPpbtJPM8ow+TGXs4yxSbEncLRw0XO78lTwfufXFkgVfCTMKOIgelTsoQSQVJLylz6xpUtmXk5C3l4hWbFG6akKrKqgtl09Q6Ne8402WUd9q5fuYb3L+i8NCUaqxj4m2aYNZq8sIEsRK1PrYJss22t2z+wXHNmclJxtXcJcj7rVuj/0eLNtxnN++/JO4EWicHrL+Oj7Ovjt9PcLoAQ6BmkHC4RAIaOhLWFnwg9EBEba7VKnCkQRor5ED8Y0x1bF5cYnJYQmuu8236OzVy1JdZ9Gsv5+yxTXA36p0QcPpuUdqki/erg1oztz8MjroxPHPmV9y57NmTs+mzubt1SAnGAt3HLS9JRP0b7iwpLa0y2lD888OTtcNlo+VfGjEnOOtUqq2uC8Z03chbyLV2r7675eZryidNXxWtT17PrqG40Nd262N7beutV0/XZdc3VLeWvJnfy2jPY9HcGdjndV73HcW7w/+qC36+7D9u47j5p66noL+6L6DQfIA48fFz3xf6oyiB0cGqp6Fvtcbxg3fA/dXyovJ0ZyXmm9Gnt9dFRr9OOb0rcOY5ixunHn8cV3ee+3vG+ZcJgYnzw4JTc1/qHqY/i00vTsp7rPPl8Yv1yfsZt5/3XPN/Zvd79n/Qifpcz5o/tofKnzp+zq6vr6C0OX4GCMImYSuYxNxrnhdQgyRHGSOI0QrTxZk86e3ochibGUqZl5ipWBTZ2dwpHOeY3rFQ8NrxLfNv5kgbOCLUIvhGdFacT4xVUkzCW9pBKkc7dclumWnZRHFAQVtZU8lKNVMlUr1G6qP9J4q/lDG6fDvVVB11ovVD/L4JJhn9EnE4Ipr5miubGFs6WPVbh1vE2S7QG7g/ZpDumOGU5HnDNcUl0T3ALdnTyMtul6mmz32BG3M9/rEqXNu8un0/e6X7H/7gDXQPkg2qDp4L6QxtDqsKLwrIiUSOouT6peFH/UcvTTmIuxaXHe8cYJ8okiu3n3cO5lTWLYh9s3l/x2f1fK5QP5qXEHt6dZHDJKtzpMydif+deRu0dfHfucNZs9nzN7/HvuTN6n/OmCzycWTjKc0igKL64s6Tk9Vjp15t3Z12XPy/sr7v/VXNl0rqvq03nBmu0Xii8+r2O5ZHM5Hb29Fq/L1vveKGoYaMTeUm7aeftgc2VLU2vznfNt2e17O+I6k+9m3Su5X/7gdNexhzHdjo9kepCe4d4rfZn9wQP2j42fGD+1H/QeinmW+vzQ8N4X/i8NR7hGpl/dfH1o1O2NzFvC2/dj7eMl73a915ugnXgyWT6170PQR9/pwE9hnyO/RM5EfqV+i/2e8CNuNmjOdJ5+/uqC8cLDRY/FT0t9K7Q/h9fXXxp0QJbQM9gPg8NkIdJILzYRJ4ebwv9FCCTKERdJXTSltHFkBzpFejr6OYbnjK1M1cy5LHtZA9gc2HU4JDlZOVe4JrkHeJp5a/nK+YsECgTzhLKE00RiRSlixuIC4gsS3ZKlUlHSZlsEZWCZKdkhufvyjQrnFQuVkpW9VDRUcaq9avnqbhqcGs81S7R8tRV1cDqvttbrZukF6hsZiBkyGAGj78YTJoOmt8wKzP0sRC1GLQutbK3x1u02B2zN7TjsPtg3O+Q6BjppOZOdX7lcdN3jZuHO6v7ao2pbBBr/F7ff3pG809CL4NVPKfYO8dH2pfUd9jvnvytAPWAlsCUoOVgvBIS0hu4PMwxHwjsjDkbqRy7sqqG6ozG7Oto2+kdMYax27Ku45Hje+NsJXolsicO7a/Yc2OuWJJE0t689OXd/QIrRAalUjoM0aSDtx6Gx9EeH6zKOZFKOKB/FHx0+dikrIzskx/Q40/G7udtyp/MS8/ULDE6knyScyigaL+E8rViqcUbjrEqZXLlEheBfnJWM50hVxGp6dCfpXPC6eKj2Yt3jSytXJK56XDt+vf8GS4P7zeLGoSbsbclm0xbv1n13Trc1t7/uWL0reM/wfsCDI12XHw52/+yR7N3Wd6L/1WPFJ0effh5yfHZzWPBF/ojca7o3ceOZkwmfbL7NLdqvrf/G/4BrBacKQC6aZ7ocResUADk30DzzFgDsJADsyAA4aQD4UC2ATWsBFHLwT/yA0MSTgOacbIAfSAJlNNO0Ah5o1hwPDqMZ5QXQDAbAe7ACMUGSkB6aH0ZBR9F8sBMagyFYEDaAfeFDaJY3AC9hhDHWmERMFWYIISCaSBhSjjzHMmEt0YysHQfh9HDJuDY8Fm+Bz8Y/IwgSQgk3iXiiK7GKuESyJp0lzdPY0FTRIrTetO1kUfJh8mc6J7omNNPJYQAMuxjGGd0Ze5lMmG4zqzPXs2iytLM6sI6xxbDj2As4xDgaOG04J7nSuRW4x3hKeb35pPkW+O8K5Av6CikL44RfiFwVzRILFbeUkJYkS85IPZW+teW0TJKsp5yGPIv8jMIjxfNKh5UDVSxUZdVY1VbVP2m80hzQ6tLu1OnYek+3R29Yf9JgzggY49B7jmBGMCda0FqyWAlaK9vY2Ibb5dk3ObxzIjsru7i77nU7497hMeFJs11+h8vOPV4VlB7vBV8RP0f/gwFNgUvBhiEnQxfDfSIGdplQm6KVY+riZOIvJ2rv7tsbsY8neTAlL9Xq4NyhvMNbMjqP+B1jzXqd8yh3JH+1UOCURrHV6Z1nEsrOVAyfk6k+c0G+dvTy2Ws7btDcrG3a3iLdxt9pcr+sm7ZXon/uSc6QxPP+l6dfn3g78N5ravET05cL38AP+TmN+dXFjKWG5Scrt36W/4pcVVu/P6D1/xyYADcQA4pAF1gDTxAGkkAOqAA3QS94B35CbJAcZAH5QwegMugO9BZGYHHYCqbCp+B2+AuGB2OJ2YOpw4wjXIgDkol0YiGsDnY39hZ2BaeLO4B7gGfAu+P/wn8j6BNyCe+JWsRc4jTJBF3zFRo3mmtoJkylfULWIJ+ho6GLp5ugd6fvYTBhaGXcytjCZMjUxezIPIJmpkusWWxSbA/Zd3GwcdRz2nO+50rgJnNX8OjxjPPm8Fnw0/GPCFwVPCYUJGwgwiHyUfS2WLa4v4SBpKgUkzRhC1aGIEsnxyTPqEBQWFScVBpS7lK5o3pHrUv9hcY3LTpteR37rUG60XpU/UADN0NTIw1jZRN1U1OzneZJFmct71nN2HDbGtuFoDEtz/GEU75znssZ1xa3rx4q25I9H+3g2xnt1est7OPvm+933b8nYDxwOZgtRCnUKSw2/FREa+QHKnuUSXRszLnY4XiGBOvErN3P9ool7d03tj/gAENqV1p0Ou7woUzkSPox7qz2nJRct3zDE1ontYq0SjRKJc8iZXcrYiu5z92u9q5hvTBS23mp98rsdYUbe24+bKJvNmqltlV2TN0zeHClW6GnuG9k4MeTr4MTz8aGJ1/+eA29IY2xvBOZMJsqmFb7kvG9cj50sWc5daX9549fi+vrD6OnnxHwARmwFdgDf7AXFIBLoBt8gIiQNGQNUaFCqBX6ALPBRnA0XAkPYxgx5phUTCvmJ6KFJCKNyApWH5uBHcJJ4vbjRvBb8WUEAiGC8ISoQSwhwaRg0lMaI5pbtBq0d8h25Pd0KfSC9K0MngxzjNlMMkyPmMNZyCxVrAasL9kS2PnYeziOcXpzGXBL8bDwLPOO8DXwHxcIE7QSkhfmEMGJLIp+Ffsi/l3ipxSdtMgWPRkv2WS5EvkGhceK35W5VMxVU9TaNWg1PbUu6eDRd9VmfSGDXCM241pTD3NGi36rUzYRds4Oio7Dzh4u3W5m7o+3+Xsu7DjgBVEivZ/6qvkVBxAD9weTQsrDrCNA5A1qRDRfTHtcTILv7s9JFckJ+wdTVlLhg4Q0hkNK6VGHn2Q6H5k6lp4tm/M8Nz1fq+BrYfWpHcWkknOlamdul+mWt/5lVNlVZVf9pMbpQl+tSd3NyxJXTlwjXN9bv9JwuFHsVt/tlBbV1qm24g7bu8i9Ww+iHkp3j/ec7nMbYHk88DRryOLZ6vCFl7Yjk69jRn++TRnHvEuZgCcPfEA+7pv+/NnkS8JMydej32K+G32f/3F+1mb2xVzg3Nx87PzUgudC76LhYs0SeSlyaWBZZblw+euK+UrZyvJPp58Xf2F+uf26sAqtOq+eX1v/jW9H6/GDAYDi12uoS+rB2X9/t9n4rvSP3OTfLViPLmtlLbqslbVIA/4Hq1Dbb1b6fAUAAABWZVhJZk1NACoAAAAIAAGHaQAEAAAAAQAAABoAAAAAAAOShgAHAAAAEgAAAESgAgAEAAAAAQAAAGKgAwAEAAAAAQAAAF4AAAAAQVNDSUkAAABTY3JlZW5zaG90r2uK7AAAAdRpVFh0WE1MOmNvbS5hZG9iZS54bXAAAAAAADx4OnhtcG1ldGEgeG1sbnM6eD0iYWRvYmU6bnM6bWV0YS8iIHg6eG1wdGs9IlhNUCBDb3JlIDYuMC4wIj4KICAgPHJkZjpSREYgeG1sbnM6cmRmPSJodHRwOi8vd3d3LnczLm9yZy8xOTk5LzAyLzIyLXJkZi1zeW50YXgtbnMjIj4KICAgICAgPHJkZjpEZXNjcmlwdGlvbiByZGY6YWJvdXQ9IiIKICAgICAgICAgICAgeG1sbnM6ZXhpZj0iaHR0cDovL25zLmFkb2JlLmNvbS9leGlmLzEuMC8iPgogICAgICAgICA8ZXhpZjpQaXhlbFlEaW1lbnNpb24+OTQ8L2V4aWY6UGl4ZWxZRGltZW5zaW9uPgogICAgICAgICA8ZXhpZjpQaXhlbFhEaW1lbnNpb24+OTg8L2V4aWY6UGl4ZWxYRGltZW5zaW9uPgogICAgICAgICA8ZXhpZjpVc2VyQ29tbWVudD5TY3JlZW5zaG90PC9leGlmOlVzZXJDb21tZW50PgogICAgICA8L3JkZjpEZXNjcmlwdGlvbj4KICAgPC9yZGY6UkRGPgo8L3g6eG1wbWV0YT4KscSTqAAAE2hJREFUeAHtXHlUleW6f5hBBpkRQZxA0TTnsaPHqZOnTI+alanVqU5pd936Q1ctT7XuWjdb3XQd7ZRaWZmW2rX0quWQcziLOGIKioIDIMggCAgy3d/vhW/vD9gIBOyN+T2u7ffu73vH5/dM7/N+G7vy5N/KxSCbc8BRzeBGvEh5qc0n80BOwNVLxCdUKoBIjq3gQWD4A8kLmy06PUGkdbAOCM7EpZXIoOdsNqcHbuByeISdi0zLtjeVjIJNOWAAYVP2mwc3gDDzwqYlAwibst88uAGEmRc2LRlA2JT95sENIMy8sGnJAMKm7DcPbgBh5oVNSwYQNmW/eXADCDMvbFoygLAp+82DG0CYeWHTkgGETdlvHtwAwswLm5YMIGzKfvPgBhBmXti0ZABhU/abB//dQJThqM94/cPMyMaWKl4eqGcvGUWFsivjhmxMT5HC/DwRB3sJ8/KVp9qEyABvP3FzaFB39Ry1ZVejMNo1wRTrxbnCslL5+uolWRh7THLybkt2yV0pKytTwzuD+escHcUjsK2s7T9M+nj5WJzWuJh9klBcbPEZbw4HkF90690ki2J/pdDX5DsFklSQJ8P8gursN7+kROZeOic7MtNlX/8/SaCzK7upQWdys+Wd+Fi5mJcrUlyE15AAhbOLjMEYL7TrJL1b+4qTvdnQxKL+lN9OyDg8/yjiIXGwswxbnUAUAYRF50/JP4/uBfTmAewwmG9wO8m8niipxbh/JUH64hP9t+dlgI9/jQVsxeTLC++AIfhXfS5YTHhIRymP7IVn1R/W6KpeN+Ju58jf92yWY7cypPT5N+vs99/XLsmnJw6JALiZTo7yfwNGWBxne+o12XwmWvVXMVfMF++EXbgUJ0uO7Zdx4d3k84F/lhA3d9X+GixH/LmT0qdTVymN6C4OtYjEPYGg2q28dF7+eQQg6FDmCEGubrK+1xB55FpiFd0cuuFbiZrwnAz1a6Mmov/P08VN/rPfIzIFAFYnTycnsa8EgeNqPsgB6yR4tZFWjzW09qa6MJ01UTc9NRVyS4ol/eYNcbpbJCUODrLhVLQk9xgIZuIVI0uEeT7fpad8BAtgD+HMuFsg65KvyvLzJ2Vzwjn5b2jTB1inPzSlvnRPIGKyM+S1/dtrgEB1fLPfMLiImgwqwa1XDuySvY9NVmDpJ+KM+l09PKU3zJAlIgAxOVmScCtLCqH2ZHIrF1fp6u0vPT28qqh8fmmJnMT8kiD5d2FWnMFA91buMjagLXyVg7l7dLruxnUTHh0hqT09W4uLvblOdOZNWQNtHt4+XIrKy+TQ5Qsy/9wJWdT3kZrgVvbMMQIwN4If4OIi70X6yEj/IBm7c6Msg3ZN6Bwpj8Nc15fuCcSc4wcsSlS3wGB5O7y7RN9MtThOcl6OfJd0QebA1DSEysH4pfFnZUXCWagEfVC52EMb+mFBH/UcIMPbhCobe6e0VN6LOyNbYdPjc29VCAoY7g4JvPTktKpAAKRnDuwwae0MMHtBz4EmIWFfx26myM2C2/J0yGAZhLUNvnpZ1kOy336or7R1rUUrLCzMF1aiE8xybMoVKUVgQ8GqL9UKRAkk41xasoV+yuV/IClKFxgleftWMCL/NpxXhTPOhYofhxSWd324im0uw8wKSkolt5rTpkXydKwwTc+HdZTRAUHigL4ZIB9DhPZx7HGZi+8rvLwl0t1TsqEti04ekkH4vmzIKPGAySNwt+7kibezU9U5wzyt6DvEdK+jp7fQDGqUVlggX178TYYGtZUBgW2kF5ytd1CIZKYnyyew+x8CjJp6r7Wuer2DtaWiP8Fa7HQaV7WW5W+1AnEFTqvUAqRjO3SRYf4V9r9nax85+ehEOQupfB9R0YXszMpRyqUYklYE5rjqzETu3UKZF/2rLKFT1FFbMHLzE1PECfZ2eFCoUndt8YP8AuXy7VzZzKAAkQqBuI65CRx/97DO8mLHSJPJuovxnKv5Mvq26Z0iwcyKHulgtb45hbjcLEmEiZsQ0k+6AyTS/w4cLiPg62JgYvK79hQPMLYuyoDwrUyMkwz0NSq0o0RASPTj1NW+ViCy7iJEtdDTm3BS3pVOqBWktDfC1bWQqIuw62ayU+EjtQqbDdPtUpieZDjG5GpKm+cIA0TQMR7DuzK0y4bWFABML0dn6Q91/wlBQxn8AqldpRONQqi5PvWqTAoOUwDUAEHVZrd2tdr68ccPSQD8T08EEJrfGO4bKAJfch7+ZyM0ezoYW4WwjvWInqIP7pTkshLJgTUoS78hJVibtPKQsZ27SQT6bAjVCkQYJmJmYUWXg7HgbAwWlXZdwrGRCwVDTkACfoX5oH03Uzmk266KNvCZH2zoomGPyYx2nc1VdaUsSNXqqwnywdkYScsmsOiTGqWFzZVDeDu7yX/0HSprzp+WqTvWi7d/sMyHCRkNH9IBDpt+pT7EDWoxzG8k2vXDei5T0yrp9W69ZCk09zC0YkrbMBNI2vN8gJQCrWRAHwAz5IgAINQ/UN7v3leGw2LUbwZab7Bm5mLVEsNTB51Z4dMjKVfkSHKSqjhv2KMyO7yH7EzGPUhNFQLjHBDCOWgM1D3Uw6W7LTQriy+elf+K2S99ESX1i+wpdnhDvay0WBJTr0scwNaIEcu/eg+WIZDi1ZfjJCE9VWbt3SJOMGM//+lRGVNpOrX6tV3nnDmqHu2HZvXes6lqNWgj6VROtpwD0/vAd5gIQvZEhwh5u9cgccYafVycJRhzrW2zZmp3j0KtQLDN38Ifki+xeTHFfpiAVqa6J8F2kxHVyQ+Rxpj2EQ2SilRI1+mMNHRlJx/ARj8G7aNUFQOgf0FD5sJ56olmZBrqPNumnexG2mXVhbPyXdxpmXvioIx8dJLSSLV5QntL4DNaWnX+jHg7OctU7Hgdq/mWEmj4KViFQ2kpchhC0AsmWL9P8YN5Jjj6e/r5NbR8TyDmIWT8Eg5IkNaoTqWw45ugHbGZZJ6ZyLw+bdvL9JAw8816lOhPyBwCTeeoqTaZaImRrO9IzUP9vwQESxg0+DtkAMoxV87NDxrpTo1G+EqTx5ifxL0JHfYS7BvKEH0FIFxdMODPJoevKuE/+rMfEIIf/nWLnILGZCHs9a8l7aG1acz1nkAEYvJbhz8uj+/aKILF6KkEkrb4zDH9LXCsXBx9/WUxdpWa46taofZv9DcDfPxkW2K8zIR5moXQtx3s/S047QPYcFFTNGJE948je2Q0oqYIOMcMRGPUCIJoh0iOAPlA0t0ADu/9dfdGmQztzgAoKVjHXERRa+NPA+ByeQM23R25MksUiMhH8FkHQF5Ge39/y/knS20bes/yDHS9jEV8vQUh6hNR26AZOaYn8xEpFd7JN31Xya+Q9pI+arxSd/ODyhIYAj3WsbNqDQI3Az7nIELg3XDYs+F3aFoYd5VQJ8isSvMRBZ+wC5uuKNRzKLdTDC2CELgj/t+GYEAzFwsHDJfTt7LlOHxMbFqqqlcG4Lq3aiWZ3Peg2xlh4VUnovs2BBmAN+EL/g3zfC0/VwbAB6n8EtfCTz1IuUlWraO+nfpV6fF1FT/d+sucWrtmFvNdJK92Q6WLYM+Ly0rVpFwQwjoibTEXUcur7bvUiJS0Dhlnc+VeMDvOdWx2EsGkI4jGChCuhsLfdHD3kDA3jyo75kxEPPuy0uU6hMHPyQV7myCEtRWJNm1MXmnWDsN8xoORbeFQB/oEiCvC5fxihMJgTl35IM4hD5rUCmbOHXMvhPnMQ+TIgKE++wtajqziu+KKNXvpNpJKcPnTLVdPkXBskOsLhLY42vGTOZkqxuY+gg4rHEDQHBjUAA5Ag9Vv6CqBqNM0Ve+akjAUGx5+DGo6Dhhi3HS8bFRPBhCNYl/TNTaAaDpeNqon+1J4dYNszwH7DVt3yl2GcgbZhAMFd+5I0rVksY86HCOFSHkbZBsOZGbnyKGYU2K/4L054uVe/+NA20z3jztqu7Zt5LmJT4i9q2v93zT447LD9iszoibbY6BmYABhANFCONBCpmFohAFEC+FAC5mGoREGEC2EAy1kGoZGGEC0EA60kGkYGmEA0UI40EKmYWiEAUTDOZCRkSGpqZZ/HMPe+CJ0bm6uZGVlqXLDR7Bdi2bTCDLs/fffl0mTJsmPP/5oWiGZtWHDBnn66afl9ddfxxuR9T+UWrx4sWpj6qxaoRSv+nz77beyfPlyuWvhjOX06dPyyiuvyIsvvijJyeZ3aaOjo2Xy5Mlqri+//LJs375d/Wo2Li5O1d+6dav6Xm24Jv3abEDcwcnTrVu3lGSuXLnSxPArV67IoUOHJD8/X5KSkkwLJEBkJD/6V/z194vx+mVRkfnVT/7EmECyjUb8bglc1s3MzJTbt29LTk6OULs00tq3b99e3Nzc5JNPPpH169crMKlh7E8/J61dU14b/F5TQwcfOXKkUOIoXT169FCSeOPGDfHy8lJmhP0VFhbKqVOnFHB8pbF169bSv39/NRTbXb9+XZydndVzbXwyKDY2VvXhhDfounXrJkFBQdrjGlcKxb59+2To0KGSlpYmu3btkocfNv+0LDg4WF577TUJCwuTGTNmCLWga9euNfpprhvNphHahHv16qWY/vnnnystIGN79+4t4eHmd0737Nkjn376qcTExMjevXtlwYIFQjNCrVm0aJFs2bJFDhw4IOnp6apbagYZ9dVXX8nZs2dl7dq18sUXX1TRDG187UrgEhISJCIiQgIDA2X//v01tIvjUSCoPR07dtSaWuXa7EBwFd27d5fLly8rRxsVFSWUPkq9Rj/88IO6R4mcNWuWBAQEyObNm1V9asuTTz4pM2fOlNDQUNWE5ongtMLLxJ06dZI2bdrIyZMnLfoFNqBZOXfunOqXEh8SEiLUIgKv0c2bN2XdunXKv/j7+8vUqVO1R1a5Nrtp4iqeffZZ2bZtm6xatUo8PfE7a2iEPvrJzs5WJsHPzw+vvvuLh4eHsuOUYjKMbSjFZDyJjM3Ly1O2m5pCDeFz9aa2qlH1P9ZngEDzRM0huASTvoumikTBGDZsmGh+ghpB02ctsgoQZDCdICVw4MCB0qVLFwWMtsjOnTvLtWvXZPfu3eqamJgor776qjIPdLCHDx9WwNG5k/iTMjKMkdG4ceMUEDRPjrX8zoH1CML48ePVh33MmzdPaQnNEcnV1VVpV2RkpPpu7f+azTSRWZRsSjTppZdeEl9fX+nQoYNiGIHx9sZPYOGc33nnHcWIFStWKB9BRz1ixAjVfuzYsXL8+HFliiil1BhqxhtvvKFsOUPV1atXi7s7fsSI30/wyud67fj555+VORo1apSSfEr/xIkTVZm+gnNk8FAdSH5nXRf8ZQF9f80BUoNfy2+OSTyQfcJc6l/LbzaNeCCZ24hFG0A0gnlN2dQAoim52Yi+DCAawbymbHrfAMG9AD+/lxrb/veOW992VtlHcDLM7zDZphHDTOaGqoeM2nP9lZsv7szZhrtrhqkNIYJw7NgxFS4zxdHcoWhD5qbVtRoQ33zzjcrvcONE6tOnj0pncLNXF3HnvWbNGrXhmjZtmkoA1tVG/5xALF26VJj34v6j+t8Y0eqmpKSofNSgQYPU3kG7b42r1YCgNnADxxwOJZopCUo4UxVkDKWU6WYCpWkJvzOdrk99kylso6/DzaHGXCbs2IbMZ8aWH/bN8w/msEgFBQWK0eyX9TXhOHr0qHz//fcq3cK6nJ+1yGpAcEFk2ODBgxXTuPvljpWHRywzr8RzAWZlJ0yYoHa0H374ocoLkalXr15VGsF+Fi5cqHbCTFsQrHbt2sn06dMV05lLYpqdRLCYKmFSkOkVmiWmRjZu3KjSIqzHvplCZ4qe5yQEccmSJarN7NmzVT/W+K9hxraRM2Ia+6233hIukDabTDhz5ow6r2CGllnRn376SfkTprlPnDih8k18xkSdRkxVM9tKU8MUxC+//CI0Xzt27JCDBw+qcwQm85izoknkOEyr8zsZffHiRWEWmGkOaic1gVf2Rw3ieQRNoDXJqhpByfzss89MZkRbKDViypQpKvXNTCqlnMeVNA0vvPCCOlmLj4/XqivG0nRQc8h4ZkmZ2OMxKQOAZ555RjGUgPG5JWICkH6KJvLdd99VJ3fMjREQzpP3rUlW1QgujEzmRzuerG2xNFu033wRgGaLkqwnAka/w2csk4HUDvbNezwSpQ9gMq+hRO2rPl5D+2hofatpBB0mU86UdDKNZwzacah+0lpoSWn/+OOP1ckdmZmEFDjtuEaMcL7++mt1akfNoVbRITMbu2zZMqVNbENN05PWv3blM5b5oRbQj23atEkdVD311FP6ps1athoQo0ePVmcKlFYSNYIfLlZLM/OcgodINDtkOvcelE6aDD7rgBS6Fh2R+fQpPO2jE/bx8ZERI0YosBlVkfgGCVPfBJ4gaSeDY8aMUWUynyDTTHF/wlCa41MLrRkxca73ZRqcTpaHSfPnz1dM5kLuO0IAcd+nwelMecikNy/3HRDVJmw101Rt3EZ95Rsfml1vVEctqPF9CYS2q25BfGz0VKwevjZ6xn/QDgwgWgiwZtNEL46/g2qQlTiAv02LFIFpMDMQRXi/5+By0wOjYAUOFGG/41ax86/YR+DvbwMeK4xsDFGDA/zroPaO8v/xpaXkz/hTDgAAAABJRU5ErkJggg==;" vertex="1" parent="-qusbfA-B7IGT00e7ALg-247">
          <mxGeometry x="870" y="370" width="98" height="94" as="geometry" />
        </mxCell>
        <mxCell id="-qusbfA-B7IGT00e7ALg-201" value="" style="edgeStyle=orthogonalEdgeStyle;rounded=0;orthogonalLoop=1;jettySize=auto;html=1;" edge="1" parent="-qusbfA-B7IGT00e7ALg-247" source="-qusbfA-B7IGT00e7ALg-200" target="-qusbfA-B7IGT00e7ALg-198">
          <mxGeometry relative="1" as="geometry" />
        </mxCell>
        <mxCell id="-qusbfA-B7IGT00e7ALg-253" value="Train data" style="text;html=1;align=center;verticalAlign=middle;resizable=0;points=[];autosize=1;strokeColor=none;fillColor=none;" vertex="1" parent="-qusbfA-B7IGT00e7ALg-247">
          <mxGeometry x="320" y="120" width="80" height="30" as="geometry" />
        </mxCell>
        <mxCell id="-qusbfA-B7IGT00e7ALg-254" value="Test data" style="text;html=1;align=center;verticalAlign=middle;resizable=0;points=[];autosize=1;strokeColor=none;fillColor=none;" vertex="1" parent="-qusbfA-B7IGT00e7ALg-247">
          <mxGeometry x="325" y="220" width="70" height="30" as="geometry" />
        </mxCell>
        <mxCell id="-qusbfA-B7IGT00e7ALg-143" value="Text cleaning" style="text;html=1;align=center;verticalAlign=middle;resizable=0;points=[];autosize=1;strokeColor=#82b366;fillColor=#d5e8d4;" vertex="1" parent="-qusbfA-B7IGT00e7ALg-247">
          <mxGeometry x="185" y="169.5" width="90" height="30" as="geometry" />
        </mxCell>
        <mxCell id="-qusbfA-B7IGT00e7ALg-255" value="tokenization" style="text;html=1;align=center;verticalAlign=middle;resizable=0;points=[];autosize=1;strokeColor=#82b366;fillColor=#d5e8d4;" vertex="1" parent="-qusbfA-B7IGT00e7ALg-247">
          <mxGeometry x="185" y="210.75" width="90" height="30" as="geometry" />
        </mxCell>
      </root>
    </mxGraphModel>
  </diagram>
</mxfile>
